<svg width="75" height="75" viewBox="0 0 62 62" fill="none" xmlns="http://www.w3.org/2000/svg">
<path fill-rule="evenodd" clip-rule="evenodd" d="M56.4318 56.4318C49.4505 63.413 38.3802 63.812 31 57.7283C23.5201 63.812 12.4498 63.413 5.56824 56.4318C-1.41302 49.4505 -1.81195 38.3802 4.27172 31C-1.81195 23.5201 -1.41302 12.4498 5.56824 5.56824C12.5495 -1.31329 23.6198 -1.81195 31 4.27172C38.4799 -1.81195 49.5502 -1.41302 56.4318 5.56824C63.413 12.5495 63.812 23.6198 57.7283 31C63.812 38.3802 63.413 49.4505 56.4318 56.4318ZM54.3374 54.3374C60.1219 48.5529 60.5208 39.4773 55.6339 33.1941L33.1941 55.6339C39.4773 60.5208 48.5529 60.0221 54.3374 54.3374ZM7.56289 54.3374C13.3474 60.1219 22.423 60.5208 28.7062 55.6339L6.26637 33.1941C1.37948 39.4773 1.77841 48.5529 7.56289 54.3374ZM7.56289 7.56289C1.77841 13.3474 1.37948 22.423 6.26637 28.7062L28.7062 6.26637C22.423 1.37948 13.3474 1.77841 7.56289 7.56289ZM8.26102 30.9003L30.9003 53.5395L53.5395 30.9003L30.9003 8.26102L8.26102 30.9003ZM54.3374 7.56289C48.5529 1.77841 39.4773 1.37948 33.1941 6.26637L55.6339 28.7062C60.5208 22.423 60.0221 13.3474 54.3374 7.56289ZM30.9003 37.9813C27.0107 37.9813 23.919 34.8896 23.919 31C23.919 27.1104 27.0107 24.0187 30.9003 24.0187C34.7898 24.0187 37.8815 27.1104 37.8815 31C37.9813 34.8896 34.7898 37.9813 30.9003 37.9813ZM30.9003 27.0107C28.7062 27.0107 26.911 28.8059 26.911 31C26.911 33.1941 28.7062 34.9893 30.9003 34.9893C33.0944 34.9893 34.8896 33.1941 34.8896 31C34.8896 28.8059 33.1941 27.0107 30.9003 27.0107Z" fill="#BEC2A1"/>
</svg>
