<svg width="75" height="71" viewBox="0 0 75 71" fill="none" xmlns="http://www.w3.org/2000/svg">
<path d="M61.321 71H6.41382C4.60356 71 2.88253 70.2537 1.65868 68.9635C0.485834 67.7112 -0.100591 66.0795 0.0141446 64.3845C0.651563 55.3023 2.79329 50.9004 6.54131 50.9004L8.49177 50.9131C28.4557 51.0269 34.6514 50.989 36.0792 50.9384C37.0864 49.3952 37.711 41.3376 36.2067 35.7087C34.4729 34.6335 25.0137 34.4059 23.2799 35.4178L20.6792 39.9462C19.9781 41.1732 18.665 41.9574 17.2372 41.9701C16.3448 41.9827 15.3886 41.9827 14.4325 41.9827V45.8534H11.5004V43.3235C11.5004 42.8176 11.5004 42.3622 11.5004 41.9701C8.98896 41.9574 7.00025 41.9448 6.97475 41.9448C6.15886 41.9321 5.50869 41.2744 5.52144 40.4775C5.52144 40.4648 5.52144 40.4522 5.52144 40.4269C5.52144 40.4016 5.52144 40.3763 5.52144 40.351C5.52144 39.7059 5.25372 37.6693 4.97326 35.519C4.01713 28.1319 3.34147 22.3006 4.19561 20.1629C5.8529 16.0013 9.4479 13.9015 14.866 13.9015C15.6181 13.9015 18.0785 13.9141 21.4696 13.9394V9.51223C21.4696 8.70268 22.1198 8.05757 22.9357 8.05757C23.7516 8.05757 24.4017 8.70268 24.4017 9.51223V13.9774C28.3155 14.0027 32.9941 14.0406 37.5963 14.0786C37.9405 14.0786 38.2975 14.0786 38.6417 14.0912V1.45466C38.6417 0.645109 39.3046 0 40.1077 0C40.8344 0 42.02 0.0126489 43.3076 0.0379473C44.7991 0.0632457 46.4054 0.088544 47.54 0.088544C49.0443 0.088544 50.2809 1.30287 50.2809 2.80812V14.1671C52.2697 14.1798 54.0927 14.1924 55.6352 14.2051L55.648 6.72938C55.648 5.93248 56.3109 5.27472 57.114 5.27472C57.9172 5.27472 58.5801 5.93248 58.5801 6.72938L58.5674 14.2177C59.2813 14.2177 59.8422 14.2304 60.2374 14.2304C60.6198 14.2304 60.9386 14.2557 61.2573 14.3189C62.8763 14.6478 66.2164 15.8115 67.453 19.9731H68.4346C72.0551 19.9731 75 22.8951 75 26.4875V28.8529C75 32.4452 72.0551 35.3672 68.4346 35.3672H67.9119C67.9119 38.4536 67.8992 41.8942 67.8992 45.3601L67.8737 64.4857C67.8864 68.078 64.9415 71 61.321 71ZM6.55406 53.8097C5.24098 53.8097 3.51995 56.6305 2.95902 64.5869C2.89528 65.4723 3.20124 66.3198 3.81316 66.9776C4.47607 67.6859 5.41945 68.0907 6.41382 68.0907H61.321C63.3225 68.0907 64.9543 66.4716 64.9543 64.4857L64.9798 45.3601C64.9798 41.3503 64.9925 37.3784 64.9925 33.9378C64.9925 33.9252 64.9925 33.9252 64.9925 33.9125C64.9925 33.8999 64.9925 33.8872 64.9925 33.8872C64.9925 28.6505 65.0053 24.6407 65.0053 23.5528C65.0053 23.0089 64.967 22.503 64.9033 22.0476C64.8141 21.8578 64.7631 21.6555 64.7631 21.4404C64.7631 21.4025 64.7631 21.3645 64.7631 21.3266C64.1256 18.5185 62.2644 17.5065 60.6708 17.1903C60.5179 17.165 60.3776 17.1523 60.2246 17.1523C59.6 17.1523 58.5291 17.1397 57.114 17.1397C57.1013 17.1397 57.1013 17.1397 57.0885 17.1397C57.0758 17.1397 57.063 17.1397 57.0503 17.1397C54.9341 17.127 52.0657 17.1017 48.8149 17.0764C48.8149 17.0764 48.8021 17.0764 48.7894 17.0764C45.3346 17.0511 41.4463 17.0259 37.5708 16.9879C32.3822 16.95 27.1044 16.912 22.9229 16.8741C22.9229 16.8741 22.9229 16.8741 22.9102 16.8741C20.3605 16.8614 18.2315 16.8361 16.7527 16.8361V29.0173C16.7527 29.8268 16.1025 30.472 15.2867 30.472C14.4708 30.472 13.8206 29.8268 13.8206 29.0173V16.8614C10.2255 17.0764 8.02012 18.4932 6.91101 21.2633C6.26084 22.8824 7.34446 31.193 7.86714 35.1775C8.09661 36.8851 8.24959 38.1627 8.35158 39.0734C10.3403 39.0861 14.1138 39.1114 17.1989 39.0734C17.5814 39.0734 17.9256 38.8584 18.1168 38.5295L20.8067 33.8366C22.4895 30.9147 33.3893 32.1163 33.4913 32.129C36.9334 32.5591 38.5652 33.318 38.9476 34.6968C40.5412 40.3763 40.3372 49.5217 38.5397 52.4816C38.1062 53.2026 37.5453 53.6453 36.8696 53.7844C36.4999 53.8603 35.9518 53.9868 8.45353 53.8224L6.55406 53.8097ZM67.9374 32.4579H68.4601C70.4616 32.4579 72.0934 30.8388 72.0934 28.8529V26.4875C72.0934 24.5015 70.4616 22.8824 68.4601 22.8824H67.9374C67.9502 23.0975 67.9502 23.3125 67.9502 23.5402C67.9502 24.5395 67.9374 27.9295 67.9374 32.4579ZM41.5865 14.1039C43.5753 14.1165 45.513 14.1292 47.3615 14.1545V2.99786C46.2269 2.99786 44.6971 2.97256 43.2821 2.94726C42.6829 2.93461 42.1092 2.93461 41.5865 2.92197V14.1039ZM52.9963 56.0486C48.6236 56.0486 45.0541 52.5195 45.0541 48.1682C45.0541 43.8295 48.6109 40.2877 52.9963 40.2877C57.369 40.2877 60.9386 43.8169 60.9386 48.1682C60.9386 52.5195 57.369 56.0486 52.9963 56.0486ZM52.9963 43.2097C50.2427 43.2097 47.999 45.436 47.999 48.1682C47.999 50.9131 50.2427 53.1393 52.9963 53.1393C55.7627 53.1393 58.0064 50.9131 58.0064 48.1682C58.0064 45.436 55.7627 43.2097 52.9963 43.2097ZM52.9963 33.6343C49.9112 33.6343 47.3998 31.1424 47.3998 28.0813C47.3998 25.0201 49.9112 22.5283 52.9963 22.5283C56.0814 22.5283 58.5929 25.0201 58.5929 28.0813C58.5929 31.1424 56.0814 33.6343 52.9963 33.6343ZM52.9963 25.4249C51.5303 25.4249 50.3319 26.6139 50.3319 28.0686C50.3319 29.5233 51.5303 30.7123 52.9963 30.7123C54.4624 30.7123 55.6607 29.5233 55.6607 28.0686C55.6607 26.6139 54.4624 25.4249 52.9963 25.4249Z" fill="#BEC2A1"/>
</svg>
