<svg width="79" height="71" viewBox="0 0 79 71" fill="none" xmlns="http://www.w3.org/2000/svg">
<path fill-rule="evenodd" clip-rule="evenodd" d="M19.7127 41.1285C20.6063 41.8948 21.476 42.7461 22.3446 43.6538C23.1277 44.4721 23.8969 45.3221 24.6802 46.1894L24.7612 46.2791C25.5136 47.1123 26.2803 47.9612 27.0614 48.7829C30.2689 52.1572 33.9946 55.3851 39.1714 55.8771C40.0334 55.959 40.7985 55.3267 40.8804 54.4648C40.9623 53.6028 40.3301 52.8377 39.4681 52.7558C35.5058 52.3791 32.4682 49.9198 29.334 46.6227C28.581 45.8306 27.8382 45.0082 27.078 44.1663L27.0072 44.088C26.2272 43.2243 25.4289 42.3418 24.6099 41.4859C22.9748 39.7774 21.2045 38.118 19.1897 36.8191L19.1803 36.813C18.408 36.3151 17.3722 35.6473 16.2 35.307C16.0671 35.2684 15.8398 35.2121 15.5712 35.2182C15.3184 35.224 14.7335 35.2977 14.3044 35.8378C13.8834 36.3676 13.9378 36.9395 13.9783 37.162C14.0227 37.4072 14.1122 37.5964 14.1592 37.689C14.2588 37.8852 14.3833 38.0558 14.4406 38.1337C14.467 38.1697 14.4952 38.207 14.5139 38.2317C14.5187 38.238 14.5228 38.2433 14.526 38.2478C14.5318 38.2553 14.5359 38.2609 14.5387 38.2647C16.104 40.6267 17.2434 43.1721 18.3892 45.8543C18.5043 46.1237 18.6196 46.3949 18.7355 46.6674C19.7605 49.078 20.8308 51.5951 22.2273 54.0044C22.6615 54.7535 23.6207 55.0088 24.3698 54.5746C25.1189 54.1404 25.3742 53.1813 24.9401 52.4322C23.6465 50.2004 22.6527 47.8647 21.6167 45.4302C21.5028 45.1622 21.3881 44.893 21.2726 44.6225C20.7798 43.4688 20.2708 42.2975 19.7127 41.1285Z" fill="#BEC2A1"/>
<path fill-rule="evenodd" clip-rule="evenodd" d="M58.3208 41.0904C56.327 42.7524 54.4006 44.8121 52.4359 46.9128C51.7483 47.648 51.0557 48.3883 50.3542 49.1184C48.687 50.8531 46.9683 52.5197 45.2036 53.7545C43.4417 54.9873 41.4923 55.8911 39.3773 55.8911C38.5115 55.8911 37.8096 55.1892 37.8096 54.3234C37.8096 53.4576 38.5115 52.7557 39.3773 52.7557C40.5857 52.7557 41.9034 52.2368 43.406 51.1855C44.9058 50.136 46.4488 48.6569 48.0935 46.9456C48.7142 46.2998 49.3507 45.6181 50.0025 44.92C52.7013 42.0293 55.6605 38.8598 58.8256 36.8191L58.835 36.813C59.6073 36.3151 60.6431 35.6473 61.8153 35.307C61.9483 35.2684 62.1755 35.2121 62.4441 35.2182C62.697 35.224 63.2817 35.2977 63.7109 35.8378C64.1319 36.3676 64.0774 36.9395 64.037 37.162C63.9926 37.4072 63.9032 37.5964 63.8561 37.689C63.7565 37.8852 63.632 38.0558 63.5746 38.1337C63.5482 38.1697 63.5201 38.207 63.5014 38.2317C63.4966 38.238 63.4925 38.2433 63.4893 38.2478C63.4836 38.2553 63.4795 38.2609 63.4766 38.2647C61.9112 40.6267 60.7719 43.1721 59.6261 45.8543C59.5109 46.1237 59.3957 46.3949 59.2798 46.6674C58.2548 49.078 57.1845 51.5951 55.788 54.0044C55.3538 54.7535 54.3946 55.0088 53.6455 54.5746C52.8964 54.1404 52.6411 53.1813 53.0753 52.4322C54.3689 50.2004 55.3627 47.8647 56.3986 45.4302C56.5126 45.1622 56.6272 44.893 56.7427 44.6225C57.2408 43.4564 57.7556 42.272 58.3208 41.0904Z" fill="#BEC2A1"/>
<path fill-rule="evenodd" clip-rule="evenodd" d="M22.3751 51.7936C22.9738 51.8896 23.5854 51.9876 24.2111 52.081C25.0675 52.2087 25.658 53.0066 25.5303 53.8629C25.4024 54.7193 24.6047 55.3099 23.7483 55.1821C23.0201 55.0735 22.3432 54.9663 21.7087 54.8658C18.8305 54.4104 16.8255 54.0932 14.8761 54.3961C13.5615 54.6003 12.2262 55.1073 10.6812 56.2217C11.1524 56.285 11.6107 56.3823 12.0599 56.5091C13.647 56.9572 15.0935 57.7767 16.4433 58.5413C16.6351 58.65 16.825 58.7575 17.0131 58.8629C18.5788 59.7391 20.1958 60.5711 22.2517 61.064C24.2981 61.5548 26.8581 61.7267 30.2795 61.1564C31.0369 61.0302 31.7744 61.4712 32.0216 62.1982C32.8463 64.6243 34.0645 65.947 35.2905 66.6902C36.5447 67.4504 37.9552 67.6927 39.2806 67.6927C40.1465 67.6927 40.8483 68.3946 40.8483 69.2604C40.8483 70.1262 40.1465 70.8282 39.2806 70.8282C37.5986 70.8282 35.5664 70.5239 33.6652 69.3715C32.0092 68.3678 30.5592 66.7846 29.5283 64.4348C26.3281 64.8369 23.7318 64.6434 21.5204 64.1131C19.034 63.5168 17.1128 62.5117 15.4819 61.599C15.2769 61.4843 15.0787 61.3725 14.8862 61.2639C13.4965 60.4801 12.4052 59.8646 11.2081 59.5267C9.94766 59.1709 8.53124 59.1242 6.58176 59.8153C5.90227 60.056 5.14611 59.8025 4.74922 59.2007C4.35233 58.5988 4.41704 57.8039 4.90602 57.2742C8.36574 53.5263 11.2234 51.7906 14.3947 51.2978C16.876 50.9122 19.4761 51.3289 22.3751 51.7936Z" fill="#BEC2A1"/>
<path fill-rule="evenodd" clip-rule="evenodd" d="M55.6393 51.7936C55.0406 51.8896 54.429 51.9876 53.8033 52.081C52.9469 52.2087 52.3563 53.0066 52.4841 53.8629C52.6119 54.7193 53.4097 55.3099 54.2661 55.1821C54.9942 55.0735 55.6712 54.9663 56.3057 54.8658C59.1839 54.4104 61.1888 54.0932 63.1383 54.3961C64.4529 54.6003 65.7882 55.1073 67.3331 56.2217C66.862 56.285 66.4037 56.3823 65.9545 56.5091C64.3672 56.9572 62.9208 57.7767 61.5711 58.5413C61.3793 58.65 61.1892 58.7575 61.0012 58.8629C59.4355 59.7391 57.8186 60.5711 55.7627 61.064C53.7162 61.5548 51.1562 61.7267 47.7349 61.1564C46.9773 61.0302 46.24 61.4712 45.9928 62.1982C45.1679 64.6243 43.9497 65.947 42.7239 66.6902C41.4697 67.4504 40.0591 67.6927 38.7338 67.6927C37.8678 67.6927 37.166 68.3946 37.166 69.2604C37.166 70.1262 37.8678 70.8282 38.7338 70.8282C40.4157 70.8282 42.4479 70.5239 44.3491 69.3715C46.0051 68.3678 47.4552 66.7846 48.4861 64.4348C51.6863 64.8369 54.2826 64.6434 56.4939 64.1131C58.9804 63.5168 60.9016 62.5117 62.5325 61.599C62.7375 61.4843 62.9357 61.3725 63.1282 61.2639C64.5179 60.4801 65.6092 59.8646 66.8062 59.5267C68.0667 59.1709 69.4831 59.1242 71.4326 59.8153C72.112 60.056 72.8682 59.8025 73.2651 59.2007C73.662 58.5988 73.5973 57.8039 73.1083 57.2742C69.6486 53.5263 66.791 51.7906 63.6196 51.2978C61.1384 50.9122 58.5381 51.3289 55.6393 51.7936Z" fill="#BEC2A1"/>
<path fill-rule="evenodd" clip-rule="evenodd" d="M4.08243 34.0494C1.84969 39.6252 3.39678 47.005 10.6999 52.3674C11.3979 52.8798 11.5482 53.8611 11.0358 54.5589C10.5233 55.2569 9.54206 55.4071 8.84421 54.8947C0.518408 48.7815 -1.65038 39.9312 1.17164 32.8838C4.00015 25.8201 11.667 21.0003 22.029 22.572C22.8852 22.7018 23.4738 23.5011 23.344 24.357C23.2141 25.2132 22.4148 25.8018 21.5588 25.672C12.4673 24.293 6.30868 28.4897 4.08243 34.0494Z" fill="#BEC2A1"/>
<path fill-rule="evenodd" clip-rule="evenodd" d="M73.9318 34.0494C76.1645 39.6252 74.6175 47.005 67.3143 52.3674C66.6165 52.8798 66.4661 53.8611 66.9785 54.5589C67.491 55.2569 68.4722 55.4071 69.1701 54.8947C77.4959 48.7815 79.6647 39.9312 76.8426 32.8838C74.0141 25.8201 66.3473 21.0003 55.9853 22.572C55.1291 22.7018 54.5405 23.5011 54.6703 24.357C54.8002 25.2132 55.5993 25.8018 56.4555 25.672C65.547 24.293 71.7056 28.4897 73.9318 34.0494Z" fill="#BEC2A1"/>
<path fill-rule="evenodd" clip-rule="evenodd" d="M37.9857 3.28081C28.8472 3.36305 19.8149 9.79864 17.4348 23.1946C17.2833 24.0471 16.4694 24.6154 15.617 24.464C14.7644 24.3124 14.1962 23.4985 14.3477 22.6461C16.9666 7.90576 27.1702 0.242542 37.9574 0.145465C48.7015 0.0487698 59.5804 7.4612 63.6314 21.8391C63.8662 22.6725 63.381 23.5384 62.5475 23.7733C61.7141 24.0081 60.8482 23.5229 60.6134 22.6894C56.9046 9.52585 47.1676 3.19818 37.9857 3.28081Z" fill="#BEC2A1"/>
<path fill-rule="evenodd" clip-rule="evenodd" d="M36.4421 23.8129C31.1201 24.6673 26.5734 28.7515 25.2919 34.5178C25.104 35.363 24.2666 35.8959 23.4214 35.7082C22.5762 35.5203 22.0433 34.6829 22.231 33.8377C23.7914 26.8166 29.3543 21.7752 35.945 20.7171C42.6157 19.6461 50.0554 22.6771 55.3645 31.1602C55.824 31.8941 55.6013 32.8614 54.8674 33.3209C54.1334 33.7801 53.166 33.5575 52.7068 32.8237C47.961 25.2409 41.6845 22.9712 36.4421 23.8129Z" fill="#BEC2A1"/>
</svg>
