<svg width="207" height="214" viewBox="0 0 207 214" fill="none" xmlns="http://www.w3.org/2000/svg">
<path d="M146.903 163.083C147.024 164.006 147.186 165.237 147.385 166.995C147.585 168.753 147.83 170.38 148.032 171.919C148.234 173.458 148.441 174.557 148.479 175.084L147.725 175.562C147.376 175.295 146.895 174.984 146.196 174.452C145.498 173.919 144.493 173.209 143.182 172.32C141.828 171.343 140.781 170.544 139.907 169.879C139.034 169.213 138.379 168.769 137.898 168.458L137.232 168.892C137.146 168.715 137.06 168.539 136.931 168.275C136.759 167.922 136.541 167.701 136.455 167.524L136.633 167.438C136.896 167.528 137.159 167.618 137.468 167.576C137.777 167.535 138.131 167.362 138.486 167.189C138.84 167.016 139.329 166.669 140.037 166.323L143.764 164.068C144.43 163.635 144.961 163.375 145.361 163.071C145.673 162.81 145.984 162.549 146.207 162.331C146.43 162.113 146.61 161.807 146.658 161.456L146.746 161.413C146.832 161.589 146.961 161.854 147.133 162.207C147.176 162.295 147.262 162.471 147.523 162.78L146.903 163.083ZM139.45 167.592C139.668 167.813 140.28 168.169 141.196 168.923C142.201 169.633 143.074 170.299 143.815 170.92C144.645 171.497 145.387 172.118 146.042 172.562C146.698 173.006 147.133 173.449 147.396 173.539L147.485 173.496C147.28 172.177 147.162 171.034 147.04 170.111C146.919 169.187 146.755 168.176 146.504 166.988C146.297 165.889 146.047 164.701 145.84 163.602L139.45 167.592Z" fill="black"/>
<path d="M138.722 180.497C138.633 180.54 138.325 180.581 137.97 180.754C137.882 180.797 137.704 180.884 137.261 181.1L134.236 172.425L134.059 172.511L129.52 183.894L128.768 184.151L124.762 172.789C125.071 172.748 125.337 172.618 125.514 172.532C125.691 172.445 125.868 172.359 126.223 172.186L129.463 181.302L129.64 181.216L133.728 170.708C133.953 170.271 134.047 169.788 134.273 169.351L134.759 169.223L138.722 180.497Z" fill="black"/>
<path d="M122.999 184.457C122.731 184.807 122.331 185.111 121.799 185.37C121.222 185.761 120.516 185.887 119.632 186.1C119.015 186.183 118.486 186.222 117.914 186.174C117.342 186.126 116.858 186.034 116.42 185.811C115.982 185.588 115.633 185.322 115.373 185.012C115.112 184.703 114.897 184.262 114.859 183.735C114.735 183.031 114.875 182.417 115.323 181.762C115.725 181.238 116.348 180.716 117.277 180.372C116.617 180.367 115.956 180.362 115.429 180.182C114.903 180.002 114.422 179.691 114.03 179.337C113.638 178.982 113.468 178.41 113.342 177.926C113.175 177.134 113.36 176.389 113.763 175.865C114.122 175.253 114.656 174.774 115.454 174.385C116.251 173.996 117.092 173.696 118.15 173.616C118.679 173.576 119.296 173.493 120 173.587C120.704 173.68 121.23 173.86 121.757 174.04C121.711 174.171 121.665 174.302 121.708 174.391C121.751 174.479 121.706 174.61 121.703 174.83C121.701 175.049 121.744 175.137 121.655 175.181L121.478 175.267C121.086 174.913 120.605 174.601 119.99 174.465C119.332 174.24 118.76 174.192 118.185 174.363C117.479 174.489 116.815 174.703 116.327 175.051C115.838 175.398 115.57 175.748 115.344 176.185C115.119 176.622 115.068 177.193 115.149 177.808C115.187 178.336 115.402 178.777 115.706 179.174C116.009 179.572 116.447 179.795 116.842 179.93C117.368 180.109 117.897 180.07 118.515 179.987C118.824 179.945 119.31 179.817 120.105 179.648C120.059 179.779 120.102 179.867 120.1 180.087C120.143 180.175 120.186 180.263 120.272 180.44C119.743 180.479 119.345 180.564 118.905 180.561C117.978 180.685 117.401 181.076 116.998 181.6C116.596 182.123 116.456 182.737 116.623 183.529C116.707 183.925 116.833 184.409 117.094 184.718C117.354 185.028 117.704 185.294 118.099 185.429C118.493 185.564 119.065 185.612 119.594 185.572C120.301 185.446 120.875 185.275 121.364 184.928C121.853 184.58 122.121 184.231 122.215 183.749L122.303 183.705L122.999 184.457Z" fill="black"/>
<path d="M99.9412 174.746C100.073 174.791 100.161 174.748 100.382 174.749C100.602 174.751 100.734 174.796 100.822 174.753C100.954 174.798 101.131 174.711 101.351 174.713C101.571 174.715 101.66 174.672 101.792 174.717C101.918 175.201 102.133 175.642 102.302 176.214C102.472 176.786 102.73 177.315 102.899 177.887C103.069 178.46 103.327 178.989 103.542 179.429L108.078 179.509C108.985 177.32 109.62 175.7 109.94 174.781C110.028 174.737 110.16 174.782 110.291 174.827C110.423 174.872 110.512 174.829 110.643 174.874C110.732 174.831 110.863 174.876 110.952 174.833C111.084 174.877 111.172 174.834 111.261 174.791L105.479 186.998L105.038 186.995L99.9412 174.746ZM105.636 184.847L107.627 180.384L103.752 180.309L105.636 184.847Z" fill="black"/>
<path d="M94.7439 186.124C94.6123 186.079 94.3491 185.989 93.9973 185.942C93.6454 185.895 93.3822 185.806 93.205 185.892L95.1614 176.861L95.0298 176.816L85.2094 184.116L84.4627 183.935L87.1564 172.143C87.4197 172.233 87.6829 172.323 87.9031 172.324C88.0347 172.369 88.3865 172.416 88.7384 172.463L86.6452 181.888L86.7768 181.933C87.4882 181.368 88.554 180.629 89.9312 179.63C91.3085 178.631 92.7313 177.5 94.4199 176.24C96.1086 174.98 96.9972 174.328 97.0858 174.285L97.5693 174.376L94.7439 186.124ZM85.6317 185.657C86.8696 185.271 88.1478 185.194 89.4665 185.423C90.6966 185.697 91.8355 186.233 92.8377 187.163L92.2578 187.773C91.562 187.021 90.5547 186.53 89.3246 186.257C88.0945 185.984 87.0364 186.063 85.9758 186.362L85.6317 185.657Z" fill="black"/>
<path d="M69.9521 178.025C69.9521 178.025 69.8205 177.98 69.7775 177.892C69.6458 177.847 69.6028 177.759 69.4712 177.714C69.3396 177.669 69.3396 177.669 69.2966 177.58C69.2966 177.58 69.165 177.536 69.0334 177.491C68.9018 177.446 68.9018 177.446 68.7702 177.401C68.6386 177.356 68.6386 177.356 68.5069 177.311L73.5697 166.328C73.7013 166.373 73.7443 166.461 73.8759 166.506C74.0075 166.551 74.1391 166.596 74.1821 166.684C74.3137 166.729 74.4453 166.774 74.577 166.819C74.7086 166.864 74.8402 166.909 74.9718 166.954L72.3961 172.467C74.2791 173.404 75.418 173.94 75.7242 174.118C76.0305 174.296 77.215 174.7 79.1865 175.594L81.7622 170.081C81.8938 170.126 81.9368 170.214 82.0684 170.259C82.2 170.304 82.3317 170.349 82.3747 170.437C82.5063 170.482 82.6379 170.527 82.7695 170.572C82.9011 170.617 83.0327 170.662 83.1643 170.707L78.1016 181.69C78.1016 181.69 77.97 181.645 77.927 181.557C77.7954 181.512 77.7524 181.424 77.6208 181.379C77.4892 181.334 77.4892 181.334 77.4461 181.246C77.4461 181.246 77.3145 181.201 77.1829 181.156C77.0513 181.111 77.0513 181.111 76.9197 181.066C76.7881 181.021 76.7881 181.021 76.6565 180.976L78.7814 176.338C78.3435 176.114 77.9057 175.891 77.1616 175.49C76.4605 175.177 75.8911 174.91 75.4533 174.686C75.0154 174.463 74.3574 174.239 73.6563 173.926C72.9552 173.613 72.3858 173.345 71.9909 173.21L69.9521 178.025Z" fill="black"/>
<path d="M69.1826 164.753C68.9598 164.971 68.6939 165.101 68.5167 165.187C68.3395 165.274 68.1193 165.272 67.9447 165.139C67.7701 165.006 67.6841 164.829 67.6411 164.741C67.555 164.565 67.6006 164.433 67.7348 164.259C67.869 164.084 68.0918 163.866 68.5779 163.738L72.2106 161.966L72.3396 162.231L69.1826 164.753Z" fill="black"/>
<path d="M41.8273 153.867L51.2125 146.124C51.2555 146.212 51.2985 146.301 51.4731 146.434C51.6477 146.567 51.6021 146.698 51.7338 146.743C51.7768 146.831 51.9084 146.876 51.9944 147.053C52.0804 147.229 52.212 147.274 52.255 147.362L43.4927 154.583C44.2746 155.512 45.0109 156.571 45.7928 157.5C46.5747 158.428 47.3566 159.356 48.1815 160.373L56.8552 153.195C56.8983 153.283 56.9413 153.371 57.1159 153.504C57.2019 153.681 57.2449 153.769 57.3765 153.814C57.4195 153.902 57.5511 153.947 57.6371 154.123C57.8118 154.256 57.8548 154.345 57.8978 154.433L48.5126 162.176L41.8273 153.867Z" fill="black"/>
<path d="M48.3172 141.315C48.3602 141.403 48.4032 141.491 48.4892 141.668C48.5752 141.844 48.6183 141.932 48.6613 142.02C48.7043 142.109 48.7473 142.197 48.8333 142.373C48.9193 142.549 48.9623 142.638 49.0053 142.726L38.4538 148.528L36.8573 145.704C36.3842 144.735 35.9541 143.853 35.8733 143.237C35.7495 142.534 35.7116 142.007 36.0256 141.526C36.3396 141.045 36.608 140.696 37.3168 140.35C37.7598 140.134 38.2029 139.918 38.6433 139.922C39.0837 139.925 39.5242 139.929 39.919 140.063C40.3138 140.198 40.62 140.376 41.0123 140.731C41.4045 141.085 41.7968 141.44 42.275 141.97C42.4927 142.192 42.6217 142.456 42.7937 142.809C42.8797 142.985 43.0088 143.25 43.1378 143.514C43.2668 143.779 43.3528 143.955 43.3958 144.043L48.3172 141.315ZM42.7756 144.346C42.6466 144.081 42.5176 143.817 42.4316 143.64C42.3455 143.464 42.2165 143.199 41.9129 142.802C41.4372 142.052 40.7817 141.607 40.1667 141.471C39.5086 141.246 38.8024 141.372 38.0936 141.718C37.7391 141.891 37.4277 142.152 37.2479 142.458C37.0682 142.764 36.8884 143.07 36.8402 143.421C36.792 143.772 36.8754 144.168 37.0905 144.608C37.2195 144.873 37.3915 145.226 37.6926 145.843C37.9506 146.372 38.2112 146.681 38.2973 146.858L42.7756 144.346Z" fill="black"/>
<path d="M38.3881 135.574C37.4591 135.918 36.6212 135.999 35.786 135.861C34.9507 135.722 34.204 135.541 33.46 135.14C32.7159 134.739 32.106 134.163 31.5848 133.544C31.0635 132.925 30.6764 132.132 30.4666 131.252C30.1681 130.415 30.0898 129.58 30.0546 128.833C30.0649 127.955 30.1613 127.253 30.4349 126.465C30.7085 125.676 31.1567 125.021 31.7795 124.499C32.3593 123.889 33.2453 123.457 34.2174 123.201C35.1894 122.945 36.0273 122.864 36.9081 122.87C37.832 122.966 38.5786 123.147 39.3227 123.548C40.0668 123.949 40.6767 124.525 41.2409 125.232C41.8052 125.939 42.1923 126.733 42.4451 127.701C42.7866 128.626 42.8649 129.461 42.7659 130.382C42.7556 131.26 42.482 132.049 42.1654 132.749C41.8488 133.449 41.269 134.059 40.6462 134.581C40.069 134.972 39.3602 135.318 38.3881 135.574ZM31.5308 126.912C31.1712 127.524 30.9002 128.093 30.8038 128.795C30.7075 129.497 30.7427 130.244 30.9552 130.904C31.208 131.872 31.8153 132.668 32.4252 133.243C33.0351 133.819 33.9563 134.134 34.9232 134.317C35.8471 134.412 36.9938 134.289 38.143 133.947C39.2923 133.605 40.1353 133.084 40.8037 132.431C41.4721 131.777 41.8773 131.034 42.0193 130.201C42.1612 129.367 42.1716 128.489 41.8731 127.652C41.5746 126.816 41.2736 126.198 40.7067 125.711C40.1399 125.223 39.5274 124.867 38.8693 124.643C38.2113 124.418 37.5076 124.324 36.7584 124.362C36.0977 124.357 35.3915 124.483 34.8169 124.655C34.065 124.912 33.3132 125.17 32.8246 125.517C32.336 125.865 31.8904 126.3 31.5308 126.912Z" fill="black"/>
<path d="M39.1054 119.284C38.3157 119.015 36.9996 118.565 35.3317 118.069C33.6637 117.573 32.0844 117.033 30.5481 116.582C29.0118 116.131 28.0019 115.859 27.4754 115.68L27.3972 114.845C27.7516 114.672 28.2832 114.412 29.0376 113.935C29.8351 113.546 30.8553 112.94 32.3185 112.117C33.7818 111.294 34.9336 110.732 35.9539 110.125C36.8855 109.561 37.6829 109.173 38.1259 108.956L38.0907 108.21C38.3109 108.211 38.5311 108.213 38.84 108.172C39.2374 108.087 39.5462 108.045 39.7664 108.047L39.7638 108.267C39.541 108.484 39.4068 108.659 39.3586 109.01C39.2674 109.273 39.2623 109.712 39.2141 110.063C39.2089 110.502 39.2897 111.117 39.325 111.864L39.7593 116.127C39.8375 116.962 39.9183 117.578 40.0018 117.974C40.0852 118.37 40.1686 118.766 40.2977 119.03C40.4267 119.295 40.6873 119.604 40.9049 119.825L40.9479 119.914C40.7277 119.912 40.5075 119.91 40.0671 119.907C39.9785 119.95 39.7583 119.948 39.3608 120.033L39.1054 119.284ZM38.2825 110.626C38.0166 110.756 37.3964 111.059 36.2876 111.709C35.2243 112.227 34.2927 112.791 33.3181 113.266C32.3434 113.742 31.589 114.219 30.8802 114.565C30.1714 114.91 29.6397 115.17 29.4169 115.388L29.4599 115.476C30.733 115.837 31.8289 116.285 32.7072 116.511C33.6285 116.826 34.6384 117.097 35.7799 117.414C36.9214 117.73 38.0198 117.958 39.1613 118.275L38.2825 110.626Z" fill="black"/>
<path d="M27.7484 96.2283C27.751 96.0087 27.8852 95.8341 27.8878 95.6146C27.8878 95.6146 27.9334 95.4832 27.8904 95.395C27.8474 95.3068 27.893 95.1755 27.893 95.1755C27.85 95.0873 27.9386 95.0441 27.8956 94.9559C28.0702 95.089 28.6826 95.4452 29.5127 96.0226C30.4314 96.5568 31.5677 97.3123 32.9673 98.1577C34.3668 99.003 35.6778 99.8917 36.9027 100.604C38.1276 101.316 38.9147 101.805 39.3955 102.117C39.3043 102.379 39.2587 102.511 39.3447 102.687C39.3422 102.907 39.294 103.258 39.2914 103.477C38.7245 102.99 38.0691 102.545 37.4136 102.101C36.7581 101.657 36.2343 101.257 35.928 101.079C35.3078 101.382 34.5534 101.859 33.4446 102.509C32.4243 103.116 31.1383 103.852 29.675 104.675C28.2118 105.498 27.1485 106.017 26.9257 106.235C27.0195 105.752 27.0247 105.313 27.0703 105.182C27.0273 105.094 27.1159 105.05 27.0729 104.962C27.1185 104.831 27.0755 104.743 27.078 104.523C27.1236 104.392 27.0806 104.304 27.0376 104.215C29.7843 102.876 32.1792 101.489 34.1767 100.187L34.1793 99.9677C34.0476 99.9228 33.7414 99.7447 33.2606 99.4335C32.8227 99.2105 32.1673 98.7662 31.3802 98.2769C30.5931 97.7877 29.849 97.3866 29.2366 97.0305C28.7557 96.7193 28.1863 96.4513 27.7484 96.2283Z" fill="black"/>
<path d="M32.2307 78.6526C33.681 78.9274 34.7795 79.1556 35.3945 79.2922C36.0096 79.4288 36.9764 79.6121 38.2951 79.842C39.6138 80.0719 40.7123 80.3001 41.6362 80.3952C42.603 80.5785 43.4383 80.7168 44.2736 80.8551C44.228 80.9865 44.1824 81.1179 44.1368 81.2493C44.0912 81.3807 44.0456 81.512 44 81.6434C43.9544 81.7748 43.9088 81.9062 43.8632 82.0376C43.8606 82.2572 43.815 82.3885 43.7264 82.4318C42.8912 82.2935 41.7497 81.9771 40.431 81.7471C39.0693 81.429 37.8822 81.2441 37.0039 81.0176C36.037 80.8343 35.3334 80.741 34.7183 80.6044C35.5888 81.4895 36.2417 82.1534 36.8946 82.8173C37.5045 83.3929 38.1573 84.0568 38.6786 84.6757C39.2885 85.2514 39.8984 85.8271 40.3336 86.2697C40.9005 86.7572 41.3357 87.1998 41.9026 87.6873L41.857 87.8187L39.6067 88.1523C38.3714 88.3183 35.8553 88.7816 31.9266 89.4973C32.3215 89.6322 33.0225 89.9451 34.0298 90.4361C35.0371 90.927 35.9584 91.2417 36.7025 91.6428C37.4465 92.0439 38.1046 92.2686 38.7627 92.4934C39.4207 92.7181 39.9472 92.8979 40.385 93.1209C40.3394 93.2523 40.3394 93.2523 40.2052 93.4269C40.1596 93.5583 40.114 93.6897 40.114 93.6897C40.0684 93.8211 40.0684 93.8211 40.0658 94.0406C40.0202 94.172 39.9746 94.3034 39.9746 94.3034C38.5295 93.5894 36.5579 92.6956 33.9739 91.4457C31.3899 90.1957 29.7245 89.48 28.8918 89.1222L29.0286 88.728C30.3525 88.5188 31.5448 88.2647 32.6484 88.0538C33.7521 87.8429 34.8557 87.632 35.9594 87.421C37.0631 87.2101 38.2553 86.956 39.4046 86.6137C39.23 86.4806 38.9263 86.083 38.2734 85.4191C37.6206 84.7552 36.7931 83.9583 35.9226 83.0731C35.052 82.188 34.2245 81.391 33.7033 80.7721C33.182 80.1532 32.5721 79.5775 32.0939 79.0467L32.2307 78.6526Z" fill="black"/>
<path d="M50.6606 69.445C50.615 69.5764 50.5264 69.6196 50.4352 69.8824C50.344 70.1452 50.2554 70.1884 50.1668 70.2316C50.1212 70.363 50.0756 70.4944 49.9414 70.669C49.8072 70.8436 49.7616 70.975 49.716 71.1064C49.2326 71.0148 48.7492 70.9231 48.1341 70.7866C47.5191 70.65 46.947 70.6016 46.375 70.5532C45.8029 70.5047 45.2309 70.4563 44.6589 70.4079L42.4101 74.3427C43.9739 76.1994 45.0595 77.5254 45.7124 78.1893C45.6668 78.3206 45.5782 78.3639 45.5326 78.4953C45.487 78.6266 45.3984 78.6699 45.3528 78.8013C45.2642 78.8445 45.2186 78.9759 45.173 79.1073C45.1274 79.2386 45.0818 79.37 45.0818 79.37L37.0177 68.4595L37.1975 68.1535L50.6606 69.445ZM38.9411 69.7043L41.9345 73.5924L43.8692 70.1382L38.9411 69.7043Z" fill="black"/>
<path d="M48.8316 52.6564C48.8316 52.6564 48.9202 52.6132 48.9658 52.4818C49.0544 52.4386 49.1 52.3072 49.1886 52.2639C49.2772 52.2207 49.3228 52.0893 49.3228 52.0893C49.4114 52.0461 49.3684 51.9579 49.457 51.9147C49.5456 51.8715 49.5912 51.7401 49.6798 51.6969C49.7684 51.6537 49.814 51.5223 49.814 51.5223L59.0154 59.3676C58.9268 59.4108 58.8812 59.5422 58.704 59.6287C58.5698 59.8033 58.4812 59.8465 58.4812 59.8465C58.3926 59.8897 58.347 60.0211 58.2128 60.1957C58.0786 60.3703 57.99 60.4135 58.033 60.5017L53.3665 56.5566C51.9385 58.1263 51.1789 59.0426 50.8675 59.3036C50.6447 59.5214 49.8395 60.5691 48.5431 62.1838L53.2096 66.1289C53.121 66.1722 53.0754 66.3035 52.8982 66.39C52.721 66.4764 52.6754 66.6078 52.5868 66.651C52.4982 66.6942 52.4526 66.8256 52.3184 67.0002C52.1842 67.1749 52.0956 67.2181 52.1386 67.3062L42.9372 59.4609C42.9372 59.4609 43.0258 59.4177 43.0714 59.2863C43.16 59.2431 43.2056 59.1117 43.2942 59.0685C43.3828 59.0253 43.4284 58.8939 43.4284 58.8939C43.517 58.8506 43.474 58.7625 43.5626 58.7193C43.6512 58.676 43.7398 58.6328 43.7854 58.5014C43.831 58.37 43.9196 58.3268 43.9196 58.3268L47.8016 61.5631C48.07 61.2139 48.5156 60.7783 49.0068 60.2112C49.498 59.6442 49.9436 59.2085 50.3006 58.8161C50.6576 58.4237 51.0602 57.8998 51.5514 57.3328C52.0426 56.7657 52.4452 56.2419 52.7136 55.8927L48.8316 52.6564Z" fill="black"/>
<path d="M61.826 41.5154C61.9146 41.4721 61.9146 41.4721 62.0032 41.4289C62.0918 41.3857 62.1804 41.3425 62.269 41.2993C62.3576 41.256 62.4462 41.2128 62.4462 41.2128C62.5348 41.1696 62.5348 41.1696 62.5804 41.0382C62.669 40.995 62.7146 40.8636 62.8032 40.8204C62.8918 40.7772 62.9374 40.6458 62.9374 40.6458L70.3134 50.1456C70.2248 50.1888 70.1362 50.232 70.002 50.4066C69.8248 50.4931 69.7362 50.5363 69.6476 50.5795C69.559 50.6227 69.5134 50.7541 69.3362 50.8405C69.159 50.927 69.1134 51.0584 69.0248 51.1016L65.3381 46.2419C63.738 47.459 62.8038 48.2421 62.4494 48.415C62.138 48.6761 61.1608 49.371 59.5151 50.7195L63.2019 55.5792C63.1133 55.6224 63.0247 55.6656 62.8905 55.8402C62.7132 55.9266 62.6246 55.9699 62.579 56.1012C62.4904 56.1445 62.4448 56.2759 62.2676 56.3623C62.0904 56.4487 62.0448 56.5801 61.9562 56.6233L54.6258 46.9922C54.6258 46.9922 54.7144 46.949 54.803 46.9057C54.8916 46.8625 54.9802 46.8193 55.0688 46.7761C55.1574 46.7329 55.246 46.6896 55.246 46.6896C55.3372 46.4269 55.3372 46.4269 55.4258 46.3836C55.5144 46.3404 55.56 46.209 55.6486 46.1658C55.7372 46.1226 55.7828 45.9912 55.7828 45.9912L58.8623 50.0556C59.1737 49.7946 59.7509 49.4039 60.3281 49.0132C60.9053 48.6225 61.4825 48.2317 61.8825 47.9275C62.2826 47.6232 62.8598 47.2325 63.394 46.7536C63.9282 46.2748 64.5054 45.8841 64.8168 45.623L61.826 41.5154Z" fill="black"/>
<path d="M72.4419 41.4649L73.8595 40.7734C74.9228 40.2548 75.7632 39.9539 76.4695 39.8277C77.1757 39.7015 77.6591 39.7932 78.14 40.1044C78.5778 40.3274 78.9245 40.8132 79.2685 41.5185C79.5696 42.1357 79.6504 42.7512 79.5997 43.3217C79.5489 43.8922 79.3665 44.4177 78.9639 44.9415C78.5613 45.4654 78.0271 45.9442 77.2727 46.4214C77.0499 46.6392 76.341 46.985 75.1462 47.4587C74.8804 47.5883 74.526 47.7612 74.1716 47.9341C73.8171 48.107 73.6399 48.1934 73.7285 48.1502L68.7044 37.1757C68.793 37.1325 68.793 37.1325 68.8816 37.0893C68.9702 37.0461 69.0588 37.0029 69.1474 36.9596C69.236 36.9164 69.3246 36.8732 69.3246 36.8732C69.4132 36.83 69.4132 36.83 69.5018 36.7868C69.5904 36.7435 69.679 36.7003 69.7676 36.6571C69.8562 36.6139 69.9448 36.5707 69.9448 36.5707L72.4419 41.4649ZM74.8907 46.7101L76.4856 45.9321C77.24 45.455 77.7312 44.8879 77.9592 44.231C78.1872 43.5741 78.1519 42.8272 77.8079 42.1219C77.6358 41.7692 77.3752 41.4597 77.1576 41.2384C76.94 41.0172 76.5451 40.8823 76.1933 40.8356C75.8415 40.789 75.4441 40.8737 75.0466 40.9584C74.8694 41.0448 74.515 41.2177 74.029 41.3456C73.8518 41.4321 73.586 41.5617 73.3202 41.6914C73.0543 41.821 72.7885 41.9507 72.6999 41.9939L74.8907 46.7101ZM77.2963 33.203C77.5622 33.0733 77.7824 33.0751 78.0482 32.9454C78.314 32.8157 78.5798 32.6861 78.757 32.5996L83.7381 43.4859C83.6495 43.5291 83.5609 43.5724 83.3837 43.6588C83.2065 43.7452 83.1179 43.7885 83.0293 43.8317C82.9407 43.8749 82.8521 43.9181 82.6749 44.0045C82.4977 44.091 82.4091 44.1342 82.3205 44.1774L77.2963 33.203Z" fill="black"/>
<path d="M84.949 30.4542C85.1692 30.4559 85.3895 30.4577 85.7439 30.2848C86.0957 30.3315 86.3615 30.2018 86.5387 30.1154L88.5031 39.0896L88.6803 39.0031L94.5757 28.378L95.3706 28.2085L97.962 40.0422C97.6532 40.0837 97.3444 40.1252 97.1672 40.2116C96.99 40.298 96.7697 40.2963 96.4153 40.4692L94.3675 31.0991L94.1903 31.1855C93.6965 31.9721 93.1545 33.1097 92.3441 34.5964C91.5338 36.0832 90.6778 37.7014 89.6876 39.4941C88.6975 41.2869 88.2011 42.293 88.1125 42.3363L87.6265 42.4642L84.949 30.4542ZM93.5332 27.1401C92.5534 28.0547 91.4015 28.6165 90.1207 28.9139C88.8398 29.2112 87.6071 29.1576 86.291 28.7081L86.6532 27.8766C87.6175 28.2794 88.7186 28.288 89.9108 28.0339C91.1031 27.7798 92.0777 27.3044 92.8803 26.4763L93.5332 27.1401Z" fill="black"/>
<path d="M111.062 38.5652C111.556 37.7786 112.23 36.686 113.129 35.156C114.028 33.626 114.881 32.2274 115.734 30.8288C116.499 29.4735 117.039 28.5555 117.353 28.0749L118.188 28.2132C118.271 28.6091 118.441 29.1813 118.651 30.0613C118.86 30.9412 119.199 32.0857 119.622 33.626C120.044 35.1664 120.38 36.5304 120.676 37.5867C120.972 38.643 121.139 39.4348 121.308 40.0071L122.012 40.1004C121.966 40.2318 121.875 40.4946 121.916 40.8023C121.867 41.1533 121.819 41.5042 121.817 41.7238L121.685 41.6788C121.556 41.4143 121.338 41.193 121.075 41.1031C120.812 41.0132 120.506 40.8351 120.022 40.7435C119.539 40.6519 119.055 40.5603 118.263 40.5101L113.953 39.9932C113.117 39.8549 112.545 39.8065 112.105 39.803C111.664 39.7996 111.313 39.7529 110.915 39.8376C110.606 39.8791 110.252 40.052 110.029 40.2698L109.898 40.2248C109.943 40.0934 109.991 39.7425 110.04 39.3916C109.997 39.3034 110.088 39.0406 110.136 38.6897L111.062 38.5652ZM119.726 39.6872C119.686 39.3795 119.474 38.7191 119.223 37.5314C118.884 36.3869 118.677 35.2874 118.424 34.3193C118.171 33.3512 117.961 32.4712 117.795 31.6794C117.628 30.8876 117.458 30.3154 117.329 30.0509L117.241 30.0941C116.567 31.1867 115.939 32.1479 115.488 33.0227C114.995 33.8093 114.455 34.7273 113.87 35.7767C113.285 36.826 112.789 37.8322 112.292 38.8383L119.726 39.6872Z" fill="black"/>
<path d="M125.545 35.427C125.864 34.5073 126.27 33.7639 126.849 33.1536C127.429 32.5434 128.052 32.0213 128.892 31.7205C129.601 31.3747 130.396 31.2053 131.277 31.2122C132.158 31.2191 132.993 31.3574 133.871 31.5839C134.661 31.8536 135.405 32.2547 136.104 32.7872C136.802 33.3196 137.28 33.8504 137.713 34.5125C138.146 35.1747 138.401 35.9232 138.522 36.8464C138.601 37.6814 138.502 38.6029 138.094 39.5658C137.775 40.4855 137.281 41.2721 136.701 41.8824C136.121 42.4927 135.41 43.058 134.701 43.4037C133.904 43.7927 133.109 43.9621 132.228 43.9552C131.347 43.9483 130.423 43.8532 129.502 43.5385C128.581 43.2239 127.837 42.8228 127.138 42.2903C126.44 41.7579 126.007 41.0957 125.574 40.4336C125.23 39.7283 125.063 38.9365 124.985 38.1015C125.084 37.18 125.226 36.3467 125.545 35.427ZM136.693 35.1193C136.48 34.4589 136.091 33.885 135.612 33.3542C135.134 32.8235 134.522 32.4673 133.864 32.2426C132.942 31.9279 132.018 31.8329 131.135 32.0455C130.252 32.2581 129.497 32.7353 128.829 33.3888C128.203 34.1304 127.664 35.0484 127.211 36.1427C126.846 37.1938 126.701 38.2467 126.822 39.1699C126.944 40.093 127.331 40.8866 127.852 41.5055C128.373 42.1244 129.16 42.6136 129.95 42.8833C130.74 43.153 131.532 43.2032 132.238 43.077C132.944 42.9508 133.565 42.6482 134.142 42.2575C134.719 41.8668 135.21 41.2998 135.613 40.776C136.016 40.2521 136.375 39.6401 136.515 39.0264C136.788 38.2381 136.973 37.493 137.024 36.9225C136.986 36.3952 136.905 35.7797 136.693 35.1193Z" fill="black"/>
<path d="M164.082 50.7924C163.143 52.0147 162.604 52.9327 162.201 53.4565C161.798 53.9803 161.305 54.7669 160.542 55.9028C159.78 57.0386 159.109 57.9116 158.615 58.6982C158.122 59.4848 157.585 60.1832 157.18 60.9266C157.137 60.8385 156.962 60.7053 156.919 60.6172C156.744 60.4841 156.701 60.3959 156.658 60.3077C156.615 60.2195 156.484 60.1746 156.309 60.0415C156.135 59.9084 156.003 59.8634 155.96 59.7752C156.497 59.0768 157.125 58.1156 158.018 57.0247C158.869 55.8457 159.54 54.9727 160.034 54.1861C160.528 53.3995 161.019 52.8324 161.333 52.3518C160.227 52.7823 159.298 53.1263 158.457 53.4271C157.617 53.7279 156.865 53.9855 156.068 54.3745C155.27 54.7634 154.518 55.021 153.855 55.2354C153.235 55.5379 152.572 55.7523 151.951 56.0548L151.777 55.9217L152.375 53.7746C152.696 52.6353 153.343 50.1372 154.27 46.1921C153.959 46.4531 153.424 46.932 152.622 47.7601C151.819 48.5882 151.019 49.1967 150.396 49.7188C149.774 50.2409 149.282 50.8079 148.837 51.2436C148.391 51.6792 147.946 52.1149 147.589 52.5073C147.546 52.4192 147.414 52.3742 147.371 52.286C147.328 52.1979 147.196 52.1529 147.153 52.0648C147.11 51.9766 146.979 51.9316 146.936 51.8435C146.804 51.7985 146.761 51.7104 146.718 51.6222C147.964 50.578 149.698 49.1863 151.835 47.2708C154.015 45.4435 155.394 44.2247 155.974 43.6144L156.323 43.8807C155.956 45.1513 155.723 46.2474 155.401 47.3867C155.079 48.5259 154.846 49.622 154.613 50.7181C154.38 51.8141 154.19 52.9983 153.868 54.1376C154.045 54.0512 154.62 53.88 155.46 53.5792C156.301 53.2784 157.407 52.8479 158.602 52.3743C159.797 51.9006 160.814 51.5133 161.566 51.2557C162.318 50.9982 163.07 50.7406 163.822 50.483L164.082 50.7924Z" fill="black"/>
<path d="M165.466 60.5968L167.159 62.7181C167.245 62.8944 167.462 63.1157 167.723 63.4252C167.983 63.7346 168.158 63.8677 168.201 63.9559L168.112 63.9991C168.024 64.0424 168.024 64.0424 167.935 64.0856C167.847 64.1288 167.847 64.1288 167.847 64.1288L167.758 64.172C167.758 64.172 167.669 64.2152 167.624 64.3466C167.535 64.3898 167.535 64.3898 167.49 64.5212C167.404 64.3449 167.229 64.2118 167.057 63.8591C166.928 63.5946 166.71 63.3733 166.624 63.197L164.931 61.0757L160.886 64.2498C161.275 64.8237 162.014 65.6639 162.882 66.7686C163.186 67.1663 163.621 67.6089 164.013 67.9633C164.013 67.9633 163.925 68.0065 163.836 68.0497C163.748 68.0929 163.748 68.0929 163.659 68.1361C163.57 68.1794 163.57 68.1794 163.482 68.2226C163.393 68.2658 163.305 68.309 163.259 68.4404C163.17 68.4836 163.125 68.615 163.036 68.6582L159.132 63.5773L168.689 56.1867L172.55 61.1795C172.462 61.2227 172.373 61.2659 172.285 61.3091C172.196 61.3524 172.107 61.3956 172.019 61.4388C171.93 61.482 171.842 61.5252 171.796 61.6566C171.75 61.788 171.662 61.8312 171.662 61.8312C171.49 61.4786 171.232 60.9495 170.885 60.4637L169.845 59.0064L168.977 57.9017L165.466 60.5968Z" fill="black"/>
<path d="M164.811 71.1752C164.768 71.087 164.725 70.9989 164.682 70.9107C164.639 70.8225 164.553 70.6462 164.553 70.6462C164.51 70.558 164.467 70.4699 164.424 70.3817C164.381 70.2935 164.295 70.1172 164.295 70.1172C164.604 70.0757 165.353 70.0377 166.543 70.0031C167.821 69.9253 169.099 69.8475 170.686 69.7282C172.185 69.6522 173.552 69.5312 174.876 69.322C176.154 69.2442 177.08 69.1197 177.478 69.035L177.822 69.7404C177.285 70.4388 176.437 71.3983 175.186 72.8816C173.935 74.3649 172.862 75.7618 171.699 77.2018C170.537 78.6419 169.778 79.5582 169.552 79.9956C169.509 79.9074 169.466 79.8192 169.38 79.6429C169.294 79.4666 169.251 79.3784 169.208 79.2902C169.165 79.202 169.122 79.1139 169.036 78.9375C168.95 78.7612 168.907 78.673 168.821 78.4967C168.955 78.3221 169.312 77.9297 169.849 77.2312C170.386 76.5328 171.145 75.6165 172.128 74.4824C173.11 73.3484 173.87 72.4321 174.495 71.6904C175.121 70.9488 175.523 70.425 175.792 70.0757L175.706 69.8994C171.165 70.259 167.547 70.7136 164.811 71.1752Z" fill="black"/>
<path d="M176.03 79.7841C177.002 79.5282 177.84 79.447 178.632 79.4971C179.468 79.6354 180.214 79.817 180.958 80.218C181.702 80.6191 182.312 81.1948 182.745 81.857C183.266 82.4759 183.653 83.2694 183.863 84.1493C184.162 84.9861 184.24 85.8211 184.187 86.6112C184.176 87.4894 183.991 88.2345 183.718 89.0228C183.444 89.8112 182.996 90.4664 182.284 91.0317C181.662 91.5538 180.819 92.0741 179.847 92.33C178.874 92.5859 178.037 92.6671 177.156 92.6602C176.232 92.5651 175.485 92.3836 174.787 91.8511C174.043 91.45 173.433 90.8743 172.869 90.1673C172.304 89.4602 171.917 88.6667 171.664 87.6985C171.411 86.7304 171.333 85.8954 171.344 85.0171C171.354 84.1389 171.628 83.3506 171.944 82.6504C172.349 81.907 172.84 81.34 173.463 80.8179C174.392 80.4739 175.147 79.9967 176.03 79.7841ZM182.842 88.5768C183.245 88.053 183.473 87.396 183.657 86.6509C183.754 85.949 183.719 85.2022 183.506 84.5418C183.253 83.5737 182.735 82.7352 182.036 82.2027C181.338 81.6702 180.505 81.3124 179.538 81.1291C178.571 80.9459 177.556 81.1135 176.407 81.4558C175.258 81.7981 174.415 82.3185 173.703 82.8838C173.035 83.5373 172.63 84.2807 172.356 85.069C172.214 85.9023 172.204 86.7805 172.459 87.5291C172.715 88.2777 173.059 88.983 173.626 89.4706C174.192 89.9581 174.805 90.3142 175.463 90.539C176.121 90.7637 176.825 90.8571 177.574 90.819C178.235 90.8242 178.941 90.698 179.515 90.5269C180.267 90.2693 181.019 90.0117 181.508 89.6642C181.948 89.6677 182.482 89.1888 182.842 88.5768Z" fill="black"/>
<path d="M187.015 104.33C187.015 104.33 186.97 104.462 187.013 104.55C187.056 104.638 187.01 104.769 187.053 104.858C187.096 104.946 187.05 105.077 187.05 105.077C187.05 105.077 187.093 105.165 187.048 105.297C187.091 105.385 187.045 105.516 187.088 105.604C187.131 105.693 187.086 105.824 187.086 105.824L175.006 106.695C174.963 106.607 175.009 106.476 175.012 106.256C175.014 106.037 174.971 105.948 175.06 105.905C175.017 105.817 175.062 105.686 174.976 105.509C174.979 105.29 174.936 105.202 174.893 105.113L181.021 104.635C180.156 103.31 179.645 101.813 179.574 100.319C179.494 99.704 179.544 99.1335 179.772 98.4766C179.912 97.8629 180.183 97.2941 180.628 96.8584C181.074 96.4228 181.517 96.2067 182.135 96.1237L186.455 95.7624C186.455 95.7624 186.41 95.8938 186.453 95.9819C186.496 96.0701 186.45 96.2015 186.493 96.2897C186.536 96.3778 186.491 96.5092 186.491 96.5092C186.534 96.5974 186.534 96.5974 186.488 96.7288C186.442 96.8602 186.486 96.9483 186.529 97.0365C186.572 97.1247 186.526 97.2561 186.526 97.2561L182.205 97.6174C181.765 97.6139 181.41 97.7868 181.142 98.136C180.873 98.4852 180.737 98.8794 180.643 99.3617C180.549 99.8441 180.544 100.283 180.582 100.81C180.663 101.426 180.743 102.041 181.087 102.747C181.343 103.495 181.69 103.981 181.993 104.379L187.015 104.33Z" fill="black"/>
<path d="M181.45 113.157L181.153 115.922C181.15 116.141 181.059 116.404 181.143 116.8C181.226 117.196 181.092 117.37 181.135 117.458C181.135 117.458 181.046 117.502 181.003 117.413L180.872 117.369L180.74 117.324C180.74 117.324 180.651 117.367 180.608 117.279C180.52 117.322 180.477 117.234 180.388 117.277C180.3 117.32 180.3 117.32 180.168 117.275C180.214 117.144 180.173 116.836 180.264 116.573C180.355 116.31 180.404 115.96 180.406 115.74L180.703 112.976L175.512 112.452C175.415 113.154 175.402 114.251 175.298 115.612C175.248 116.183 175.285 116.71 175.323 117.237L175.192 117.192C175.103 117.235 175.06 117.147 174.971 117.19C174.883 117.234 174.84 117.145 174.84 117.145C174.751 117.189 174.708 117.101 174.62 117.144C174.531 117.187 174.399 117.142 174.311 117.185L174.958 110.866L186.925 112.014L186.235 118.245C186.146 118.288 186.103 118.2 185.972 118.155C185.84 118.11 185.752 118.153 185.709 118.065C185.62 118.108 185.577 118.02 185.4 118.107C185.311 118.15 185.179 118.105 185.179 118.105C185.316 117.711 185.367 117.14 185.506 116.527L185.747 114.772L185.851 113.411L181.45 113.157Z" fill="black"/>
<path d="M185.377 123.904C185.332 124.035 185.24 124.298 185.061 124.604C185.012 124.955 184.921 125.218 184.876 125.349L175.964 122.82L175.918 122.951L182.58 133.236L182.395 133.981L170.806 130.684C170.897 130.422 170.988 130.159 171.079 129.896C171.125 129.765 171.216 129.502 171.264 129.151L180.571 131.815L180.617 131.684C180.141 130.933 179.405 129.874 178.496 128.461C177.588 127.049 176.505 125.503 175.425 123.738C174.256 122.016 173.694 121.09 173.651 121.001L173.833 120.476L185.377 123.904ZM184.213 132.985C183.92 131.71 183.847 130.435 184.214 129.165C184.581 127.894 185.166 126.845 186.146 125.93L186.667 126.549C185.91 127.246 185.282 128.207 184.961 129.346C184.639 130.486 184.626 131.583 184.922 132.64L184.213 132.985Z" fill="black"/>
<path d="M167.889 153.718C169.015 153.169 169.484 151.816 168.938 150.696C168.392 149.576 167.036 149.113 165.911 149.662C164.785 150.211 164.316 151.564 164.862 152.684C165.409 153.804 166.764 154.267 167.889 153.718Z" fill="black"/>
</svg>
