<svg width="238" height="261" viewBox="0 0 238 261" fill="none" xmlns="http://www.w3.org/2000/svg">
<path d="M227.247 39.5395L228.253 40.6235C232.595 44.7963 235.641 50.1339 237.024 55.9943C237.268 57.3092 237.412 58.6408 237.454 59.9775L237.627 60.1644C237.68 60.6928 237.66 61.226 237.569 61.7489C237.277 66.6791 235.853 71.4747 233.408 75.7639C230.991 80.0831 227.94 84.0153 224.358 87.4297C219.678 91.8394 214.488 95.6742 208.897 98.8525C203.289 101.987 197.49 104.766 191.533 107.174C186.881 109.125 182.159 111.002 177.406 112.769C170.089 115.593 162.882 118.385 156.309 121.562C150.432 124.17 144.801 127.3 139.483 130.913C133.737 134.97 128.356 139.52 123.401 144.512C120.93 146.916 118.77 149.621 116.973 152.563C115.228 155.466 114.113 158.704 113.701 162.068L113.655 163.292L113.589 164.119L113.661 165.095L113.586 166.138C113.735 166.655 113.788 167.195 113.744 167.731L113.757 168.345L114.064 169.799C114.25 170.538 114.501 171.26 114.813 171.955L114.869 172.39L115.077 172.614L115.424 172.988C115.881 173.806 116.26 174.666 116.555 175.555C116.736 176.045 116.948 176.522 117.188 176.986C117.959 178.566 118.692 180.18 119.535 181.763C119.62 181.822 119.691 181.898 119.743 181.987C120.349 183.164 121.027 184.344 121.704 185.523L123.598 188.913C123.885 189.308 124.135 189.728 124.345 190.168L124.9 190.766C125.476 191.761 126.125 192.759 126.738 193.72C144.631 221.07 171.105 241.7 201.993 252.363C207.961 254.355 214.06 255.924 220.247 257.058L220.93 257.12C221.535 257.195 222.133 257.314 222.72 257.476C223.277 257.595 223.791 257.864 224.206 258.254C224.553 258.628 224.534 259.132 224.113 259.801C224.04 259.991 223.925 260.162 223.776 260.3C223.627 260.438 223.449 260.54 223.254 260.598C222.857 260.661 222.451 260.634 222.067 260.517L217.124 259.608C204.76 256.942 192.805 252.644 181.571 246.828C162.985 237.522 146.514 224.486 133.186 208.534C133.065 208.44 132.959 208.326 132.874 208.198L130.804 206.641C129.632 205.827 128.434 205.06 127.211 204.341C124.6 202.775 121.908 201.349 119.147 200.068C113.287 197.373 107.164 195.292 100.877 193.858C95.0249 192.482 89.0476 191.711 83.0392 191.559C77.0617 191.464 71.1066 192.296 65.3859 194.027C59.8337 196.073 54.5417 198.766 49.6188 202.048C47.034 203.681 44.452 205.242 41.7659 206.691C39.0778 208.164 36.2418 209.35 33.3048 210.229C28.0549 211.869 22.4413 211.957 17.1398 210.481C14.4256 209.641 11.9102 208.257 9.74655 206.414C7.58292 204.572 5.81629 202.308 4.5541 199.762C4.25738 199.238 3.98846 198.698 3.74844 198.145C3.45572 197.674 3.25476 197.153 3.15619 196.608L2.94811 196.384C1.61088 192.44 0.816487 188.334 0.586791 184.177L0.450696 182.982C0.253041 177.601 0.234104 172.263 0.540605 166.901L0.625808 163.623C0.825609 158.221 0.953383 152.816 1.04648 147.374C1.19281 139.518 1.37649 131.627 1.70421 123.742C1.76629 120.951 1.9897 118.166 2.37334 115.401C2.6994 112.62 3.46928 109.909 4.65365 107.373C5.04011 106.526 5.49226 105.712 6.00595 104.936L6.95552 103.637L7.21692 103.395C9.77781 100.34 13.2033 98.1316 17.0436 97.0598C22.728 95.4724 28.7546 95.5881 34.377 97.3924C40.1286 98.9849 45.6931 101.191 50.9744 103.972C72.7474 115.431 91.3959 132.034 105.298 152.337C104.463 148.891 103.764 145.366 103.2 141.763C102.343 137.428 101.842 133.031 101.703 128.615C101.618 127.63 101.582 126.642 101.596 125.654C100.716 102.251 105.28 78.9685 114.931 57.64C120.11 46.0304 126.792 35.1533 134.807 25.2879C139.095 19.9889 143.8 15.0421 148.877 10.4946C151.171 8.44699 153.615 6.57471 156.189 4.89357C158.796 3.22316 161.655 1.98017 164.655 1.21158C169.865 0.0536411 175.32 0.824234 180.009 3.38052C184.762 5.94316 189.23 9.0017 193.339 12.505C194.345 13.5889 195.617 14.2863 196.706 15.0849C199.333 17.168 202.001 19.1444 204.666 21.1928L205.896 22.0689C206.381 22.5922 207.053 22.9422 207.579 23.3589C209.369 24.6889 211.159 26.019 212.839 27.381C213.429 28.0164 214.352 28.412 215.088 28.9809C219.367 32.2318 223.428 35.7588 227.247 39.5395ZM10.6361 203.022C12.375 204.846 14.4802 206.282 16.8131 207.235C19.146 208.187 21.6538 208.635 24.1712 208.548C29.3174 208.256 34.3439 206.887 38.9249 204.527C42.4514 202.795 45.8709 200.854 49.1651 198.713L52.6328 196.608C57.9908 193.287 63.8866 190.924 70.0565 189.624C75.9647 188.551 81.9901 188.271 87.9739 188.788C94.0926 189.263 100.152 190.326 106.068 191.963C112.046 193.61 117.846 195.847 123.383 198.642C124.906 199.385 126.392 200.162 127.803 201.009L127.005 200.15L125.93 198.991C125.587 198.66 125.263 198.311 124.959 197.944L124.404 197.346C123.468 196.337 122.27 195.57 121.187 194.628C116.962 191.354 112.337 188.633 107.422 186.533C98.9468 182.91 89.7483 181.302 80.55 181.835C70.5311 182.493 60.8043 185.47 52.1363 190.531L51.5762 191.051C47.7084 193.248 43.774 195.299 39.7755 197.131C35.7338 198.944 31.4823 200.249 27.1184 201.014C22.7559 201.661 18.3222 201.675 13.9544 201.056C11.8968 200.717 9.86604 200.23 7.87779 199.6C8.63448 200.864 9.52143 202.046 10.5241 203.126L10.6361 203.022ZM3.87051 185.095L4.04391 185.282C4.38362 188.719 5.18039 192.097 6.41313 195.325C15.4121 198.319 25.1416 198.283 34.1123 195.221C38.9265 193.394 43.5803 191.17 48.0256 188.572C51.5542 186.552 55.1849 184.715 58.9034 183.07C68.8919 178.773 79.8221 177.126 90.6382 178.288C101.454 179.449 111.79 183.381 120.648 189.703C114.625 183.95 107.963 178.906 100.793 174.669C93.5384 170.678 85.4311 168.49 77.1563 168.291C72.7124 168.187 68.2761 168.698 63.9736 169.811C59.7037 170.858 55.5098 172.193 51.4206 173.807L43.9545 176.769C37.5609 179.52 30.9939 181.849 24.2954 183.741C17.6215 185.62 10.6333 186.116 3.75848 185.199L3.87051 185.095ZM49.8354 158.168C46.333 159.261 42.756 160.424 39.2109 161.696C33.5402 163.947 27.6975 165.739 21.7391 167.056C15.8261 168.376 9.67847 168.23 3.83227 166.629L3.72034 168.68C3.51516 173.253 3.52872 177.761 3.68632 182.275C8.41311 183.003 13.2265 182.954 17.936 182.13C22.6535 181.307 27.2862 180.059 31.7775 178.399C35.3945 177.13 39.0169 175.717 42.6419 174.231C48.4753 171.737 54.4426 169.567 60.5165 167.733C66.619 165.92 72.9919 165.185 79.3488 165.562C86.0166 166.229 92.5018 168.139 98.4696 171.191C104.436 174.272 110.042 178.004 115.187 182.319C113.696 180.712 112.016 179.35 110.41 177.919C106.415 174.262 102.192 170.862 97.7679 167.738C90.709 162.609 82.708 158.923 74.2241 156.892C66.0688 155.292 57.6438 155.766 49.7233 158.271L49.8354 158.168ZM47.6019 142.504C43.4433 142.815 39.242 143.305 35.0008 143.901C29.9219 144.718 24.7817 145.245 19.6495 145.555C14.5279 145.883 9.38495 145.506 4.3647 144.435L3.72543 163.668C8.11923 165.016 12.7397 165.461 17.3083 164.976C21.8206 164.46 26.2608 163.443 30.5469 161.944C33.2117 161.071 35.8418 160.161 38.5119 159.145C43.9177 156.966 49.4936 155.236 55.1835 153.971C62.9423 152.383 70.971 152.687 78.5907 154.858C85.2738 156.819 91.6115 159.809 97.3756 163.721C103.092 167.566 108.504 171.847 113.563 176.524L112.797 174.8C106.713 168.4 100.171 162.451 93.2247 157C86.537 151.779 79.0371 147.693 71.0253 144.906C63.4108 142.577 55.4083 141.795 47.4899 142.608L47.6019 142.504ZM4.99849 122.424L4.88389 124.548L4.50855 140.545L4.44457 141.3C8.65103 142.257 12.9578 142.699 17.2699 142.616C21.5929 142.54 25.9063 142.185 30.1832 141.555C31.9188 141.428 33.658 141.206 35.4007 140.887C41.4679 139.883 47.5988 139.308 53.7477 139.166C61.0141 139.255 68.2011 140.702 74.9384 143.432C81.6282 146.032 87.9196 149.56 93.6273 153.914C99.356 158.229 104.785 162.929 109.876 167.981L109.668 167.757L109.46 167.533C104.735 161.467 99.3797 155.921 93.4831 150.987C81.2322 140.68 66.8738 133.18 51.4184 129.017C43.1389 126.865 34.6405 125.672 26.0905 125.46L25.5143 125.438C21.9105 125.373 18.3121 125.165 14.8256 124.852C11.44 124.431 8.10829 123.652 4.88646 122.528L4.99849 122.424ZM9.04159 105.736L8.7055 106.048C6.36155 110.071 5.08801 114.629 5.00634 119.287C8.13619 120.278 11.3657 120.921 14.6361 121.203C17.9064 121.507 21.1794 121.739 24.4578 121.828L28.5631 121.983C49.4623 122.997 69.6854 129.739 87.0194 141.474C77.3573 132.379 66.3478 124.833 54.3815 119.103C47.1803 115.889 39.7436 113.232 32.137 111.156C24.4189 109.228 16.6831 107.456 8.92956 105.84L9.04159 105.736ZM102.113 152.649C88.9974 133.777 71.6364 118.247 51.4281 107.307C47.0582 104.856 42.5373 102.686 37.8929 100.807C33.2677 98.9277 28.3005 98.0391 23.3123 98.199C18.8359 98.4052 14.5738 100.17 11.2635 103.188C18.8997 104.727 26.4648 106.565 33.9587 108.7C48.3564 112.701 61.9716 119.12 74.2227 127.681C84.3317 135.046 93.6418 143.449 102.001 152.753L102.113 152.649ZM119.648 144.586C123.055 140.904 126.738 137.487 130.664 134.365C135.547 130.115 140.844 126.365 146.477 123.172C152.142 120.076 157.988 117.323 163.983 114.929L175.728 110.361C183.514 107.519 191.092 104.452 198.652 100.916C204.278 98.2845 209.666 95.1706 214.755 91.6095C219.838 88.0815 224.321 83.7583 228.03 78.8057C231.039 74.7478 233.109 70.0718 234.09 65.1152L231.775 67.2633C229.049 69.7925 225.907 71.8732 222.837 73.9566C216.931 78.0385 210.721 81.661 204.261 84.7924C195.572 88.695 186.669 92.102 177.594 94.9969C170.805 97.2158 164.175 99.6572 157.706 102.321C151.127 104.924 144.813 108.151 138.85 111.956C133.644 115.257 128.871 119.195 124.641 123.679C120.41 128.16 117.071 133.406 114.801 139.137C112.528 144.786 111.528 150.868 111.87 156.949C113.582 152.335 116.23 148.126 119.648 144.586ZM202.697 82.2088C214.275 76.6295 224.978 69.394 234.469 60.7298C234.426 57.6676 233.752 54.6465 232.489 51.8554C231.237 49.1485 229.606 46.6337 227.645 44.387C227.516 44.2065 227.364 44.0432 227.194 43.9011L226.986 43.6768C222.604 48.9011 217.586 53.5567 212.048 57.5356C206.408 61.6003 200.437 65.1858 194.198 68.2547C187.375 71.3859 180.378 74.3303 173.416 77.3119C165.46 80.5204 157.674 84.0118 150.058 87.7861C142.423 91.584 135.323 96.371 128.94 102.024C124.516 105.913 120.66 110.404 117.483 115.365C114.293 120.358 111.969 125.854 110.607 131.621C109.586 136.479 109.269 141.458 109.664 146.408C110.239 143.338 111.135 140.338 112.339 137.457C115.241 130.191 119.719 123.66 125.451 118.336C131.215 113.066 137.678 108.615 144.657 105.108C151.605 101.571 158.778 98.494 166.13 95.8966L175.738 92.5464C184.819 89.4527 193.748 85.9446 202.524 82.0219L202.697 82.2088ZM161.108 79.55L172.21 74.8139C182.07 70.9487 191.678 66.4712 200.979 61.4074C210.215 56.4288 218.381 49.6802 225.009 41.5463C220.19 37.0041 215.027 32.8416 209.566 29.0961C208.094 27.9584 206.619 26.8927 205.109 25.7896C202.011 31.71 197.922 37.0557 193.02 41.5956C188.111 46.1459 182.741 50.1724 176.997 53.6101C171.137 57.0303 165.138 60.301 158.966 63.3847C150.963 67.2997 143.202 71.69 135.725 76.532C128.255 81.387 121.763 87.5993 116.584 94.8475C109.685 104.708 105.796 116.362 105.39 128.394C105.28 130.932 105.319 133.474 105.505 136.008L106.18 141.154L106.479 142.825C106.486 137.997 107.149 133.194 108.449 128.546C110.686 120.559 114.694 113.18 120.175 106.956C125.618 100.75 131.954 95.3878 138.974 91.0443C145.982 86.5893 153.324 82.6839 160.935 79.3631L161.108 79.55ZM141.515 69.1423C146.453 66.3002 151.603 63.5383 156.896 60.8539C162.921 57.8367 168.846 54.6354 174.666 51.3219C180.384 47.9945 185.729 44.0623 190.606 39.5928C195.473 35.0597 199.525 29.7242 202.585 23.8187C199.779 21.6927 196.938 19.5294 194.025 17.3634L192.656 16.3378C191.928 15.5529 190.976 14.9758 190.098 14.3295C187.403 12.1457 184.589 10.1127 181.669 8.23981C178.998 14.1717 175.542 19.7172 171.394 24.7277C167.188 29.7545 162.576 34.4282 157.607 38.7022C154.433 41.6472 151.122 44.3707 147.775 47.1288C140.617 52.7163 133.882 58.8254 127.626 65.406C119.301 74.5686 112.96 85.3532 109 97.0843C107.845 100.503 106.932 104 106.269 107.547C107.848 103.158 109.877 98.9451 112.324 94.9745C115.943 89.5384 120.313 84.6413 125.303 80.4283C130.354 76.1831 135.78 72.4055 141.515 69.1423ZM126.033 62.6409C132.201 56.0493 138.828 49.9015 145.862 44.2433C152.514 38.9535 158.842 33.2684 164.811 27.2189C170.741 21.1899 175.513 14.1223 178.889 6.36733C175.827 4.52605 172.324 3.54597 168.753 3.53071C165.355 3.72244 162.049 4.69543 159.091 6.37399C155.945 8.16535 153.001 10.2905 150.31 12.7127C147.659 15.1726 145.007 17.6326 142.599 20.3542C130.827 33.1052 121.47 47.8899 114.984 63.9891C110.922 74.2563 107.965 84.9275 106.162 95.8227C110.484 83.5456 117.283 72.2897 126.137 62.7531L126.033 62.6409Z" fill="#BEC2A1" fill-opacity="0.5"/>
</svg>
