<svg width="165" height="104" viewBox="0 0 165 104" fill="none" xmlns="http://www.w3.org/2000/svg">
<path d="M39.0049 6.55541C37.6051 8.53413 36.3932 10.5967 35.386 12.8605C35.5567 12.8102 35.6591 12.7766 35.7445 12.7431C39.5853 11.1333 43.5456 9.8924 47.6253 9.0875C50.2029 8.58443 52.8146 8.41674 55.4264 8.55089C57.1334 8.63474 58.8233 8.91981 60.3597 9.70794C63.0567 11.083 64.5589 13.2629 64.9174 16.2478C65.3783 19.9704 64.4223 23.4583 63.0567 26.8456C61.1107 31.6415 58.3624 35.9846 55.2386 40.1097C52.2343 44.0672 48.7861 47.6222 45.116 50.9927C43.3748 52.6025 41.5825 54.162 39.6024 55.4867C39.5511 55.5203 39.517 55.5538 39.3975 55.6712C39.6024 55.6712 39.7048 55.6712 39.8243 55.6712C43.7333 55.5035 47.5741 55.9227 51.2783 57.2474C54.7265 58.4883 57.7138 60.3664 60.0012 63.2507C61.6911 65.3803 62.6641 67.7782 63.0567 70.4612C63.4493 73.1107 63.2616 75.7266 62.7495 78.3258C62.7324 78.4096 62.7324 78.5103 62.6983 78.6612C63.364 78.6109 63.9956 78.5773 64.6272 78.527C65.8221 78.4096 66.9999 78.2755 68.1778 78.1581C68.485 78.1246 68.7582 78.2084 68.8094 78.5606C68.8606 78.9127 68.6216 79.0133 68.3143 79.0301C66.5561 79.1978 64.815 79.3655 63.0567 79.5164C62.5958 79.5499 62.3569 79.6505 62.2032 80.1536C60.445 85.855 57.2358 90.6509 52.7293 94.6083C47.4546 99.2197 41.2923 102.02 34.3789 103.311C31.1868 103.898 27.9434 104.133 24.7001 103.915C21.2178 103.663 17.8891 102.875 14.8506 101.115C13.6899 100.444 12.7169 99.5886 11.9487 98.4987C10.9757 97.1236 10.8904 95.6647 11.4707 94.1723C12.0853 92.5625 13.3143 91.4055 14.6629 90.3658C16.882 88.6554 19.4084 87.5151 22.003 86.509C26.3218 84.8321 30.76 83.5912 35.3007 82.6689C38.6635 81.9814 42.0434 81.3442 45.4233 80.774C48.0862 80.3213 50.7662 80.0027 53.4292 79.6338C55.4947 79.3655 57.5772 79.1307 59.7281 78.8792C59.8305 78.2923 59.967 77.6215 60.0524 76.9508C60.3084 75.0727 60.4109 73.161 60.3255 71.2661C60.0353 65.0785 57.048 60.7186 51.1759 58.3206C48.6837 57.2977 46.089 56.7779 43.409 56.5599C42.4019 56.4761 41.3947 56.4425 40.3876 56.3922C38.9537 56.3084 37.6905 56.7611 36.4444 57.3984C35.8298 57.717 35.1812 57.9853 34.5325 58.1865C33.8326 58.4045 33.2693 58.1865 33.0474 57.7337C32.7743 57.1971 32.9621 56.4258 33.4742 56.0233C33.679 55.8556 33.9351 55.7215 34.1911 55.6544C36.2395 55.1849 37.9295 54.1284 39.4999 52.7702C46.3621 46.8676 52.0806 40.0259 56.7749 32.3458C58.6014 29.361 60.1207 26.2252 61.0595 22.8379C61.5716 21.0101 61.8618 19.1655 61.7253 17.2539C61.5034 14.0175 59.5574 11.804 56.3311 11.0997C54.2485 10.647 52.1489 10.6805 50.0493 10.9656C44.5868 11.7034 39.4146 13.3971 34.413 15.6106C34.0887 15.7615 33.9009 15.9627 33.7814 16.2813C29.787 26.0743 26.6802 36.1523 24.3246 46.4316C23.4711 50.2046 22.7712 54.0111 22.1396 57.8176C21.7128 60.2994 21.5251 62.8314 21.2178 65.33C21.1837 65.6318 21.3202 65.6821 21.5592 65.7157C23.3004 65.9337 25.0586 66.0846 26.7827 66.4032C27.7898 66.6044 28.7969 66.9901 29.7358 67.4596C31.238 68.1975 31.7159 69.388 31.2721 70.9978C30.9307 72.289 30.0772 73.2449 29.1383 74.1336C27.6703 75.5086 25.9462 76.3974 23.932 76.7328C21.2349 77.1688 18.7597 75.6093 18.2305 73.1107C17.9403 71.7021 17.872 70.26 17.9745 68.8179C18.0257 68.0465 18.0427 67.2752 18.111 66.5206C18.1622 66.0678 18.0086 65.9001 17.5648 65.7828C15.2774 65.2294 13.0071 64.6089 10.8391 63.6867C7.93722 62.4458 5.18893 60.9701 3.05516 58.6057C0.665337 55.9562 -0.273522 52.9043 0.0678813 49.45C0.426354 45.8447 1.91146 42.6418 3.80624 39.6235C6.38384 35.5151 9.52474 31.8595 13.0241 28.5057C17.5648 24.1459 22.481 20.2555 27.8239 16.885C28.7969 16.2645 29.8212 15.7112 30.8454 15.1578C31.1526 14.9901 31.3404 14.7889 31.477 14.4703C33.0816 10.9153 34.7374 7.39385 36.9394 4.15747C37.6905 3.05073 38.4928 1.9943 39.517 1.10555C40.1486 0.552185 40.8143 0.116197 41.6849 0.0155841C42.3165 -0.051491 42.6067 0.166503 42.7262 0.770179C42.8798 1.57508 42.692 2.32968 42.4189 3.0675C42.0263 4.12394 41.463 5.09653 40.7461 5.9685C40.2169 6.60572 39.7389 6.7734 39.0049 6.55541ZM18.1793 65.0114C20.0058 48.796 24.0685 33.201 29.9577 17.9582C29.7187 18.0923 29.5651 18.1594 29.4285 18.2433C22.7029 22.2342 16.7113 27.1139 11.2488 32.6309C8.68831 35.23 6.33263 37.9801 4.42077 41.0823C2.71375 43.8156 1.36521 46.6496 1.05795 49.8692C0.801898 52.6863 1.50177 55.252 3.27707 57.4822C4.45491 58.9746 5.92294 60.1652 7.59582 61.121C10.327 62.6973 13.2631 63.7537 16.3187 64.5419C16.9332 64.6928 17.5477 64.8437 18.1793 65.0114ZM59.472 79.8518C58.7209 79.9524 58.0893 80.0194 57.4577 80.1033C54.368 80.5057 51.2783 80.8579 48.2057 81.3106C43.6309 81.9982 39.0902 82.8366 34.5837 83.8763C30.2138 84.8824 25.895 86.073 21.764 87.8337C19.6473 88.7225 17.5477 89.6783 15.7895 91.1707C14.7141 92.0762 13.7069 93.032 13.0583 94.3065C12.7169 94.9772 12.512 95.6815 12.6657 96.4529C12.9729 97.8782 13.8435 98.9011 15.0384 99.6892C17.138 101.064 19.5279 101.685 22.003 102.003C24.1027 102.272 26.2364 102.205 28.3531 102.037C30.8795 101.836 33.3717 101.45 35.8128 100.762C40.0291 99.5886 44.0235 98.0124 47.6253 95.497C52.7293 91.9253 56.6384 87.4145 58.8575 81.6125C59.0623 81.0591 59.2501 80.5057 59.472 79.8518ZM21.013 66.487C20.9788 68.1136 20.8764 69.6563 20.9276 71.1991C20.9617 72.071 21.1666 72.943 21.4056 73.7815C21.6275 74.5361 22.1396 75.0894 22.9931 75.19C23.5393 75.2403 24.1197 75.2571 24.6318 75.1397C26.4925 74.687 27.9434 73.5635 29.1213 72.1214C29.4798 71.6686 29.7187 71.0817 29.8894 70.5116C30.2138 69.4383 29.8382 68.6334 28.8482 68.0968C28.5068 67.9124 28.1312 67.7615 27.7557 67.6441C26.2535 67.141 24.683 66.9901 23.1126 66.8056C22.4468 66.705 21.7982 66.5877 21.013 66.487Z" fill="white"/>
<path d="M110.477 68.383C110.375 67.6788 110.204 66.9745 110.204 66.2869C110.204 64.3585 112.047 62.8494 113.959 63.2183C115.018 63.4195 115.632 64.2244 116.11 65.1131C116.673 66.1696 116.912 67.3098 117.066 68.4837C117.168 69.3221 117.22 70.1773 117.237 71.0325C117.254 71.3679 117.356 71.435 117.681 71.4517C119.695 71.5523 121.555 70.9487 123.399 70.3282C123.826 70.1773 124.133 69.9761 124.372 69.5401C124.56 69.188 124.901 68.8693 125.26 68.7017C125.942 68.3495 126.455 68.6849 126.438 69.4563C126.42 70.1438 126.318 70.8145 126.233 71.4853C126.011 72.9609 125.704 74.4198 125.567 75.9122C125.499 76.6836 125.618 77.5053 125.789 78.2599C125.994 79.0983 126.608 79.3666 127.462 79.1654C128.23 78.9809 128.827 78.5282 129.357 78.0083C131.832 75.5601 133.778 72.7429 135.126 69.5401C135.263 69.2215 135.212 69.0538 134.921 68.8526C133.522 67.8129 132.685 66.3876 132.327 64.7442C132.105 63.7381 132.139 62.7152 132.992 61.9438C134.085 60.9545 135.877 61.2563 136.577 62.5475C137.209 63.7046 137.379 64.9622 137.243 66.2534C137.158 66.9912 136.953 67.7291 136.748 68.4501C136.68 68.7184 136.731 68.8526 136.953 68.9867C137.943 69.5736 139.035 69.7749 140.162 69.8419C140.298 69.8587 140.486 69.6742 140.589 69.5233C141.613 67.9974 142.808 66.6391 144.498 65.8007C146.41 64.8281 148.373 64.8113 150.336 65.6497C151.019 65.9516 151.462 66.4882 151.838 67.1925C152.06 66.8236 152.248 66.4882 152.435 66.1863C152.657 65.851 152.845 65.5156 153.118 65.2305C153.716 64.6101 154.672 64.7945 155.013 65.5659C155.354 66.3205 155.269 67.1422 155.15 67.9135C154.893 69.8252 154.535 71.72 154.296 73.6149C154.194 74.4198 154.245 75.2583 154.364 76.0799C154.552 77.4214 155.696 78.0586 157.01 77.6394C158.188 77.2705 159.076 76.4824 159.946 75.6775C161.363 74.3527 162.626 72.8938 163.736 71.3176C163.941 71.0325 164.248 70.7978 164.521 70.5798C164.606 70.5127 164.794 70.5462 164.931 70.5295C164.948 70.6468 164.982 70.7642 164.948 70.8816C164.897 71.0828 164.862 71.3008 164.743 71.4685C163.258 73.8832 161.5 76.0631 159.059 77.6059C158.495 77.958 157.915 78.2934 157.317 78.5617C154.911 79.6014 152.879 78.5617 152.299 76.0632C152.026 74.8726 152.043 73.6652 152.179 72.4746C152.401 70.7307 152.726 68.9867 153.016 67.3098C152.999 67.3266 152.913 67.444 152.845 67.5614C151.582 69.5569 150.404 71.6027 148.868 73.4137C147.843 74.6378 146.734 75.7781 145.249 76.4824C143.713 77.2034 142.193 77.1531 140.759 76.2141C139.889 75.6439 139.496 74.8055 139.411 73.7994C139.343 72.9106 139.513 72.0554 139.786 71.2002C139.838 71.0661 139.889 70.9151 139.923 70.8145C138.711 70.4791 137.533 70.1438 136.304 69.7916C136.287 69.8252 136.202 69.9761 136.133 70.1102C134.921 72.5417 133.522 74.8558 131.832 76.9854C130.603 78.5282 129.118 79.7858 127.206 80.5236C125.686 81.1106 124.423 80.6075 123.74 79.1318C123.041 77.5891 122.989 75.9961 123.228 74.3695C123.399 73.2963 123.57 72.2231 123.758 71.0996C123.57 71.1667 123.416 71.217 123.262 71.2673C121.658 71.871 120.036 72.3405 118.295 72.3405C118.073 72.3405 117.817 72.374 117.612 72.3237C117.168 72.1896 117.1 72.4076 117.015 72.7597C116.673 74.0341 116.315 75.3253 115.888 76.5662C115.581 77.4382 115.069 78.2431 114.335 78.83C112.389 80.4063 109.777 79.987 108.36 77.8574C108.19 77.6059 108.053 77.3543 107.865 77.0357C107.78 77.2705 107.712 77.4382 107.643 77.6059C106.636 80.423 105.424 83.1396 103.922 85.722C102.898 87.4995 101.737 89.1596 100.167 90.5178C99.2106 91.3395 98.1352 91.96 96.8379 92.0941C94.8065 92.3121 93.4409 91.3563 92.485 89.6962C91.5461 88.0696 91.0682 86.2921 90.7609 84.4643C90.2147 81.2447 90.2317 78.0083 90.2488 74.772C90.2488 74.6043 90.2488 74.4534 90.2488 74.1515C90.0098 74.4198 89.8391 74.6043 89.6855 74.7887C88.2857 76.3985 86.647 77.6897 84.6839 78.5449C84.223 78.7462 83.7109 78.8803 83.2159 78.9138C81.4235 79.0145 80.331 78.2934 79.6995 76.0799C79.3581 74.8893 79.4605 73.6652 79.5629 72.4579C79.6482 71.5691 79.7677 70.6804 79.9384 69.8084C80.0921 68.9532 80.314 68.098 80.4676 67.2092C80.3823 67.3266 80.314 67.444 80.2286 67.5614C78.9654 69.5569 77.7876 71.6027 76.2513 73.4137C75.2271 74.6378 74.1175 75.7781 72.6324 76.4824C71.318 77.1028 70.0036 77.1364 68.6892 76.5159C67.2895 75.8619 66.5725 74.4366 66.8286 72.81C67.3236 69.6407 69.0989 67.3266 71.8813 65.7839C73.742 64.7442 75.7392 64.7778 77.7193 65.633C78.4021 65.9348 78.8459 66.4714 79.2044 67.1757C79.4263 66.79 79.6141 66.4714 79.8189 66.1696C80.0238 65.851 80.2116 65.5156 80.4676 65.2473C81.0992 64.5765 82.0893 64.7778 82.4307 65.633C82.7209 66.3876 82.6355 67.1757 82.5331 67.9471C82.26 69.8587 81.9186 71.7536 81.6796 73.6484C81.5772 74.4366 81.6284 75.275 81.7479 76.0632C81.9356 77.4047 83.0793 78.0251 84.3937 77.6226C85.4692 77.2873 86.3227 76.5998 87.1079 75.8452C88.1492 74.839 89.1051 73.7491 90.0781 72.6759C90.1976 72.5417 90.2659 72.3069 90.283 72.1057C90.4366 69.8922 90.5049 67.662 90.7268 65.4653C90.9658 63.0841 91.273 60.6862 91.6998 58.3385C92.2119 55.5549 92.8776 52.8048 93.4751 50.038C93.4921 49.9709 93.4921 49.9039 93.5092 49.7697C93.2873 49.7697 93.0824 49.7529 92.8776 49.7697C90.5902 49.9374 88.2857 50.0548 85.9983 50.2728C83.3013 50.5243 80.6042 50.91 77.9071 51.128C75.705 51.3124 73.6566 52.1341 71.5399 52.6372C70.8913 52.7881 70.2255 52.8887 69.5769 52.9725C69.0477 53.0396 68.6892 52.8384 68.6551 52.503C68.6209 52.1006 69.0135 51.5304 69.4062 51.4633C71.9496 51.0609 74.476 50.6249 77.0194 50.2728C79.2898 49.9542 81.5601 49.6859 83.8304 49.4511C86.0496 49.2331 88.2687 49.0822 90.5049 48.9145C91.512 48.8474 92.5191 48.7803 93.5263 48.7468C93.8335 48.73 93.8848 48.5456 93.953 48.3276C94.6017 46.2818 95.2162 44.2192 95.9332 42.1902C96.4282 40.7984 97.111 39.4569 98.0157 38.2663C98.5108 37.6291 99.0741 37.059 99.8252 36.7236C100.969 36.2205 102.232 36.6565 102.812 37.7465C103.376 38.8029 103.376 39.96 103.256 41.1002C103 43.4646 102.078 45.6278 101.14 47.791C101.071 47.9419 101.003 48.0928 100.935 48.2605C100.918 48.2773 100.935 48.3108 100.935 48.3947C101.071 48.4114 101.225 48.4282 101.361 48.4282C103.7 48.4282 106.056 48.3779 108.394 48.4282C110.613 48.4785 112.833 48.6127 115.035 48.73C116.315 48.7971 117.595 48.8977 118.858 48.9983C119.183 49.0319 119.524 49.1493 119.831 49.2834C119.934 49.3337 120.036 49.5349 120.019 49.6523C120.019 49.7362 119.831 49.8871 119.729 49.8871C119.097 49.9039 118.449 49.9039 117.817 49.8703C116.298 49.7865 114.779 49.602 113.259 49.5685C109.145 49.4679 105.049 49.4176 100.935 49.3337C100.508 49.3169 100.286 49.4511 100.081 49.8368C98.7839 52.3521 97.2476 54.7333 95.5064 56.997C95.1821 57.4163 95.1138 58.087 95.0114 58.6404C94.5163 61.7594 93.9872 64.8951 93.5604 68.0309C93.0312 72.0554 92.7581 76.0967 92.7923 80.138C92.8093 82.821 93.0142 85.504 93.8848 88.0696C94.0896 88.6565 94.3627 89.2434 94.7212 89.7465C95.6601 91.0712 97.1451 91.2724 98.4937 90.3669C99.535 89.6626 100.32 88.7236 101.037 87.7342C102.573 85.6214 103.837 83.3408 104.895 80.9429C105.578 79.3666 106.209 77.7568 106.909 76.1973C107.251 75.4259 107.268 74.6881 107.199 73.8832C107.046 72.3405 107.217 70.8313 107.916 69.4395C108.582 68.2154 109.231 67.9974 110.477 68.383ZM78.5728 68.1651C78.2143 68.0477 77.8388 67.9974 77.5486 67.8297C77.2926 67.662 77.0877 67.3769 76.9 67.1254C76.3366 66.3876 75.6709 65.9683 74.6808 66.1696C73.6566 66.3708 72.9055 66.9745 72.3081 67.7626C71.4375 68.8861 70.7547 70.127 70.2426 71.4517C69.85 72.4746 69.5939 73.5311 69.7305 74.6378C69.8329 75.3756 70.2938 75.8116 71.062 75.7613C71.4887 75.7278 71.9667 75.6272 72.291 75.3924C73.1104 74.8055 73.981 74.2186 74.6126 73.464C75.927 71.9045 77.1219 70.2276 78.3509 68.5843C78.4533 68.4334 78.5216 68.2657 78.5728 68.1651ZM151.309 68.0309C150.404 68.2321 149.96 67.7291 149.551 67.1589C149.516 67.1086 149.499 67.0583 149.465 67.0248C148.919 66.3708 148.27 66.0019 147.348 66.1696C146.29 66.3708 145.471 66.9745 144.924 67.8129C144.173 68.9532 143.508 70.1605 142.91 71.3847C142.432 72.3908 142.21 73.4808 142.347 74.6043C142.432 75.3756 142.91 75.8116 143.678 75.7613C144.105 75.7278 144.583 75.6272 144.907 75.3924C145.744 74.7887 146.614 74.2018 147.263 73.4305C148.56 71.8877 149.738 70.2276 150.95 68.6178C151.087 68.4501 151.155 68.2824 151.309 68.0309ZM111.16 69.3389C110.87 69.9761 110.528 70.5127 110.375 71.1164C109.948 72.6423 109.862 74.2018 110.118 75.7613C110.221 76.3147 110.46 76.9016 110.767 77.3711C111.416 78.394 112.696 78.5282 113.652 77.7568C114.659 76.9351 115.103 75.8116 115.461 74.6378C115.717 73.8497 115.837 73.028 116.025 72.2399C112.798 70.9822 112.798 70.9822 111.16 69.3389ZM97.1964 48.4785C97.9645 48.4785 98.6815 48.4953 99.3813 48.4617C99.5008 48.4617 99.6545 48.3108 99.7057 48.1934C100.576 46.2986 101.344 44.3702 101.805 42.3244C102.027 41.3015 102.266 40.2618 101.925 39.2221C101.857 39.0041 101.652 38.7191 101.447 38.6688C101.242 38.6185 100.918 38.7694 100.747 38.9371C100.491 39.2054 100.286 39.5407 100.115 39.8761C99.1082 41.6536 98.4937 43.582 97.9645 45.544C97.6914 46.4998 97.4524 47.4891 97.1964 48.4785ZM116.042 71.2002C115.974 70.2779 115.956 69.4562 115.82 68.6513C115.632 67.5278 115.427 66.3876 114.779 65.415C114.369 64.7945 113.737 64.5262 113.157 64.7107C112.696 64.8616 112.423 65.3647 112.389 66.0857C112.321 67.5111 112.918 68.6849 113.823 69.7413C114.369 70.3953 115.069 70.8313 116.042 71.2002ZM135.792 67.8297C135.826 67.6788 135.877 67.5446 135.894 67.4105C135.98 66.5217 136.082 65.633 136.133 64.7442C136.15 64.3753 136.048 64.0064 135.929 63.6375C135.775 63.1512 135.416 62.8997 134.99 62.9332C134.495 62.9667 134.222 63.2015 134.17 63.7716C134.017 65.3479 134.699 66.6391 135.707 67.7961C135.707 67.8297 135.724 67.8297 135.792 67.8297ZM95.7113 55.0183C95.7625 55.0351 95.8137 55.0519 95.8649 55.0686C97.0939 53.3415 97.9987 51.4298 99.0058 49.5349C98.3401 49.5349 97.7767 49.5182 97.2134 49.5517C97.0939 49.5517 96.9062 49.7194 96.872 49.82C96.4623 51.564 96.0868 53.2911 95.7113 55.0183Z" fill="white"/>
</svg>
