<svg width="33" height="18" viewBox="0 0 33 18" fill="none" xmlns="http://www.w3.org/2000/svg">
<path d="M32.7544 1.38349C32.3428 1.05921 30.7598 1.07606 29.1903 1.08027C27.5847 1.08869 25.9926 1.09712 25.6263 1.23188C25.287 1.35822 24.5181 3.08066 23.5231 4.85363C22.3969 6.86245 20.9993 8.79124 20.1218 8.77861C18.9821 8.76176 19.2444 5.46428 19.3122 3.04276C19.3575 1.43824 19.077 0.937086 18.8238 0.777055C18.2132 0.398034 16.5578 0.0232243 16.5578 0.0232243C16.5578 0.0232243 11.5916 -0.326317 10.8815 1.6867C11.8268 1.80041 13.455 1.52246 12.8263 7.72156C12.7947 8.02057 12.0665 10.5768 9.74623 7.11934C9.17181 6.26443 6.94653 1.10133 6.18215 1.08027C3.6086 1.0171 1.08933 0.916029 0.189263 1.38349C-0.633912 1.80883 1.3019 5.37584 4.56294 10.1389C7.23147 14.0302 10.0583 17.0707 14.934 17.8372C15.8431 17.9214 18.2448 18.0225 18.9866 17.6856C19.5022 17.4498 18.8735 14.0765 20.6058 13.7606C21.3837 13.6216 24.3417 17.2645 25.4679 17.6856C26.1509 17.9383 27.6525 18.0351 29.1948 17.9888C30.8593 17.9383 32.7408 18.1236 32.9217 17.0834C33.3288 14.7545 27.9013 11.7308 27.7385 10.2905C27.6209 9.2587 29.724 7.35938 30.8186 5.91489C32.1438 4.15455 33.5866 2.03625 32.7544 1.38349Z" fill="white"/>
</svg>
