<svg width="21" height="23" viewBox="0 0 21 23" fill="none" xmlns="http://www.w3.org/2000/svg">
<path d="M15.9067 6.36175C16.0948 4.33877 15.5954 2.58189 13.9871 1.25135C12.912 0.361863 11.6601 -0.0580178 10.2465 0.00643764C9.18651 0.0543188 8.22433 0.383042 7.36091 0.982477C6.4956 1.58283 5.87672 2.37471 5.4657 3.33234C5.05469 4.2918 5.05469 5.30099 5.07067 6.35714C4.92019 6.35714 4.79604 6.35714 4.67094 6.35714C3.41343 6.35806 2.15498 6.35806 0.897467 6.36083C0.301161 6.36175 0.00582886 6.63798 0.00582886 7.22637C0.00394821 11.1508 -0.0111008 15.0752 0.0161743 18.9996C0.0321636 21.2786 1.84084 22.994 4.16305 22.9968C8.35977 23.0014 12.5565 23.0005 16.7532 22.9977C19.1761 22.9959 20.9678 21.3108 20.9847 18.9407C21.0129 15.0282 20.9941 11.1149 20.9904 7.20151C20.9894 6.63614 20.6932 6.36175 20.1128 6.36083C18.7378 6.3599 17.3627 6.36175 15.9067 6.36175ZM5.0735 7.81844C5.0735 8.39393 5.0735 8.94457 5.0735 9.49428C5.0735 9.77973 5.17884 10.0108 5.43467 10.1609C5.94256 10.4584 6.52476 10.1204 6.54075 9.50809C6.5558 8.94917 6.54357 8.38933 6.54357 7.82673C9.21002 7.82673 11.8238 7.82673 14.4555 7.82673C14.4555 8.36815 14.4536 8.88472 14.4564 9.40128C14.4592 9.92797 14.7555 10.277 15.1957 10.2788C15.6358 10.2806 15.9283 9.9335 15.9302 9.4022C15.9321 8.87735 15.9302 8.35158 15.9302 7.82949C17.1539 7.82949 18.3324 7.82949 19.5288 7.82949C19.5288 7.94919 19.5288 8.04035 19.5288 8.13151C19.5297 11.6996 19.5203 15.2667 19.5372 18.8348C19.5448 20.483 18.2365 21.5852 16.7457 21.5714C12.5847 21.5327 8.42278 21.5327 4.26086 21.5723C2.85004 21.5852 1.45992 20.5733 1.46838 18.8394C1.48249 15.8818 1.47214 12.9242 1.47214 9.96573C1.47214 9.2558 1.47214 8.54494 1.47214 7.81844C2.67792 7.81844 3.8489 7.81844 5.0735 7.81844ZM14.4319 6.33781C11.7965 6.33781 9.18181 6.33781 6.54451 6.33781C6.54451 5.97133 6.54263 5.62787 6.54451 5.28442C6.55674 3.70158 7.53397 2.29737 9.02473 1.71451C10.5409 1.12244 12.2301 1.48431 13.3644 2.63438C14.3915 3.67672 14.5627 4.95293 14.4319 6.33781Z" fill="black"/>
</svg>
