<svg width="128" height="81" viewBox="0 0 128 81" fill="none" xmlns="http://www.w3.org/2000/svg">
<path d="M30.2583 5.10652C29.1725 6.64763 28.2323 8.25405 27.451 10.0172C27.5834 9.97801 27.6628 9.95189 27.7291 9.92577C30.7086 8.67198 33.7808 7.70552 36.9457 7.07862C38.9453 6.68682 40.9714 6.55621 42.9974 6.66069C44.3217 6.726 45.6326 6.94802 46.8245 7.56186C48.9167 8.6328 50.0821 10.3306 50.3601 12.6554C50.7177 15.5548 49.9761 18.2713 48.9167 20.9095C47.4071 24.6447 45.2751 28.0273 42.8518 31.2402C40.5211 34.3224 37.8462 37.0912 34.9991 39.7163C33.6484 40.9701 32.2579 42.1847 30.7218 43.2165C30.6821 43.2426 30.6556 43.2687 30.5629 43.3601C30.7218 43.3601 30.8013 43.3601 30.894 43.3601C33.9265 43.2295 36.906 43.556 39.7795 44.5878C42.4545 45.5543 44.7719 47.017 46.5464 49.2634C47.8573 50.9221 48.6122 52.7897 48.9167 54.8793C49.2213 56.9429 49.0756 58.9803 48.6784 61.0046C48.6651 61.0699 48.6651 61.1483 48.6386 61.2658C49.1551 61.2266 49.6451 61.2005 50.135 61.1613C51.062 61.0699 51.9757 60.9654 52.8894 60.874C53.1278 60.8479 53.3397 60.9132 53.3794 61.1875C53.4191 61.4617 53.2337 61.5401 52.9954 61.5531C51.6314 61.6837 50.2807 61.8144 48.9167 61.9319C48.5592 61.958 48.3738 62.0364 48.2546 62.4282C46.8907 66.8687 44.4011 70.6039 40.9051 73.6862C36.8133 77.2777 32.0328 79.4588 26.6697 80.4645C24.1934 80.9216 21.6773 81.1044 19.1613 80.9346C16.4599 80.7387 13.8776 80.1249 11.5205 78.7536C10.62 78.2311 9.8652 77.5651 9.2693 76.7162C8.51449 75.6452 8.44827 74.509 8.89851 73.3466C9.37524 72.0928 10.3287 71.1917 11.3748 70.3819C13.0963 69.0498 15.0562 68.1617 17.069 67.378C20.4193 66.072 23.8623 65.1055 27.3848 64.3872C29.9935 63.8518 32.6155 63.3555 35.2374 62.9114C37.3032 62.5588 39.3823 62.3106 41.4481 62.0233C43.0504 61.8143 44.666 61.6315 46.3345 61.4356C46.4139 60.9785 46.5199 60.4561 46.5861 59.9337C46.7847 58.4709 46.8642 56.982 46.798 55.5062C46.5728 50.687 44.2554 47.2913 39.7001 45.4237C37.7667 44.627 35.7539 44.2221 33.6749 44.0523C32.8936 43.987 32.1123 43.9609 31.331 43.9217C30.2186 43.8564 29.2387 44.2091 28.272 44.7054C27.7953 44.9535 27.2921 45.1625 26.7889 45.3192C26.2459 45.489 25.8089 45.3192 25.6368 44.9666C25.4249 44.5486 25.5706 43.9479 25.9678 43.6344C26.1267 43.5038 26.3254 43.3993 26.524 43.3471C28.1131 42.9814 29.4241 42.1586 30.6424 41.1007C35.9658 36.5035 40.4019 31.1749 44.0436 25.1933C45.4605 22.8685 46.6391 20.4263 47.3674 17.7881C47.7647 16.3645 47.9898 14.9279 47.8838 13.439C47.7117 10.9184 46.2021 9.19439 43.6993 8.64586C42.0837 8.29323 40.4549 8.31935 38.8261 8.54138C34.5886 9.11603 30.5762 10.4351 26.6962 12.1591C26.4446 12.2766 26.2989 12.4333 26.2062 12.6815C23.1075 20.3087 20.6974 28.1579 18.87 36.1639C18.2078 39.1025 17.6649 42.0672 17.1749 45.0319C16.8439 46.9648 16.6982 48.9369 16.4599 50.8829C16.4334 51.118 16.5393 51.1571 16.7247 51.1833C18.0754 51.353 19.4394 51.4706 20.7769 51.7187C21.5581 51.8755 22.3394 52.1758 23.0678 52.5415C24.2331 53.1162 24.6039 54.0435 24.2596 55.2973C23.9947 56.3029 23.3326 57.0473 22.6043 57.7395C21.4655 58.8105 20.128 59.5027 18.5654 59.7639C16.4731 60.1035 14.553 58.8888 14.1425 56.9429C13.9173 55.8458 13.8644 54.7226 13.9438 53.5994C13.9836 52.9986 13.9968 52.3979 14.0498 51.8102C14.0895 51.4575 13.9703 51.3269 13.626 51.2355C11.8515 50.8045 10.0903 50.3213 8.40855 49.603C6.15736 48.6365 4.02535 47.4872 2.37006 45.6457C0.51614 43.5822 -0.212187 41.2052 0.0526594 38.5148C0.330748 35.7068 1.48283 33.2123 2.95272 30.8614C4.95231 27.6617 7.38889 24.8145 10.1036 22.2025C13.626 18.8068 17.4398 15.7768 21.5846 13.1517C22.3394 12.6684 23.134 12.2374 23.9285 11.8065C24.1669 11.6759 24.3125 11.5191 24.4185 11.271C25.6633 8.5022 26.9478 5.75953 28.656 3.2389C29.2387 2.37692 29.8611 1.55412 30.6556 0.861921C31.1456 0.430931 31.662 0.0913633 32.3374 0.0130015C32.8273 -0.0392397 33.0525 0.130544 33.1452 0.600715C33.2643 1.22761 33.1187 1.81532 32.9068 2.38998C32.6022 3.21278 32.1652 3.97027 31.6091 4.64941C31.1985 5.1457 30.8278 5.2763 30.2583 5.10652ZM14.1027 50.6347C15.5197 38.0054 18.6713 25.8593 23.2399 13.9875C23.0545 14.092 22.9353 14.1442 22.8294 14.2095C17.6119 17.3179 12.9639 21.1184 8.72636 25.4153C6.74002 27.4396 4.91258 29.5815 3.42945 31.9977C2.10522 34.1265 1.05907 36.3337 0.820713 38.8413C0.622078 41.0354 1.16501 43.0336 2.54221 44.7707C3.45593 45.933 4.59477 46.8603 5.89251 47.6047C8.01128 48.8324 10.289 49.6552 12.6593 50.269C13.136 50.3866 13.6128 50.5041 14.1027 50.6347ZM46.1358 62.1931C45.5532 62.2715 45.0632 62.3237 44.5733 62.389C42.1764 62.7024 39.7795 62.9767 37.3959 63.3293C33.847 63.8648 30.3246 64.5178 26.8286 65.3276C23.4386 66.1112 20.0883 67.0385 16.8836 68.4098C15.2416 69.102 13.6128 69.8464 12.2488 71.0088C11.4145 71.7141 10.6333 72.4585 10.13 73.4511C9.8652 73.9735 9.70629 74.522 9.82547 75.1228C10.0638 76.2329 10.7392 77.0296 11.6662 77.6434C13.295 78.7144 15.1489 79.1976 17.069 79.4458C18.6978 79.6547 20.3531 79.6025 21.9951 79.4719C23.955 79.3152 25.8884 79.0148 27.782 78.4793C31.0529 77.5651 34.1516 76.3374 36.9457 74.3784C40.9051 71.5965 43.9376 68.0833 45.6591 63.5644C45.818 63.1334 45.9637 62.7024 46.1358 62.1931ZM16.301 51.784C16.2745 53.0509 16.195 54.2524 16.2347 55.454C16.2612 56.1331 16.4201 56.8123 16.6055 57.4653C16.7777 58.053 17.1749 58.484 17.8371 58.5623C18.2608 58.6015 18.7111 58.6146 19.1083 58.5232C20.5517 58.1705 21.6773 57.2955 22.591 56.1723C22.8691 55.8197 23.0545 55.3626 23.187 54.9185C23.4386 54.0826 23.1472 53.4558 22.3792 53.0378C22.1143 52.8942 21.823 52.7766 21.5317 52.6852C20.3663 52.2934 19.1481 52.1758 17.9298 52.0322C17.4133 51.9538 16.9101 51.8624 16.301 51.784Z" fill="black"/>
<path d="M85.705 53.2603C85.6255 52.7117 85.4931 52.1632 85.4931 51.6277C85.4931 50.1258 86.9233 48.9504 88.4064 49.2377C89.2274 49.3944 89.7042 50.0213 90.0749 50.7135C90.5119 51.5363 90.6973 52.4244 90.8165 53.3386C90.896 53.9916 90.9357 54.6577 90.9489 55.3238C90.9622 55.585 91.0416 55.6372 91.2932 55.6503C92.8558 55.7287 94.2992 55.2585 95.7294 54.7753C96.0605 54.6577 96.2988 54.501 96.4842 54.1614C96.6299 53.8872 96.8947 53.639 97.1728 53.5084C97.7025 53.2341 98.0998 53.4953 98.0865 54.0961C98.0733 54.6316 97.9938 55.154 97.9276 55.6764C97.7555 56.8257 97.5171 57.962 97.4112 59.1243C97.3582 59.7251 97.4509 60.3651 97.5833 60.9528C97.7422 61.6058 98.219 61.8148 98.8811 61.658C99.477 61.5144 99.9405 61.1617 100.351 60.7569C102.271 58.8501 103.781 56.6559 104.827 54.1614C104.933 53.9133 104.893 53.7827 104.668 53.626C103.582 52.8162 102.933 51.7061 102.655 50.4262C102.483 49.6426 102.509 48.8459 103.172 48.2451C104.019 47.4745 105.41 47.7096 105.952 48.7153C106.442 49.6164 106.575 50.596 106.469 51.6016C106.403 52.1763 106.244 52.7509 106.085 53.3125C106.032 53.5215 106.072 53.6259 106.244 53.7304C107.012 54.1875 107.859 54.3443 108.733 54.3965C108.839 54.4096 108.985 54.2659 109.064 54.1484C109.859 52.9599 110.786 51.902 112.097 51.249C113.58 50.4915 115.103 50.4784 116.626 51.1314C117.155 51.3665 117.5 51.7844 117.791 52.333C117.963 52.0457 118.109 51.7844 118.255 51.5494C118.427 51.2882 118.572 51.0269 118.784 50.8049C119.248 50.3217 119.989 50.4654 120.254 51.0661C120.519 51.6538 120.453 52.2938 120.36 52.8946C120.161 54.3834 119.883 55.8593 119.698 57.3351C119.619 57.962 119.658 58.615 119.751 59.2549C119.897 60.2998 120.784 60.7961 121.803 60.4696C122.717 60.1822 123.406 59.5684 124.081 58.9415C125.18 57.9097 126.16 56.7735 127.021 55.5458C127.18 55.3238 127.418 55.1409 127.63 54.9712C127.696 54.9189 127.842 54.945 127.948 54.932C127.961 55.0234 127.988 55.1148 127.961 55.2062C127.921 55.363 127.895 55.5328 127.802 55.6634C126.65 57.544 125.286 59.2419 123.393 60.4434C122.956 60.7177 122.505 60.9789 122.042 61.1879C120.175 61.9976 118.599 61.1879 118.149 59.2419C117.937 58.3146 117.95 57.3743 118.056 56.447C118.228 55.0887 118.48 53.7304 118.705 52.4244C118.692 52.4375 118.625 52.5289 118.572 52.6203C117.592 54.1745 116.679 55.7678 115.487 57.1784C114.692 58.1318 113.832 59.0199 112.68 59.5684C111.488 60.13 110.309 60.0908 109.197 59.3594C108.521 58.9154 108.217 58.2624 108.151 57.4787C108.098 56.7865 108.23 56.1205 108.442 55.4544C108.482 55.3499 108.521 55.2324 108.548 55.154C107.608 54.8928 106.694 54.6316 105.741 54.3573C105.727 54.3834 105.661 54.501 105.608 54.6055C104.668 56.4992 103.582 58.3015 102.271 59.9602C101.318 61.1617 100.166 62.1413 98.6824 62.7159C97.5039 63.173 96.5239 62.7812 95.9943 61.6319C95.4513 60.4304 95.4116 59.1896 95.597 57.9228C95.7294 57.0869 95.8618 56.2511 96.0075 55.376C95.8618 55.4283 95.7426 55.4675 95.6235 55.5066C94.3787 55.9768 93.1207 56.3425 91.77 56.3425C91.5978 56.3425 91.3992 56.3686 91.2403 56.3294C90.896 56.2249 90.843 56.3947 90.7768 56.669C90.5119 57.6616 90.2339 58.6672 89.9028 59.6337C89.6644 60.3128 89.2672 60.9397 88.6977 61.3968C87.1881 62.6245 85.162 62.298 84.0629 60.6393C83.9305 60.4434 83.8246 60.2475 83.6789 59.9994C83.6127 60.1822 83.5597 60.3128 83.5068 60.4434C82.7255 62.6376 81.7853 64.7533 80.6199 66.7646C79.8254 68.149 78.9249 69.442 77.7066 70.4999C76.9651 71.1398 76.1308 71.6231 75.1244 71.7275C73.5485 71.8973 72.4892 71.1529 71.7476 69.8599C71.0193 68.5931 70.6485 67.2087 70.4101 65.7851C69.9864 63.2775 69.9996 60.7569 70.0129 58.2362C70.0129 58.1056 70.0129 57.9881 70.0129 57.753C69.8275 57.962 69.695 58.1056 69.5759 58.2493C68.49 59.5031 67.2187 60.5087 65.6959 61.1748C65.3383 61.3315 64.9411 61.436 64.557 61.4621C63.1666 61.5405 62.3191 60.9789 61.8291 59.2549C61.5643 58.3277 61.6437 57.3743 61.7232 56.4339C61.7894 55.7417 61.8821 55.0495 62.0145 54.3704C62.1337 53.7043 62.3058 53.0382 62.425 52.346C62.3588 52.4375 62.3058 52.5289 62.2396 52.6203C61.2597 54.1745 60.346 55.7678 59.1542 57.1784C58.3596 58.1318 57.4989 59.0199 56.3468 59.5684C55.3271 60.0516 54.3075 60.0777 53.2878 59.5945C52.202 59.0852 51.6458 57.975 51.8444 56.7082C52.2284 54.2398 53.6056 52.4375 55.7641 51.2359C57.2076 50.4262 58.7569 50.4523 60.293 51.1184C60.8227 51.3535 61.167 51.7714 61.4451 52.3199C61.6172 52.0195 61.7629 51.7714 61.9218 51.5363C62.0807 51.2882 62.2264 51.027 62.425 50.818C62.915 50.2956 63.683 50.4523 63.9479 51.1184C64.173 51.7061 64.1068 52.3199 64.0273 52.9207C63.8155 54.4096 63.5506 55.8854 63.3652 57.3612C63.2858 57.975 63.3255 58.628 63.4182 59.2419C63.5639 60.2867 64.4511 60.7699 65.4707 60.4565C66.305 60.1953 66.9671 59.6598 67.5763 59.0721C68.3841 58.2885 69.1256 57.4396 69.8804 56.6037C69.9731 56.4992 70.0261 56.3164 70.0393 56.1596C70.1585 54.4357 70.2115 52.6987 70.3836 50.9878C70.569 49.1332 70.8074 47.2656 71.1385 45.4371C71.5357 43.2691 72.0522 41.1272 72.5156 38.9723C72.5289 38.92 72.5289 38.8678 72.5421 38.7633C72.37 38.7633 72.2111 38.7503 72.0522 38.7633C70.2777 38.8939 68.49 38.9853 66.7155 39.1551C64.6232 39.351 62.531 39.6514 60.4387 39.8212C58.7304 39.9649 57.1413 40.6048 55.4993 40.9966C54.9961 41.1142 54.4796 41.1925 53.9764 41.2578C53.5659 41.3101 53.2878 41.1534 53.2613 40.8922C53.2349 40.5787 53.5394 40.1347 53.844 40.0824C55.8171 39.769 57.777 39.4294 59.7501 39.1551C61.5113 38.907 63.2725 38.698 65.0338 38.5152C66.7552 38.3454 68.4768 38.2278 70.2115 38.0972C70.9928 38.045 71.7741 37.9928 72.5554 37.9666C72.7937 37.9536 72.8335 37.8099 72.8864 37.6401C73.3896 36.0468 73.8664 34.4404 74.4225 32.8601C74.8066 31.7761 75.3363 30.7312 76.0381 29.804C76.4221 29.3077 76.8591 28.8636 77.4418 28.6024C78.329 28.2106 79.3089 28.5502 79.7592 29.3991C80.1962 30.2219 80.1962 31.123 80.1035 32.0111C79.9049 33.8526 79.1898 35.5374 78.4614 37.2222C78.4085 37.3397 78.3555 37.4573 78.3025 37.5879C78.2893 37.601 78.3025 37.6271 78.3025 37.6924C78.4085 37.7054 78.5277 37.7185 78.6336 37.7185C80.4478 37.7185 82.2752 37.6793 84.0894 37.7185C85.8109 37.7577 87.5324 37.8622 89.2407 37.9536C90.2339 38.0058 91.227 38.0842 92.2069 38.1625C92.4586 38.1887 92.7234 38.2801 92.9618 38.3846C93.0412 38.4238 93.1207 38.5805 93.1074 38.6719C93.1074 38.7372 92.9618 38.8547 92.8823 38.8547C92.3923 38.8678 91.8891 38.8678 91.3992 38.8417C90.2206 38.7764 89.042 38.6327 87.8635 38.6066C84.6721 38.5282 81.4939 38.4891 78.3025 38.4238C77.9715 38.4107 77.7993 38.5152 77.6404 38.8156C76.634 40.7746 75.4422 42.6292 74.0915 44.3923C73.8399 44.7188 73.7869 45.2412 73.7075 45.6722C73.3234 48.1014 72.9129 50.5437 72.5819 52.986C72.1713 56.1205 71.9595 59.268 71.986 62.4155C71.9992 64.5052 72.1581 66.5948 72.8335 68.5931C72.9924 69.0502 73.2043 69.5073 73.4823 69.8991C74.2107 70.9309 75.3627 71.0876 76.4089 70.3823C77.2167 69.8338 77.8258 69.1024 78.382 68.3319C79.5738 66.6863 80.5537 64.9101 81.3748 63.0424C81.9044 61.8148 82.3944 60.561 82.9373 59.3464C83.2022 58.7456 83.2154 58.1709 83.1625 57.544C83.0433 56.3425 83.1757 55.1671 83.7186 54.0831C84.2351 53.1297 84.7383 52.9599 85.705 53.2603ZM60.9551 53.0905C60.677 52.9991 60.3857 52.9599 60.1606 52.8293C59.9619 52.6987 59.803 52.4766 59.6574 52.2807C59.2204 51.7061 58.7039 51.3796 57.9359 51.5363C57.1413 51.693 56.5587 52.1632 56.0952 52.777C55.4198 53.6521 54.8901 54.6185 54.4929 55.6503C54.1883 56.447 53.9897 57.2698 54.0956 58.1318C54.1751 58.7064 54.5326 59.046 55.1285 59.0068C55.4596 58.9807 55.8304 58.9023 56.082 58.7195C56.7176 58.2624 57.3929 57.8052 57.8829 57.2175C58.9026 56.0029 59.8295 54.6969 60.783 53.417C60.8624 53.2994 60.9154 53.1688 60.9551 53.0905ZM117.381 52.986C116.679 53.1427 116.334 52.7509 116.017 52.3069C115.99 52.2677 115.977 52.2285 115.95 52.2024C115.527 51.693 115.023 51.4057 114.308 51.5363C113.487 51.693 112.852 52.1632 112.428 52.8162C111.845 53.7043 111.329 54.6447 110.865 55.5981C110.495 56.3817 110.322 57.2306 110.428 58.1056C110.495 58.7064 110.865 59.046 111.461 59.0068C111.792 58.9807 112.163 58.9023 112.415 58.7195C113.064 58.2493 113.739 57.7922 114.242 57.1914C115.249 55.9899 116.162 54.6969 117.102 53.4431C117.208 53.3125 117.261 53.1819 117.381 52.986ZM86.2347 54.0047C86.0096 54.501 85.7447 54.9189 85.6255 55.3891C85.2945 56.5776 85.2283 57.7922 85.4269 59.0068C85.5063 59.4378 85.6917 59.8949 85.9301 60.2606C86.4333 61.0573 87.4265 61.1617 88.168 60.561C88.9493 59.921 89.2936 59.046 89.5717 58.1318C89.7704 57.5179 89.8631 56.878 90.0087 56.2641C87.5059 55.2846 87.5059 55.2846 86.2347 54.0047ZM75.4025 37.7577C75.9984 37.7577 76.5546 37.7707 77.0975 37.7446C77.1902 37.7446 77.3094 37.6271 77.3491 37.5357C78.0244 36.0598 78.6204 34.5579 78.9779 32.9645C79.15 32.1679 79.3354 31.3581 79.0706 30.5484C79.0176 30.3786 78.8587 30.1566 78.6998 30.1174C78.5409 30.0782 78.2893 30.1958 78.1569 30.3264C77.9582 30.5353 77.7993 30.7965 77.6669 31.0577C76.8856 32.4421 76.4089 33.9441 75.9984 35.4721C75.7865 36.2166 75.6011 36.9871 75.4025 37.7577ZM90.022 55.4544C89.969 54.7361 89.9558 54.0961 89.8498 53.4692C89.7042 52.5942 89.5452 51.7061 89.042 50.9486C88.7242 50.4654 88.2343 50.2564 87.784 50.4001C87.4265 50.5176 87.2146 50.9094 87.1881 51.471C87.1352 52.5811 87.5986 53.4953 88.3005 54.3181C88.7242 54.8275 89.2672 55.1671 90.022 55.4544ZM105.343 52.8293C105.37 52.7117 105.41 52.6072 105.423 52.5028C105.489 51.8106 105.568 51.1184 105.608 50.4262C105.621 50.1388 105.542 49.8515 105.449 49.5642C105.33 49.1854 105.052 48.9895 104.721 49.0157C104.337 49.0418 104.125 49.2246 104.085 49.6687C103.966 50.8963 104.496 51.902 105.277 52.8032C105.277 52.8293 105.29 52.8293 105.343 52.8293ZM74.2504 42.8512C74.2901 42.8643 74.3298 42.8773 74.3696 42.8904C75.323 41.5452 76.0249 40.0563 76.8062 38.5805C76.2897 38.5805 75.8527 38.5674 75.4157 38.5935C75.323 38.5935 75.1774 38.7241 75.1509 38.8025C74.8331 40.1608 74.5417 41.506 74.2504 42.8512Z" fill="black"/>
</svg>
