<svg width="280" height="280" viewBox="0 0 280 280" fill="none" xmlns="http://www.w3.org/2000/svg">
<path d="M1.27726 141.184C1.04454 141.21 0.809655 141.159 0.608838 141.038C0.408021 140.918 0.252436 140.734 0.166091 140.517C0.0571429 140.319 0 140.097 0 139.872C0 139.646 0.0571429 139.424 0.166091 139.227C0.252436 139.009 0.408021 138.825 0.608838 138.705C0.809655 138.584 1.04454 138.533 1.27726 138.559H60.2579C60.4967 138.53 60.7385 138.58 60.9469 138.7C61.1553 138.82 61.319 139.005 61.4135 139.227C61.5003 139.43 61.545 139.65 61.545 139.872C61.545 140.093 61.5003 140.313 61.4135 140.517C61.319 140.738 61.1553 140.923 60.9469 141.043C60.7385 141.163 60.4967 141.213 60.2579 141.184H1.27726ZM1.81062 129.04C1.57252 129.034 1.34126 128.959 1.14429 128.825C0.947332 128.691 0.792941 128.503 0.699454 128.284C0.611097 128.088 0.565395 127.876 0.565395 127.661C0.565395 127.446 0.611097 127.234 0.699454 127.038C0.800094 126.837 0.961744 126.673 1.16131 126.569C1.36087 126.465 1.58814 126.427 1.81062 126.46L5.72191 126.772L9.09986 127.083L24.4784 128.417L40.6569 129.841L49.8574 130.686L60.6135 131.62C60.8516 131.627 61.0828 131.701 61.2798 131.835C61.4767 131.969 61.6311 132.157 61.7246 132.376C61.857 132.781 61.857 133.217 61.7246 133.622C61.619 133.819 61.4564 133.979 61.2582 134.083C61.06 134.186 60.8353 134.227 60.6135 134.2L56.9688 133.889L53.3242 133.533L21.7227 130.819L1.81062 129.04ZM53.3242 148.746L21.7227 151.548L1.81062 153.238C1.56393 153.278 1.31133 153.222 1.10469 153.082C0.898045 152.941 0.753044 152.726 0.699454 152.482C0.611097 152.286 0.565395 152.074 0.565395 151.859C0.565395 151.645 0.611097 151.432 0.699454 151.237C0.790812 151.012 0.943499 150.818 1.14002 150.676C1.33655 150.535 1.56895 150.451 1.81062 150.436L9.09986 149.858L26.1673 148.523L40.6125 147.233L60.569 145.498C60.7908 145.472 61.0155 145.513 61.2137 145.616C61.412 145.719 61.5745 145.88 61.6802 146.077C61.8131 146.496 61.8131 146.947 61.6802 147.367C61.5847 147.581 61.4285 147.763 61.2311 147.889C61.0336 148.016 60.8034 148.081 60.569 148.078H59.7245L53.3242 148.746ZM3.05512 116.897C2.47732 116.897 2.16619 116.496 2.12174 116.051C2.08557 115.837 2.0988 115.618 2.16043 115.41C2.22206 115.202 2.33045 115.01 2.47732 114.85C2.6303 114.663 2.82998 114.519 3.05625 114.433C3.28252 114.347 3.52741 114.322 3.76627 114.361L5.27745 114.717C7.14421 114.984 9.05541 115.34 10.9666 115.696L42.0792 121.167L52.7909 123.124L61.6802 124.681C62.258 124.681 62.5691 125.081 62.658 125.526C62.6975 125.957 62.5703 126.387 62.3024 126.727C62.1525 126.903 61.9567 127.033 61.7369 127.104C61.5171 127.175 61.282 127.183 61.0579 127.127H60.3468H59.5023H59.2801H58.7022C57.1022 126.816 55.5021 126.505 53.902 126.282L22.7894 120.722L14.5668 119.299L3.05512 116.897ZM3.94405 165.204C3.70948 165.269 3.46055 165.262 3.23033 165.183C3.0001 165.103 2.79948 164.955 2.6551 164.759C2.50459 164.593 2.39426 164.394 2.33262 164.178C2.27097 163.962 2.25965 163.735 2.29953 163.514C2.29953 163.113 2.6551 162.802 3.23291 162.668L10.2555 161.379L25.3229 158.71L41.457 155.863L61.1913 152.482C61.4231 152.451 61.6591 152.48 61.8768 152.566C62.0945 152.651 62.2869 152.791 62.4358 152.971C62.6923 153.317 62.8182 153.743 62.7913 154.172C62.7913 154.617 62.3913 154.884 61.8135 155.018L58.3911 155.64L54.6132 156.263L39.768 158.888L23.4117 161.823L3.94405 165.204ZM5.81081 105.198C5.59218 105.146 5.39443 105.029 5.24366 104.862C5.09289 104.695 4.99619 104.487 4.96632 104.264C4.92952 104.046 4.93817 103.823 4.99171 103.608C5.04526 103.394 5.14254 103.193 5.27745 103.018C5.42175 102.836 5.61938 102.704 5.84259 102.64C6.06579 102.576 6.30337 102.584 6.52195 102.662L13.6334 104.575L29.1897 108.712L44.1682 112.76L63.5025 117.964C63.7299 118.017 63.9381 118.132 64.1031 118.297C64.2682 118.462 64.3835 118.671 64.4359 118.898C64.4793 119.112 64.4696 119.334 64.4076 119.543C64.3456 119.753 64.2332 119.944 64.0803 120.099C63.9432 120.278 63.7534 120.408 63.5379 120.472C63.3224 120.536 63.0922 120.53 62.8802 120.455L55.7688 118.587L43.5015 115.295L25.1451 110.358L15.5446 107.733L5.81081 105.198ZM62.7024 159.243C62.916 159.191 63.1396 159.197 63.3504 159.259C63.5612 159.322 63.7517 159.439 63.9025 159.599C64.056 159.764 64.1682 159.963 64.2301 160.179C64.2919 160.396 64.3015 160.624 64.2581 160.845C64.2057 161.072 64.0904 161.281 63.9253 161.446C63.7603 161.611 63.5521 161.726 63.3247 161.779L59.8134 162.757L56.2132 163.647L49.4574 165.471L25.6784 171.876C22.7005 172.632 19.7226 173.433 16.7891 174.278L6.34417 177.081C6.12026 177.141 5.88354 177.136 5.66267 177.065C5.4418 176.994 5.24624 176.86 5.09967 176.68C4.96333 176.515 4.86483 176.322 4.81108 176.114C4.75733 175.907 4.74963 175.69 4.78854 175.479C4.81841 175.256 4.91511 175.048 5.06587 174.881C5.21664 174.714 5.41439 174.597 5.63302 174.545L9.01097 173.611L12.7445 172.632L43.3237 164.448L52.8353 161.823L62.7024 159.243ZM9.36654 93.6326C9.14637 93.5546 8.9515 93.4182 8.80276 93.238C8.65402 93.0578 8.55699 92.8406 8.52205 92.6095C8.48315 92.3987 8.49084 92.182 8.54459 91.9745C8.59834 91.767 8.69685 91.5738 8.83318 91.4085C8.97991 91.2297 9.18285 91.106 9.40887 91.0576C9.63489 91.0091 9.87065 91.0387 10.0777 91.1416L13.5445 92.3871L17.0113 93.6326L38.7457 101.55L46.7017 104.442L65.5026 111.336C65.7019 111.446 65.8686 111.607 65.9857 111.802C66.1028 111.998 66.1661 112.221 66.1693 112.448C66.2261 112.874 66.1144 113.305 65.8582 113.649C65.7069 113.822 65.5042 113.941 65.28 113.989C65.0559 114.037 64.8222 114.012 64.6136 113.916L58.7911 111.826L57.7244 111.425C47.7684 107.807 37.8568 104.175 27.9897 100.527L9.36654 93.6326ZM64.747 165.827C64.962 165.75 65.1949 165.738 65.4164 165.794C65.6379 165.849 65.838 165.969 65.9915 166.138C66.1228 166.306 66.2182 166.5 66.2718 166.706C66.3253 166.913 66.3358 167.128 66.3026 167.339C66.255 167.572 66.1482 167.788 65.9925 167.968C65.8367 168.147 65.6374 168.283 65.4137 168.362L62.0802 169.563L58.5245 170.853L55.991 171.832L28.8341 181.751C24.7895 183.219 20.7449 184.643 16.7002 186.199L9.98879 188.646C9.78175 188.749 9.54599 188.778 9.31997 188.73C9.09395 188.681 8.89102 188.558 8.74428 188.379C8.60521 188.215 8.50497 188.022 8.45109 187.814C8.39721 187.606 8.39108 187.389 8.43316 187.178C8.46043 186.939 8.55396 186.712 8.70319 186.524C8.85242 186.335 9.0514 186.192 9.27764 186.11L13.7223 184.554L16.3002 183.619L31.1454 178.237L46.035 172.766L55.4132 169.385L64.747 165.827ZM13.589 82.3342C13.3769 82.2562 13.1923 82.1178 13.058 81.936C12.9237 81.7541 12.8456 81.5369 12.8334 81.3111C12.8553 81.0939 12.9268 80.8847 13.0424 80.6996C13.158 80.5144 13.3146 80.3584 13.5001 80.2435C13.7095 80.1225 13.9471 80.0588 14.189 80.0588C14.4309 80.0588 14.6685 80.1225 14.8779 80.2435L20.0337 82.6455L21.5005 83.3573L35.8123 90.0295C40.6125 92.2536 45.3683 94.4777 50.1685 96.7018L68.3027 105.198C68.509 105.274 68.6853 105.415 68.8054 105.599C68.9255 105.783 68.983 106.001 68.9694 106.221C68.9149 106.659 68.6916 107.058 68.3472 107.333C68.1431 107.446 67.9137 107.505 67.6805 107.505C67.4472 107.505 67.2179 107.446 67.0138 107.333L66.1693 106.888L60.3023 104.175C55.4576 101.951 50.6574 99.7266 45.9016 97.458L31.5898 90.8302C30.9305 90.4595 30.2475 90.1326 29.5453 89.8516L13.589 82.3342ZM66.9249 172.455C67.126 172.333 67.3565 172.269 67.5916 172.269C67.8266 172.269 68.0571 172.333 68.2583 172.455C68.5929 172.719 68.8152 173.1 68.8805 173.522C68.8932 173.753 68.8364 173.982 68.7176 174.18C68.5987 174.379 68.4233 174.537 68.2138 174.634L61.7246 177.792L46.7461 184.776C42.3015 186.956 37.6346 189.224 33.0121 191.226L29.1008 193.05L14.9224 199.677C14.7103 199.79 14.4737 199.849 14.2334 199.849C13.9932 199.849 13.7566 199.79 13.5445 199.677C13.3601 199.551 13.205 199.386 13.09 199.194C12.9749 199.002 12.9026 198.788 12.8778 198.565C12.8642 198.346 12.9218 198.128 13.0419 197.943C13.162 197.759 13.3382 197.618 13.5445 197.542L16.7447 196.03L20.256 194.429L46.9239 181.974L48.8796 181.039L62.2135 174.945L66.9249 172.455ZM19.1892 71.5696C18.9798 71.4758 18.8062 71.317 18.6941 71.1167C18.582 70.9164 18.5374 70.6852 18.567 70.4575C18.5971 70.2366 18.6717 70.0242 18.7863 69.833C18.9009 69.6418 19.0531 69.476 19.2337 69.3455C19.415 69.2151 19.6327 69.145 19.8559 69.145C20.0792 69.145 20.2968 69.2151 20.4782 69.3455L26.8785 73.082L46.1239 84.1579L54.302 88.9175L59.6801 92.0312L71.5918 98.8814C71.8012 98.9789 71.9767 99.1369 72.0955 99.3352C72.2143 99.5334 72.2711 99.7627 72.2585 99.9935C72.2419 100.213 72.1776 100.426 72.0701 100.618C71.9626 100.81 71.8145 100.977 71.6362 101.106C71.4439 101.25 71.2099 101.328 70.9695 101.328C70.7291 101.328 70.4951 101.25 70.3028 101.106L66.6582 99.1039L63.9025 97.5025L36.5678 81.7114L27.9008 76.685L19.1892 71.5696ZM70.3028 178.637C70.5002 178.506 70.7322 178.435 70.9695 178.435C71.2068 178.435 71.4389 178.506 71.6362 178.637C71.8112 178.759 71.9576 178.918 72.0651 179.103C72.1725 179.287 72.2385 179.493 72.2585 179.705C72.2804 179.943 72.2281 180.182 72.1087 180.389C71.9893 180.596 71.8087 180.761 71.5918 180.862C70.6 181.492 69.5763 182.071 68.5249 182.596L65.2803 184.554C61.2357 186.867 57.1911 189.002 53.1909 191.537L37.8568 200.434L32.7899 203.325L20.4782 210.309C20.289 210.418 20.0744 210.475 19.8559 210.475C19.6375 210.475 19.4229 210.418 19.2337 210.309C19.0492 210.182 18.8942 210.017 18.7791 209.825C18.6641 209.633 18.5917 209.419 18.567 209.197C18.5443 208.97 18.5918 208.741 18.7031 208.542C18.8144 208.344 18.9841 208.184 19.1892 208.084L25.5895 204.348L52.8353 188.601L70.3028 178.637ZM25.8562 61.3387C25.6713 61.2016 25.525 61.0189 25.4316 60.8085C25.3381 60.598 25.3007 60.367 25.3229 60.1377C25.3475 59.9203 25.4152 59.7099 25.5221 59.519C25.6289 59.328 25.7727 59.1603 25.9451 59.0257C26.1309 58.9068 26.3468 58.8437 26.5674 58.8437C26.7879 58.8437 27.0038 58.9068 27.1896 59.0257L33.2344 63.2515L51.7241 76.2402L58.9689 81.3111L75.3697 92.7874C75.5698 92.9231 75.7292 93.1107 75.831 93.3301C75.9328 93.5495 75.973 93.7924 75.9475 94.0329C75.8886 94.4692 75.6662 94.8667 75.3253 95.145C75.1439 95.2753 74.9263 95.3454 74.703 95.3454C74.4798 95.3454 74.2621 95.2753 74.0808 95.145C73.2363 94.5667 72.4362 94.0329 71.6807 93.4547L68.036 90.9192L55.0576 82.0228L42.1237 72.904L25.8562 61.3387ZM74.0808 184.509C74.2593 184.372 74.478 184.298 74.703 184.298C74.928 184.298 75.1467 184.372 75.3253 184.509C75.5003 184.631 75.6467 184.79 75.7541 184.974C75.8616 185.159 75.9276 185.364 75.9475 185.577C75.9649 185.81 75.9206 186.044 75.8192 186.255C75.7178 186.465 75.5628 186.646 75.3697 186.778L71.1473 189.758L69.325 191.003L56.3466 199.9L43.4126 209.019L27.0118 220.45C26.8333 220.588 26.6146 220.662 26.3896 220.662C26.1646 220.662 25.9458 220.588 25.7673 220.45C25.4292 220.189 25.206 219.806 25.1451 219.383C25.1229 219.154 25.1603 218.923 25.2538 218.712C25.3472 218.502 25.4935 218.319 25.6784 218.182L28.7008 216.002L31.7676 213.912C36.2123 210.887 40.3903 207.862 44.7016 205.015L57.68 196.119L70.3028 187.222L74.0808 184.509ZM78.0365 190.247C78.2118 190.083 78.4296 189.971 78.6652 189.924C78.9008 189.876 79.1449 189.896 79.3699 189.98C79.565 190.061 79.7409 190.182 79.8864 190.336C80.0318 190.489 80.1436 190.671 80.2144 190.87C80.2965 191.081 80.3061 191.314 80.2417 191.531C80.1774 191.749 80.0427 191.939 79.8588 192.071L78.9699 192.827L74.2586 196.964L54.5243 213.511L50.0796 217.381L42.3015 223.653C39.7236 225.833 37.1901 228.101 34.7011 230.148C34.4902 230.264 34.2532 230.326 34.0122 230.326C33.7712 230.326 33.5341 230.264 33.3233 230.148C33.1243 230.077 32.9424 229.965 32.7893 229.819C32.6362 229.674 32.5153 229.498 32.4343 229.302C32.3626 229.083 32.3582 228.847 32.4215 228.625C32.4849 228.403 32.6132 228.205 32.7899 228.057L38.4791 223.609L62.7024 203.191L78.0365 190.247ZM32.7899 51.5082C32.6169 51.367 32.4905 51.1768 32.4271 50.9626C32.3636 50.7484 32.3662 50.52 32.4343 50.3072C32.5148 50.1066 32.6351 49.9243 32.7878 49.7714C32.9406 49.6185 33.1227 49.4981 33.3233 49.4176C33.5557 49.3344 33.8063 49.3154 34.0487 49.3623C34.2911 49.4093 34.5164 49.5205 34.7011 49.6845L38.3902 52.8427L40.3014 54.444L64.5247 74.7723L79.8588 87.672C80.0427 87.8045 80.1774 87.9943 80.2417 88.2117C80.3061 88.4291 80.2965 88.6617 80.2144 88.873C80.1518 89.0765 80.043 89.2627 79.8965 89.417C79.75 89.5714 79.5697 89.6897 79.3699 89.7627C79.1449 89.847 78.9008 89.8667 78.6652 89.8195C78.4296 89.7723 78.2118 89.6602 78.0365 89.4958L75.0586 87.1382C74.1104 86.3969 73.177 85.5962 72.2585 84.7362L54.0798 69.5234L48.3906 64.408L32.7899 51.5082ZM55.0132 56.8016L49.5463 51.2413C46.7461 48.3945 43.946 45.7256 41.0125 42.6118C40.8307 42.4674 40.6986 42.2696 40.6348 42.0463C40.571 41.8229 40.5788 41.5851 40.6569 41.3664C40.8182 40.9496 41.1378 40.6138 41.5459 40.4322C41.7717 40.3569 42.0149 40.3505 42.2445 40.4139C42.474 40.4772 42.6795 40.6075 42.8348 40.7881L45.6794 43.6349L48.0351 45.9925L70.2584 68.2334L77.2809 75.3505L84.3924 82.4231C84.5605 82.5869 84.6788 82.795 84.7339 83.0232C84.7889 83.2515 84.7784 83.4906 84.7035 83.7131C84.5289 84.1105 84.2117 84.428 83.8146 84.6028C83.6004 84.686 83.3658 84.7007 83.1429 84.645C82.92 84.5892 82.7199 84.4657 82.5701 84.2914L77.3254 79.0425L55.0132 56.8016ZM82.6145 195.318C82.7713 195.154 82.9714 195.037 83.1917 194.982C83.412 194.927 83.6434 194.936 83.859 195.007C84.2561 195.182 84.5733 195.499 84.748 195.896C84.8266 196.126 84.8391 196.372 84.7841 196.608C84.729 196.844 84.6087 197.06 84.4368 197.231L79.5033 202.346L69.9028 211.999L57.1466 224.765L42.9682 238.999C42.7971 239.156 42.5871 239.263 42.3603 239.31C42.1335 239.357 41.8982 239.342 41.6792 239.266C41.4744 239.193 41.2884 239.075 41.1347 238.922C40.9809 238.768 40.8633 238.582 40.7903 238.377C40.715 238.151 40.7086 237.907 40.7719 237.678C40.8352 237.448 40.9654 237.242 41.1459 237.087L46.3461 231.882L51.9464 226.322L68.6583 209.508L74.1252 204.037L82.6145 195.318ZM87.7259 200.033C87.8507 199.853 88.0326 199.72 88.2421 199.655C88.4517 199.591 88.6769 199.598 88.8815 199.677C89.2874 199.832 89.6205 200.134 89.8149 200.523C89.8979 200.755 89.917 201.006 89.8701 201.249C89.8232 201.491 89.712 201.717 89.5482 201.902L87.5481 204.304L84.7924 207.506C80.8811 212.266 76.8809 216.981 72.8807 221.785L64.4803 231.749L58.1689 239.311L51.5908 247.14C51.446 247.308 51.2559 247.431 51.0431 247.494C50.8303 247.557 50.6038 247.558 50.3907 247.495C50.1909 247.422 50.0107 247.304 49.8642 247.15C49.7177 246.995 49.6088 246.809 49.5463 246.606C49.46 246.391 49.4351 246.157 49.4744 245.929C49.5136 245.701 49.6155 245.489 49.7685 245.316L51.4575 243.225L54.4798 239.622C61.295 231.556 68.0805 223.475 74.8364 215.38L81.2811 207.684L87.7259 200.033ZM62.7913 49.7734C60.6579 47.1935 58.3467 44.658 56.3466 42.1226L49.9018 34.4272C49.7533 34.2426 49.6549 34.0228 49.6159 33.7891C49.577 33.5554 49.5989 33.3155 49.6796 33.0927C49.7355 32.8859 49.8419 32.6963 49.9894 32.541C50.1368 32.3857 50.3206 32.2695 50.5241 32.2031C50.7361 32.1283 50.9662 32.1225 51.1817 32.1864C51.3972 32.2503 51.5871 32.3807 51.7241 32.5589C53.1909 34.2493 54.5687 35.9396 56.1688 37.6299L56.6577 38.2081L72.3473 56.935L76.792 62.4508L83.2368 70.1461L89.6815 77.8415C89.8467 78.0071 89.96 78.2175 90.0073 78.4466C90.0547 78.6758 90.0342 78.9139 89.9482 79.1315C89.8605 79.335 89.7326 79.5188 89.5722 79.6716C89.4118 79.8245 89.2222 79.9434 89.0148 80.0211C88.8102 80.1001 88.5851 80.1079 88.3755 80.0434C88.1659 79.9788 87.9841 79.8457 87.8592 79.6653L86.0369 77.5746C85.1035 76.4181 84.1257 75.2171 83.1034 74.0606L78.6588 68.5448C73.2363 62.2728 68.036 56.0009 62.7913 49.7734ZM70.8362 43.1901L59.2801 26.7763C59.1536 26.6017 59.0854 26.3915 59.0854 26.1758C59.0854 25.9601 59.1536 25.7499 59.2801 25.5753C59.3992 25.3839 59.5621 25.2237 59.7553 25.1077C59.9485 24.9917 60.1664 24.9233 60.3912 24.9081C60.6277 24.8727 60.8694 24.904 61.0891 24.9982C61.3089 25.0925 61.4982 25.2461 61.6357 25.4418L63.6803 28.4666L65.7693 31.5359C71.9621 40.1654 78.0217 48.8097 83.9479 57.4688C85.9925 60.3156 87.9926 63.207 89.9926 66.0983L95.4596 73.8826C95.58 74.0597 95.6443 74.2689 95.6443 74.4831C95.6443 74.6973 95.58 74.9066 95.4596 75.0836C95.3451 75.2658 95.1883 75.4176 95.0026 75.526C94.8169 75.6345 94.6077 75.6964 94.3929 75.7064C94.1561 75.7471 93.9126 75.7184 93.6917 75.6237C93.4709 75.529 93.2822 75.3723 93.1484 75.1726L91.7261 73.082L88.9259 69.1675C85.9036 64.7194 82.9256 60.4936 80.0366 56.1343C77.1476 51.7751 73.8141 47.5049 70.8362 43.1901V43.1901ZM93.0595 204.57C93.1856 204.358 93.3699 204.187 93.5905 204.077C93.8111 203.966 94.0587 203.921 94.304 203.948C94.5192 203.976 94.7259 204.05 94.91 204.165C95.0941 204.28 95.2512 204.434 95.3707 204.615C95.4894 204.801 95.5525 205.017 95.5525 205.238C95.5525 205.458 95.4894 205.674 95.3707 205.86L93.2372 208.885L91.1483 211.865C88.3926 215.869 85.5924 219.872 82.7479 223.876L72.9696 237.798L70.1695 241.846L61.7246 254.212C61.5911 254.417 61.4054 254.583 61.1867 254.692C60.968 254.802 60.7241 254.851 60.4801 254.835C60.2608 254.818 60.0477 254.754 59.8558 254.646C59.6639 254.539 59.4977 254.391 59.3689 254.212C59.2409 254.022 59.1725 253.797 59.1725 253.567C59.1725 253.337 59.2409 253.113 59.3689 252.922L61.1468 250.431L63.6358 246.917L77.7254 226.722L81.77 220.984L93.0595 204.57ZM79.5033 37.6299L69.4583 20.3264C69.328 20.1201 69.2588 19.881 69.2588 19.637C69.2588 19.3929 69.328 19.1538 69.4583 18.9475C69.5894 18.775 69.757 18.6337 69.9491 18.5337C70.1413 18.4337 70.3531 18.3775 70.5695 18.3692C70.8026 18.3519 71.0362 18.3962 71.2468 18.4977C71.4575 18.5991 71.6377 18.7543 71.7695 18.9475C72.0362 19.5257 72.3918 20.1485 72.7474 20.7712L75.4142 25.2194L79.5033 32.6924L91.1038 52.7537L97.2819 63.5183C98.5264 65.7424 99.8153 67.9665 101.104 70.1017C101.249 70.2942 101.327 70.5283 101.327 70.7689C101.327 71.0095 101.249 71.2436 101.104 71.4361C100.982 71.6113 100.824 71.7578 100.64 71.8653C100.455 71.9729 100.25 72.0389 100.038 72.0589C99.7997 72.0809 99.5608 72.0285 99.3538 71.909C99.1469 71.7895 98.982 71.6088 98.882 71.3916C97.6819 69.301 96.4374 67.2103 95.2373 65.0752C90.3038 56.5347 85.3258 47.9497 80.3922 39.3202C80.17 38.7864 79.8588 38.2081 79.5033 37.6299ZM98.9709 208.307C99.0666 208.089 99.2323 207.909 99.4416 207.797C99.651 207.684 99.892 207.644 100.126 207.684C100.339 207.704 100.544 207.77 100.729 207.878C100.913 207.985 101.071 208.132 101.193 208.307C101.334 208.492 101.41 208.719 101.41 208.952C101.41 209.185 101.334 209.411 101.193 209.597L97.5041 215.958L91.0594 227.167L81.6811 243.403C81.0144 244.56 80.3477 245.672 79.7255 246.873C77.0291 251.499 74.3623 256.125 71.7251 260.751C71.6 260.944 71.4288 261.102 71.227 261.212C71.0252 261.322 70.7991 261.379 70.5695 261.379C70.3398 261.379 70.1138 261.322 69.912 261.212C69.7102 261.102 69.5389 260.944 69.4139 260.751C69.2858 260.56 69.2175 260.336 69.2175 260.106C69.2175 259.876 69.2858 259.652 69.4139 259.461L71.2362 256.303L73.0585 253.056L87.1481 228.769C87.7259 227.701 88.3481 226.678 88.8815 225.61C90.5705 222.764 92.2594 219.872 93.9039 216.936C95.5485 214.001 97.2819 211.198 99.0153 208.307H98.9709ZM88.7037 32.8258L85.0591 25.0415L80.2588 14.5883C80.1379 14.3786 80.0742 14.1408 80.0742 13.8988C80.0742 13.6567 80.1379 13.4189 80.2588 13.2093C80.3804 13.0299 80.5381 12.8779 80.7218 12.763C80.9055 12.6481 81.1111 12.5729 81.3256 12.5421C81.555 12.5359 81.7808 12.601 81.9718 12.7285C82.1628 12.8559 82.3097 13.0394 82.3923 13.2538L83.9479 16.5899C84.4813 17.6575 84.9702 18.7696 85.5035 19.9261L89.726 28.8225L98.8375 48.439C101.727 54.622 104.571 60.8494 107.416 66.899C107.537 67.1003 107.602 67.331 107.602 67.5662C107.602 67.8014 107.537 68.0321 107.416 68.2334C107.141 68.5782 106.742 68.8017 106.305 68.8562C106.085 68.8698 105.867 68.8122 105.683 68.692C105.499 68.5718 105.358 68.3954 105.282 68.1889L103.149 63.7407C102.838 63.029 102.527 62.2728 102.171 61.6056C99.9487 56.8016 97.7264 52.042 95.4596 47.2825L88.7037 32.8258ZM83.3701 258.393L90.0371 243.981C92.3039 239.222 94.4817 234.462 96.7485 229.658C96.9045 229.419 97.0831 229.196 97.2819 228.991L105.416 211.465C105.504 211.271 105.649 211.108 105.831 210.997C106.014 210.886 106.225 210.832 106.438 210.842C106.875 210.897 107.274 211.12 107.549 211.465C107.67 211.675 107.734 211.913 107.734 212.155C107.734 212.397 107.67 212.634 107.549 212.844C107.016 213.956 106.527 215.024 106.038 216.18C105.549 217.337 105.016 218.36 104.482 219.516C102.215 224.276 100.038 229.035 97.7708 233.84C95.504 238.644 93.3261 243.403 91.0594 248.163C89.6815 251.187 88.2592 254.257 86.8369 257.059C85.4146 259.861 84.0368 263.064 82.6145 265.955C82.5289 266.161 82.3783 266.334 82.1857 266.446C81.9932 266.559 81.7691 266.605 81.5478 266.578C81.1302 266.533 80.747 266.325 80.4811 266C80.3595 265.799 80.2953 265.568 80.2953 265.333C80.2953 265.097 80.3595 264.867 80.4811 264.665C81.4589 262.53 82.3923 260.217 83.4145 258.305C83.4018 258.335 83.387 258.365 83.3701 258.393V258.393ZM132.261 87.2717C132.922 87.1537 133.591 87.0794 134.261 87.0493H135.595H136.839H138.884H141.506H143.506H144.84H146.129C146.8 87.0794 147.468 87.1537 148.129 87.2717L149.373 87.4941L150.707 87.761L152.707 88.1168L153.951 88.4727L155.196 88.873C155.857 89.0307 156.51 89.2238 157.151 89.4513L158.352 89.8961L159.507 90.2075C160.148 90.4283 160.772 90.696 161.374 91.0081L162.618 91.5419C163.025 91.6894 163.412 91.8835 163.774 92.1202L165.552 93.0098L166.707 93.6771L167.819 94.3443C168.396 94.6557 168.974 95.056 169.508 95.4119C169.895 95.6381 170.266 95.8908 170.619 96.168L171.685 96.9242C172.219 97.3246 172.797 97.7249 173.286 98.1697L174.263 99.0149L175.241 99.8601L176.752 101.239L177.73 102.129L178.619 103.063C179.108 103.552 179.553 104.041 179.997 104.575C180.441 105.109 180.53 105.242 180.841 105.554L181.642 106.577L182.93 108.134C183.193 108.487 183.431 108.859 183.642 109.246L184.353 110.269C184.753 110.847 185.108 111.425 185.464 112.004C185.742 112.362 185.981 112.75 186.175 113.16C186.409 113.515 186.617 113.887 186.797 114.272L187.775 116.096L188.264 117.252C188.492 117.635 188.686 118.037 188.842 118.453C189.109 119.017 189.375 119.64 189.642 120.322C189.642 120.722 189.909 121.122 190.086 121.567L190.486 122.724L191.153 124.681C191.153 125.126 191.153 125.526 191.464 125.926C191.775 126.327 191.686 126.816 191.775 127.216C191.864 127.617 192.131 128.551 192.264 129.263C192.289 129.677 192.289 130.093 192.264 130.508L192.531 131.798C192.531 132.421 192.531 133.132 192.798 133.8V135.134C192.821 135.534 192.821 135.935 192.798 136.335V138.426V141.05V143.052C192.798 143.497 192.798 143.942 192.798 144.386V145.676L192.531 147.678L192.264 148.924C192.289 149.353 192.289 149.784 192.264 150.214C192.264 150.881 191.953 151.548 191.775 152.26C191.598 152.971 191.775 153.06 191.464 153.505C191.387 153.912 191.283 154.313 191.153 154.706L190.486 156.663L190.086 157.909C189.912 158.314 189.763 158.73 189.642 159.154L188.842 161.067C188.676 161.466 188.483 161.852 188.264 162.224L187.775 163.38C187.464 164.003 187.108 164.581 186.797 165.159C186.486 165.738 186.397 165.916 186.175 166.316C185.953 166.716 185.686 167.072 185.464 167.428L184.353 169.207L183.508 170.275L182.797 171.342L181.508 172.944L180.708 173.922L179.864 174.901C179.419 175.435 178.975 175.924 178.486 176.413C178.213 176.76 177.916 177.087 177.597 177.392L176.619 178.282L175.108 179.661L174.13 180.506L173.152 181.351L171.552 182.596L170.485 183.308L169.374 184.109L167.685 185.132L166.574 185.844L165.419 186.422C164.851 186.791 164.256 187.118 163.641 187.4L162.485 188.023L161.241 188.512L159.507 189.402L158.307 189.847L157.107 190.247L155.151 190.914L153.907 191.226L152.662 191.537L150.662 191.982L149.329 192.249L147.951 192.516L145.951 192.783H144.662H143.329H141.328H138.706H136.662H135.417H134.084L132.084 192.516L130.795 192.293L129.461 192.027L127.506 191.582L126.217 191.27L124.972 190.959L123.016 190.292L121.816 189.891L120.616 189.447L118.75 188.646L117.55 188.068L116.394 187.445C115.768 187.153 115.16 186.827 114.572 186.466L113.46 185.888L112.305 185.176L110.616 184.198L109.505 183.619L108.438 182.908C107.949 182.463 107.371 182.063 106.838 181.662L105.86 180.817L104.882 179.972L103.371 178.593L102.482 177.703C102.187 177.332 101.933 176.929 101.727 176.502L100.304 174.99L99.4598 174.011L98.6597 173.033L97.2819 171.431L96.4818 170.275C96.2192 169.921 95.9816 169.55 95.7707 169.163C95.3707 168.629 95.0151 168.051 94.6595 167.473L93.9928 166.36L93.3261 165.204C93.015 164.626 92.6594 164.047 92.3483 163.425L91.8594 162.268L91.326 161.379C91.0149 160.711 90.7482 160.089 90.526 159.466C90.3038 158.843 90.2149 158.621 90.0815 158.22C89.9068 157.815 89.7584 157.399 89.6371 156.975C89.4148 156.352 89.2371 155.685 89.0593 155.018L88.6592 153.817C88.6002 153.366 88.5111 152.92 88.3926 152.482C88.3926 151.77 88.0814 151.103 87.9037 150.436C87.7259 149.769 87.9037 149.591 87.9037 149.146C87.879 148.731 87.879 148.315 87.9037 147.9C87.7712 147.24 87.6821 146.571 87.637 145.899C87.5953 145.47 87.5953 145.038 87.637 144.609V143.274C87.637 142.607 87.637 141.895 87.637 141.273V138.648C87.637 137.981 87.637 137.269 87.637 136.558C87.637 135.846 87.637 135.712 87.637 135.357C87.5933 134.913 87.5933 134.466 87.637 134.022C87.6791 133.349 87.7682 132.681 87.9037 132.02C87.8791 131.591 87.8791 131.16 87.9037 130.73C87.9037 130.286 87.9037 129.885 87.9037 129.485C87.9037 129.085 88.2592 128.106 88.3926 127.439C88.5223 127.016 88.6262 126.585 88.7037 126.149L89.1037 124.903C89.1037 124.281 89.4593 123.613 89.6815 122.946C89.8102 122.553 89.9585 122.167 90.126 121.79C90.126 121.345 90.4371 120.944 90.5705 120.544C90.7829 119.899 91.0506 119.274 91.3705 118.676L91.9039 117.475L92.3928 116.318L93.3706 114.495L94.0373 113.383L94.704 112.226C95.0596 111.648 95.4151 111.069 95.8151 110.491L96.5263 109.468L97.2819 108.356L98.5264 106.799L99.3264 105.776C99.6376 105.465 99.9042 105.109 100.171 104.798L101.593 103.285L102.527 102.351L103.416 101.461L104.927 100.082L105.905 99.2373L106.882 98.3921L108.482 97.1467L109.549 96.3905L110.616 95.5453C111.149 95.1894 111.727 94.7891 112.305 94.4777L113.46 93.8105L114.572 93.1433L116.394 92.2536C116.765 92.0344 117.151 91.8412 117.55 91.6754L118.75 91.1416C119.351 90.8294 119.975 90.5618 120.616 90.3409L121.816 89.8961L123.016 89.4513C123.658 89.2238 124.31 89.0307 124.972 88.873L126.217 88.4727L127.506 88.1168L129.461 87.761L130.795 87.4941L132.261 87.2717ZM98.1708 28.6001C96.4374 23.7515 94.6595 18.9475 92.8817 14.1879L91.326 9.73973C91.2309 9.53101 91.2054 9.29716 91.2534 9.07282C91.3015 8.84849 91.4204 8.64561 91.5927 8.49424C91.9324 8.22619 92.362 8.09882 92.7928 8.13839C93.0253 8.186 93.2416 8.29292 93.4207 8.44878C93.5998 8.60465 93.7356 8.80418 93.8151 9.02802C94.2151 10.229 94.6595 11.3411 95.0596 12.4976C95.4596 13.6541 95.904 14.8107 96.3485 15.9227C99.1486 23.7515 101.993 31.5359 104.793 39.3202L107.149 45.7256C107.46 46.4818 107.727 47.2825 107.994 48.0831L113.994 64.5414C114.093 64.7419 114.121 64.9706 114.073 65.1891C114.024 65.4077 113.902 65.603 113.727 65.7424C113.564 65.8841 113.373 65.9892 113.166 66.0506C112.959 66.1119 112.741 66.1282 112.527 66.0983C112.295 66.0507 112.078 65.9438 111.899 65.7879C111.72 65.632 111.584 65.4325 111.505 65.2087L108.971 58.314C106.616 51.9086 104.304 45.5032 101.993 39.1423C100.704 35.6282 99.4153 32.1141 98.1708 28.6001ZM111.505 222.096L107.593 232.55L100.66 251.721L97.7708 259.728C96.4819 263.331 95.1484 266.934 93.8151 270.537C93.7439 270.766 93.6107 270.97 93.4301 271.127C93.2496 271.284 93.0289 271.388 92.7928 271.427C92.5822 271.466 92.3656 271.458 92.1583 271.404C91.9509 271.35 91.7579 271.252 91.5927 271.115C91.4177 270.976 91.2957 270.781 91.2472 270.562C91.1987 270.343 91.2265 270.115 91.326 269.914L93.5484 263.776L93.8151 263.02C95.6374 258.038 97.4152 253.056 99.1931 248.074C100.971 243.092 102.838 238.154 104.616 233.217L108.082 223.831C109.194 220.673 110.349 217.515 111.505 214.401C111.576 214.172 111.709 213.968 111.89 213.811C112.07 213.654 112.291 213.55 112.527 213.511C112.952 213.454 113.383 213.566 113.727 213.823C113.903 213.981 114.024 214.192 114.072 214.424C114.12 214.656 114.092 214.897 113.994 215.113C113.727 215.869 113.46 216.625 113.149 217.381C112.572 219.205 112.038 220.539 111.505 222.096ZM105.327 274.318C105.267 274.537 105.149 274.736 104.984 274.893C104.82 275.05 104.615 275.159 104.393 275.208C104.183 275.253 103.965 275.249 103.756 275.195C103.548 275.141 103.355 275.038 103.193 274.896C103.017 274.748 102.888 274.55 102.825 274.328C102.762 274.106 102.766 273.87 102.838 273.651C103.371 271.738 103.86 269.825 104.349 267.913L104.749 266.534C105.682 262.931 106.66 259.372 107.593 255.814C109.371 249.141 111.149 242.513 112.927 235.93C114.394 230.503 115.816 225.077 117.372 219.65C117.594 218.582 117.861 217.559 118.127 216.581C118.171 216.354 118.285 216.146 118.452 215.986C118.619 215.827 118.832 215.724 119.061 215.691C119.278 215.648 119.503 215.654 119.718 215.708C119.933 215.762 120.133 215.862 120.305 216.002C120.496 216.15 120.634 216.355 120.699 216.588C120.763 216.82 120.749 217.068 120.661 217.292C120.039 219.65 119.372 222.007 118.794 224.365C115.994 234.596 113.283 244.782 110.616 254.79C109.771 258.038 108.882 261.24 108.038 264.532L105.327 274.318ZM107.994 25.4418V24.8191C106.305 18.5472 104.616 12.3197 102.971 6.09222C102.893 5.87346 102.885 5.6357 102.949 5.41231C103.013 5.18893 103.145 4.99114 103.327 4.84673C103.492 4.70975 103.684 4.60764 103.89 4.5465C104.097 4.48535 104.313 4.46643 104.527 4.49087C104.751 4.53494 104.958 4.64205 105.123 4.79963C105.288 4.95721 105.405 5.15872 105.46 5.38051C106.127 7.78253 106.749 10.1401 107.416 12.4976L115.549 43.1012L120.75 62.4508C120.835 62.6687 120.846 62.9086 120.782 63.1337C120.718 63.3587 120.582 63.5564 120.394 63.6963C120.23 63.8499 120.031 63.9622 119.815 64.0241C119.598 64.0859 119.37 64.0956 119.15 64.0521C118.705 64.0521 118.394 63.7408 118.216 63.118L117.327 59.6039C117.016 58.4029 116.661 57.2464 116.349 56.0009L113.327 44.658L107.994 25.4418ZM118.172 23.2177C116.972 16.6344 115.816 9.87318 114.616 3.51227C114.582 3.26677 114.609 3.01667 114.694 2.78398C114.779 2.55128 114.92 2.34313 115.105 2.17781C115.28 2.0428 115.48 1.94543 115.695 1.89185C115.909 1.83826 116.132 1.82961 116.349 1.86644C116.565 1.92379 116.76 2.04255 116.91 2.20834C117.06 2.37412 117.158 2.57983 117.194 2.80056L117.816 6.67049L118.483 10.0066C120.305 20.4154 122.128 30.7797 123.95 41.1439C124.972 47.0156 126.039 52.8872 127.061 58.9367C127.061 59.6039 127.061 60.3156 127.417 61.0274C127.463 61.2491 127.446 61.4796 127.368 61.6921C127.289 61.9046 127.152 62.0905 126.972 62.2284C126.813 62.3779 126.623 62.4911 126.416 62.5603C126.209 62.6294 125.989 62.6527 125.772 62.6287C125.328 62.6287 125.061 62.2284 124.928 61.6501L124.261 58.0916L123.639 54.622C122.705 49.3731 121.816 44.1687 120.883 38.9199C119.95 33.671 119.061 28.3776 118.172 23.2177V23.2177ZM117.194 276.765C117.194 277.343 116.749 277.654 116.349 277.699C116.132 277.735 115.909 277.727 115.695 277.673C115.48 277.62 115.28 277.522 115.105 277.387C114.917 277.234 114.774 277.034 114.688 276.808C114.602 276.581 114.577 276.336 114.616 276.097C114.616 275.297 114.972 274.451 115.105 273.562C115.238 272.672 115.683 270.448 115.949 269.114L118.794 252.967C119.683 247.94 120.527 242.914 121.416 237.887L123.105 228.101C123.728 224.765 124.305 221.429 124.928 218.004C124.955 217.789 125.053 217.59 125.206 217.437C125.359 217.284 125.558 217.187 125.772 217.159C125.983 217.12 126.199 217.128 126.407 217.181C126.614 217.235 126.807 217.334 126.972 217.47C127.156 217.615 127.295 217.809 127.373 218.029C127.452 218.249 127.467 218.487 127.417 218.716C127.417 219.872 127.017 221.029 126.794 222.185L126.172 225.966C125.905 227.301 125.683 228.68 125.461 230.014C123.802 238.91 122.187 247.97 120.616 257.193V258.216C119.505 264.488 118.261 270.671 117.194 277.031V276.765ZM128.394 21.5274L127.461 11.519C127.194 8.22735 126.928 4.89121 126.617 1.55507C126.583 1.33241 126.622 1.10497 126.725 0.905244C126.829 0.70552 126.993 0.543737 127.194 0.443018C127.39 0.35459 127.602 0.308856 127.817 0.308856C128.031 0.308856 128.243 0.35459 128.439 0.443018C128.663 0.534448 128.857 0.687257 128.999 0.883936C129.14 1.08061 129.223 1.31321 129.239 1.55507C129.239 3.64571 129.55 5.69188 129.728 7.73805V8.89458L132.839 40.4322C133.15 43.7239 133.417 47.06 133.728 50.3962C134.039 53.7323 134.261 57.0685 134.573 60.3601C134.606 60.5828 134.568 60.8102 134.464 61.0099C134.36 61.2097 134.196 61.3715 133.995 61.4722C133.799 61.5606 133.587 61.6063 133.373 61.6063C133.158 61.6063 132.946 61.5606 132.75 61.4722C132.537 61.3704 132.355 61.2138 132.222 61.0184C132.09 60.823 132.011 60.5958 131.995 60.3601C131.995 59.2926 131.995 58.1805 131.639 57.0685C131.284 55.9564 131.639 54.444 131.328 53.0651L129.372 30.8242L128.394 21.5274ZM126.617 278.143L127.15 272.094V270.848L129.861 239.311L130.795 229.347C131.061 226.011 131.328 222.63 131.639 219.294C131.663 219.066 131.745 218.848 131.877 218.661C132.01 218.474 132.188 218.324 132.395 218.226C132.59 218.138 132.802 218.092 133.017 218.092C133.232 218.092 133.444 218.138 133.639 218.226C133.837 218.319 133.999 218.473 134.103 218.665C134.207 218.857 134.247 219.078 134.217 219.294C134.217 220.584 133.995 221.829 133.906 223.075C133.817 224.32 133.684 225.432 133.595 226.678C132.928 233.928 132.306 241.179 131.684 248.474C131.372 251.766 131.106 254.968 130.839 258.216C130.572 261.463 130.261 264.71 129.995 267.957L129.106 278.143C129.084 278.389 128.999 278.625 128.858 278.828C128.718 279.03 128.528 279.193 128.306 279.3C128.11 279.388 127.898 279.434 127.683 279.434C127.469 279.434 127.257 279.388 127.061 279.3C126.885 279.169 126.75 278.991 126.671 278.786C126.592 278.582 126.573 278.359 126.617 278.143V278.143ZM141.328 60.1822C141.338 60.4067 141.28 60.6289 141.161 60.8195C141.042 61.0101 140.868 61.1601 140.662 61.2498C140.458 61.3366 140.239 61.3814 140.017 61.3814C139.796 61.3814 139.577 61.3366 139.373 61.2498C139.167 61.1601 138.993 61.0101 138.874 60.8195C138.755 60.6289 138.696 60.4067 138.706 60.1822V1.24369C138.68 1.01079 138.731 0.77572 138.851 0.574744C138.972 0.373768 139.155 0.218059 139.373 0.131646C139.577 0.0447761 139.796 0 140.017 0C140.239 0 140.458 0.0447761 140.662 0.131646C140.879 0.218059 141.063 0.373768 141.183 0.574744C141.304 0.77572 141.355 1.01079 141.328 1.24369V60.1377V60.1822ZM141.328 278.766C141.352 278.993 141.299 279.221 141.179 279.415C141.058 279.608 140.876 279.756 140.662 279.834C140.464 279.943 140.243 280 140.017 280C139.792 280 139.57 279.943 139.373 279.834C139.159 279.756 138.977 279.608 138.856 279.415C138.735 279.221 138.682 278.993 138.706 278.766V219.65C138.677 219.411 138.726 219.169 138.847 218.96C138.967 218.752 139.152 218.588 139.373 218.493C139.577 218.406 139.796 218.362 140.017 218.362C140.239 218.362 140.458 218.406 140.662 218.493C140.883 218.588 141.068 218.752 141.188 218.96C141.308 219.169 141.357 219.411 141.328 219.65V278.722V278.766ZM148.218 60.4046C148.211 60.6429 148.137 60.8743 148.003 61.0715C147.869 61.2686 147.681 61.4231 147.462 61.5167C147.267 61.6051 147.054 61.6508 146.84 61.6508C146.625 61.6508 146.413 61.6051 146.218 61.5167C146.016 61.4159 145.852 61.2542 145.748 61.0544C145.645 60.8547 145.607 60.6273 145.64 60.4046C145.64 59.337 145.64 58.225 145.951 57.1129C146.262 56.0009 145.951 54.4885 146.262 53.1096L149.062 21.5719C149.329 18.2358 149.64 14.8996 149.907 11.5635C150.173 8.22735 150.618 4.89121 150.618 1.55507C150.633 1.31321 150.717 1.08061 150.858 0.883936C151 0.687257 151.194 0.534448 151.418 0.443018C151.622 0.356148 151.841 0.311372 152.062 0.311372C152.284 0.311372 152.503 0.356148 152.707 0.443018C152.91 0.538972 153.073 0.701865 153.171 0.904353C153.268 1.10684 153.292 1.3366 153.24 1.55507L152.707 7.73805V8.89458C152.307 14.1434 151.818 19.4368 151.373 24.6857C150.929 29.9345 150.484 35.1834 149.996 40.4322C149.684 43.7239 149.418 47.06 149.151 50.3962C148.884 53.7323 148.529 57.0685 148.218 60.3601V60.4046ZM148.884 226.722C149.773 237.22 150.707 247.733 151.685 258.26C151.951 261.552 152.218 264.843 152.529 268.091C152.84 271.338 153.107 274.852 153.373 278.188C153.421 278.413 153.394 278.646 153.298 278.855C153.202 279.063 153.041 279.235 152.84 279.344C152.636 279.431 152.417 279.476 152.196 279.476C151.974 279.476 151.755 279.431 151.551 279.344C151.329 279.238 151.139 279.075 150.998 278.872C150.858 278.669 150.773 278.434 150.751 278.188C150.751 276.186 150.44 274.185 150.262 272.138V270.893C149.818 265.644 149.373 260.395 148.884 255.102C148.395 249.809 147.995 244.604 147.507 239.355C147.195 236.019 146.929 232.683 146.662 229.391L145.64 219.205C145.61 218.989 145.649 218.768 145.753 218.576C145.857 218.384 146.02 218.23 146.218 218.137C146.413 218.049 146.625 218.003 146.84 218.003C147.054 218.003 147.267 218.049 147.462 218.137C147.675 218.228 147.858 218.375 147.991 218.564C148.125 218.752 148.203 218.974 148.218 219.205C148.218 220.495 148.484 221.74 148.573 222.986C148.662 224.231 148.795 225.432 148.884 226.678V226.722ZM155.062 61.6056C155.035 61.8344 154.94 62.0497 154.79 62.2241C154.639 62.3984 154.44 62.5238 154.218 62.5842C153.994 62.6036 153.769 62.5782 153.555 62.5094C153.342 62.4407 153.144 62.33 152.973 62.1839C152.786 62.0515 152.64 61.868 152.553 61.6551C152.466 61.4422 152.443 61.2089 152.485 60.9829L153.818 53.7323L156.529 38.0747C157.463 32.9148 158.352 27.7549 159.285 22.506C159.907 18.814 160.574 15.122 161.241 11.3856C161.729 8.49424 162.263 5.6474 162.707 2.80056C162.743 2.57983 162.841 2.37412 162.991 2.20834C163.141 2.04255 163.336 1.92379 163.552 1.86644C163.769 1.82961 163.992 1.83826 164.207 1.89185C164.421 1.94543 164.622 2.0428 164.796 2.17781C164.981 2.34313 165.122 2.55128 165.207 2.78398C165.292 3.01667 165.319 3.26677 165.285 3.51227L164.218 9.16147L163.952 10.7183C162.411 19.6147 160.826 28.6594 159.196 37.8523C158.929 39.1867 158.707 40.5212 158.485 41.8557C157.951 45.1918 157.329 48.4835 156.751 51.7751C156.174 55.0668 155.685 58.3584 155.062 61.6056ZM161.507 269.692C160.574 264.488 159.685 259.328 158.752 254.079L155.951 238.51C154.855 231.927 153.699 225.343 152.485 218.76C152.439 218.528 152.461 218.287 152.548 218.066C152.634 217.845 152.782 217.654 152.973 217.515C153.148 217.38 153.349 217.282 153.563 217.229C153.777 217.175 154 217.166 154.218 217.203C154.429 217.238 154.625 217.338 154.776 217.49C154.928 217.641 155.028 217.837 155.062 218.048C155.418 220.495 155.862 222.897 156.263 225.299L159.018 240.957C159.907 246.117 160.841 251.276 161.818 256.525C162.93 263.064 164.085 269.87 165.285 276.231C165.324 276.47 165.299 276.715 165.213 276.941C165.128 277.168 164.984 277.368 164.796 277.521C164.622 277.656 164.421 277.753 164.207 277.807C163.992 277.86 163.769 277.869 163.552 277.832C163.152 277.832 162.841 277.476 162.707 276.898C162.707 275.564 162.263 274.185 161.996 272.806L161.507 269.692ZM177.064 273.651C177.135 273.87 177.14 274.106 177.076 274.328C177.013 274.55 176.885 274.748 176.708 274.896C176.548 275.051 176.35 275.161 176.134 275.216C175.919 275.271 175.692 275.27 175.478 275.211C175.263 275.153 175.067 275.04 174.909 274.884C174.75 274.727 174.635 274.532 174.574 274.318C173.908 271.96 173.286 269.603 172.708 267.201C171.019 261.151 169.419 255.146 167.819 249.141L164.485 236.642C163.596 233.439 162.752 230.192 161.863 226.945L159.507 217.292C159.448 217.061 159.454 216.818 159.525 216.591C159.596 216.363 159.728 216.159 159.907 216.002C160.069 215.86 160.262 215.758 160.47 215.704C160.679 215.65 160.897 215.645 161.107 215.691C161.336 215.724 161.549 215.827 161.716 215.986C161.883 216.146 161.997 216.354 162.041 216.581L163.952 223.653L172.174 254.301C173.73 260.707 175.463 267.156 177.286 273.651H177.064ZM159.507 62.4508L160.263 59.6039C160.663 58.1805 161.018 56.7571 161.374 55.3782C163.092 48.9431 164.781 42.5377 166.441 36.162C167.463 32.3365 168.441 28.5111 169.463 24.7301L170.485 20.9492C171.908 15.7893 173.286 10.5849 174.663 5.38051C174.718 5.15872 174.835 4.95721 175.001 4.79963C175.166 4.64205 175.373 4.53494 175.597 4.49087C175.811 4.45466 176.03 4.46791 176.238 4.52959C176.446 4.59127 176.637 4.69975 176.797 4.84673C176.979 4.99114 177.111 5.18893 177.175 5.41231C177.238 5.6357 177.231 5.87346 177.152 6.09222C176.53 8.44976 175.908 10.8073 175.241 13.2093C172.53 23.3957 169.774 33.582 167.063 43.7684C165.774 48.5724 164.53 53.421 163.196 58.225C162.752 59.8708 162.352 61.5167 161.907 63.118C161.729 63.6814 161.418 63.9928 160.974 64.0521C160.76 64.0997 160.538 64.092 160.328 64.0298C160.118 63.9675 159.927 63.8527 159.774 63.6963C159.621 63.5319 159.516 63.3294 159.469 63.1102C159.422 62.891 159.435 62.6632 159.507 62.4508V62.4508ZM186.175 270.626L185.908 269.87L183.731 263.687L179.819 253.145C177.508 246.739 175.375 240.378 172.841 233.973C171.819 231.037 170.752 228.057 169.641 225.077C168.53 222.096 167.241 218.404 165.996 215.113C165.898 214.897 165.87 214.656 165.918 214.424C165.966 214.192 166.087 213.981 166.263 213.823C166.621 213.559 167.068 213.447 167.508 213.511C167.746 213.545 167.969 213.647 168.15 213.805C168.332 213.963 168.463 214.17 168.53 214.401C168.796 215.068 169.063 215.824 169.33 216.536C169.908 218.093 170.441 219.694 171.019 221.296L178.308 241.446C179.464 244.693 180.664 247.896 181.908 251.187C184.131 257.415 186.353 263.687 188.709 270.003C188.787 270.208 188.804 270.43 188.756 270.644C188.709 270.858 188.599 271.053 188.442 271.204C188.277 271.341 188.084 271.439 187.876 271.493C187.669 271.547 187.452 271.555 187.242 271.516C186.998 271.485 186.768 271.385 186.578 271.227C186.389 271.069 186.249 270.861 186.175 270.626ZM165.996 64.5414C166.441 63.3849 166.841 62.2284 167.241 61.1163L168.53 57.6467C170.752 51.5527 172.974 45.5032 175.108 39.4536C176.575 35.5837 177.952 31.7138 179.553 27.8439L184.886 13.2093C185.375 11.8304 185.908 10.407 186.353 9.02802C186.432 8.79599 186.573 8.59021 186.761 8.43327C186.95 8.27634 187.177 8.17431 187.42 8.13839C187.85 8.09882 188.28 8.22619 188.62 8.49424C188.772 8.65861 188.877 8.86107 188.924 9.08029C188.971 9.2995 188.958 9.52733 188.886 9.73973C188.486 10.8963 188.042 12.0528 187.597 13.2093L186.353 16.6789L176.752 43.368L175.552 46.5707L172.441 55.1558L168.396 65.2087C168.325 65.4373 168.192 65.6416 168.012 65.7987C167.831 65.9558 167.61 66.0596 167.374 66.0983C167.153 66.1319 166.928 66.1175 166.713 66.056C166.498 65.9946 166.299 65.8877 166.13 65.7424C165.976 65.5861 165.88 65.3827 165.856 65.165C165.831 64.9472 165.881 64.7277 165.996 64.5414ZM172.574 66.899C173.108 65.7424 173.641 64.5414 174.219 63.3849L175.686 60.2712L181.908 46.9266C184.264 41.8112 186.664 36.7402 189.064 31.6248C190.975 27.488 192.887 23.3067 194.842 19.1699L197.509 13.4762C197.592 13.2618 197.738 13.0783 197.929 12.9509C198.12 12.8234 198.346 12.7583 198.576 12.7645C198.79 12.7953 198.996 12.8705 199.179 12.9854C199.363 13.1003 199.521 13.2523 199.642 13.4317C199.763 13.6414 199.827 13.8791 199.827 14.1212C199.827 14.3633 199.763 14.601 199.642 14.8107C199.109 15.8782 198.62 16.9903 198.131 18.1023C197.642 19.2144 197.109 20.3264 196.576 21.4385C194.042 26.9542 191.464 32.47 188.886 37.9413L183.242 50.1738C181.864 53.1985 180.441 56.2233 178.797 59.2926L174.352 68.1889C174.276 68.3954 174.136 68.5718 173.952 68.692C173.767 68.8122 173.549 68.8698 173.33 68.8562C172.893 68.8017 172.494 68.5782 172.219 68.2334C172.146 68.0001 172.14 67.7508 172.203 67.5146C172.266 67.2783 172.395 67.0648 172.574 66.899V66.899ZM197.509 266.356L196.753 264.665L194.398 259.683L188.131 246.339C185.819 241.223 183.419 236.153 181.064 230.993L172.574 212.889C172.453 212.679 172.39 212.441 172.39 212.199C172.39 211.957 172.453 211.719 172.574 211.51C172.849 211.165 173.248 210.941 173.686 210.887C173.899 210.876 174.11 210.93 174.292 211.041C174.474 211.152 174.619 211.315 174.708 211.51L176.486 215.291C176.93 216.314 177.419 217.292 177.819 218.226C179.375 221.562 180.975 224.899 182.53 228.19L191.198 246.917L198.22 261.908L199.642 265.11C199.764 265.312 199.828 265.542 199.828 265.778C199.828 266.013 199.764 266.243 199.642 266.445C199.376 266.77 198.993 266.978 198.576 267.023C198.349 267.047 198.121 266.994 197.928 266.873C197.734 266.752 197.587 266.57 197.509 266.356V266.356ZM182.397 63.7852C183.864 61.2942 185.242 58.8477 186.842 56.4012L198.398 36.3399C201.776 30.409 205.124 24.6115 208.443 18.9475C208.556 18.7469 208.726 18.5847 208.932 18.4816C209.138 18.3786 209.37 18.3395 209.598 18.3692C209.808 18.3809 210.012 18.4389 210.196 18.5388C210.381 18.6388 210.541 18.7783 210.665 18.9475C210.795 19.1538 210.865 19.3929 210.865 19.637C210.865 19.881 210.795 20.1201 210.665 20.3264C210.087 21.2605 209.554 22.2391 209.021 23.1733C208.487 24.1074 207.643 25.4863 207.021 26.6429C203.954 31.5803 201.109 36.5178 198.309 41.2774L191.02 53.9103L189.553 56.4012L180.975 71.2582C180.877 71.4678 180.72 71.6434 180.521 71.7623C180.323 71.8813 180.094 71.9381 179.864 71.9254C179.644 71.9088 179.431 71.8445 179.239 71.7369C179.047 71.6293 178.881 71.4812 178.752 71.3027C178.621 71.1052 178.55 70.873 178.55 70.6354C178.55 70.3979 178.621 70.1657 178.752 69.9682C179.375 68.9007 179.997 67.8331 180.575 66.7655L182.397 63.7852ZM200.442 242.113L210.487 259.461C210.615 259.652 210.684 259.876 210.684 260.106C210.684 260.336 210.615 260.56 210.487 260.751C210.379 260.939 210.224 261.095 210.037 261.204C209.85 261.313 209.637 261.372 209.421 261.374C209.188 261.4 208.952 261.354 208.746 261.243C208.54 261.131 208.372 260.96 208.265 260.751L207.598 259.683C206.62 257.904 205.598 256.125 204.532 254.346C202.398 250.565 200.087 246.784 197.953 242.958L188.709 226.989L184.619 219.739L178.752 209.597C178.624 209.406 178.556 209.182 178.556 208.952C178.556 208.722 178.624 208.498 178.752 208.307C178.881 208.128 179.047 207.98 179.239 207.873C179.431 207.765 179.644 207.701 179.864 207.684C180.308 207.684 180.664 207.684 180.975 208.307C181.286 208.93 182.13 210.22 182.664 211.243L184.708 214.668L200.442 242.113ZM188.797 67.9665L201.02 50.1738C203.02 47.3269 205.02 44.5246 206.976 41.6777L212.843 33.671C214.71 30.9131 216.665 28.1997 218.621 25.4418C218.755 25.2534 218.937 25.1044 219.148 25.0105C219.359 24.9166 219.592 24.8812 219.821 24.9081C220.038 24.93 220.247 25.0015 220.432 25.1172C220.617 25.2329 220.773 25.3897 220.888 25.5753C221.029 25.7435 221.106 25.9561 221.106 26.1758C221.106 26.3954 221.029 26.6081 220.888 26.7763L218.799 29.8011L216.621 32.8258L207.732 45.7701L198.842 58.7588L189.464 72.1033C188.783 73.1116 188.071 74.1347 187.331 75.1726C187.204 75.3687 187.023 75.5236 186.81 75.6184C186.597 75.7132 186.361 75.7437 186.131 75.7064C185.918 75.6864 185.713 75.6204 185.529 75.5128C185.344 75.4053 185.186 75.2588 185.064 75.0836C184.923 74.9154 184.845 74.7028 184.845 74.4831C184.845 74.2635 184.923 74.0509 185.064 73.8826L187.153 70.8579L188.797 67.9665ZM209.243 236.686L214.976 244.871L220.71 253.1C220.851 253.286 220.927 253.512 220.927 253.745C220.927 253.978 220.851 254.205 220.71 254.39C220.588 254.565 220.43 254.712 220.245 254.819C220.061 254.927 219.856 254.993 219.643 255.013C219.407 255.021 219.172 254.968 218.962 254.859C218.752 254.75 218.573 254.588 218.443 254.39C217.91 253.723 217.421 253.011 216.932 252.3L214.221 248.43L205.332 235.441C202.368 231.082 199.405 226.767 196.442 222.497C193.479 218.226 190.812 214.401 188.442 211.02C187.242 209.374 186.131 207.729 184.975 206.038C184.838 205.86 184.764 205.641 184.764 205.416C184.764 205.19 184.838 204.971 184.975 204.793C185.231 204.441 185.614 204.202 186.042 204.126C186.28 204.108 186.518 204.157 186.73 204.267C186.942 204.377 187.119 204.544 187.242 204.748C188.086 205.905 188.886 207.017 189.642 208.218C190.397 209.419 190.886 209.864 191.464 210.753L206.176 231.793C206.976 233.261 208.087 234.907 209.243 236.508V236.686ZM195.064 72.4147L205.198 60.2712L215.376 48.1721L221.732 40.2543L228.266 32.381C228.403 32.2027 228.593 32.0723 228.808 32.0084C229.024 31.9445 229.254 31.9504 229.466 32.0252C229.67 32.0916 229.853 32.2077 230.001 32.3631C230.148 32.5184 230.255 32.708 230.311 32.9148C230.423 33.1191 230.483 33.3486 230.483 33.582C230.483 33.8154 230.423 34.045 230.311 34.2493C229.022 35.7616 227.777 37.2295 226.577 38.6974C226.228 39.0317 225.902 39.3883 225.599 39.765L212.843 55.1558L205.154 64.2745L194.398 77.1743L192.309 79.6653C192.176 79.8493 191.987 79.9841 191.769 80.0485C191.552 80.1129 191.32 80.1033 191.109 80.0211C190.904 79.948 190.718 79.8303 190.564 79.6765C190.41 79.5226 190.293 79.3364 190.22 79.1315C190.107 78.9354 190.047 78.7129 190.047 78.4865C190.047 78.2601 190.107 78.0376 190.22 77.8415L192.931 74.5943L195.064 72.4147ZM217.288 230.148C221.584 235.278 225.866 240.408 230.133 245.538C230.25 245.733 230.313 245.956 230.313 246.183C230.313 246.411 230.25 246.634 230.133 246.828C230.07 247.032 229.961 247.218 229.815 247.372C229.668 247.527 229.488 247.645 229.288 247.718C229.075 247.78 228.849 247.78 228.636 247.717C228.423 247.654 228.233 247.53 228.088 247.362L224.932 243.581L223.555 241.446C216.769 233.35 209.984 225.24 203.198 217.114L196.753 209.508L190.309 201.813C190.196 201.6 190.137 201.364 190.137 201.123C190.137 200.883 190.196 200.646 190.309 200.434C190.39 200.238 190.51 200.062 190.664 199.917C190.817 199.771 190.999 199.659 191.198 199.588C191.409 199.506 191.641 199.497 191.858 199.561C192.076 199.625 192.265 199.76 192.398 199.944L193.953 201.813L197.109 205.593L205.687 215.824L217.288 230.148ZM224.888 223.164L232 230.281L238.978 236.998C239.158 237.153 239.288 237.359 239.352 237.589C239.415 237.818 239.408 238.062 239.333 238.288C239.277 238.495 239.171 238.684 239.023 238.839C238.876 238.995 238.692 239.111 238.489 239.177C238.262 239.252 238.021 239.267 237.787 239.22C237.553 239.173 237.336 239.067 237.155 238.91L231.955 233.751L220.843 222.541L209.643 211.332C208.932 210.709 208.265 210.042 207.598 209.33L195.42 197.231C195.264 197.051 195.157 196.833 195.111 196.599C195.064 196.365 195.079 196.123 195.153 195.896C195.226 195.691 195.344 195.505 195.498 195.351C195.651 195.198 195.837 195.08 196.042 195.007C196.251 194.939 196.475 194.933 196.687 194.988C196.9 195.043 197.092 195.158 197.242 195.318L202.487 200.523L213.643 211.732L224.888 223.164ZM200.665 77.3077L213.643 64.2745L223.021 54.8889L237.155 40.7881C237.318 40.6037 237.531 40.4716 237.768 40.4083C238.005 40.3449 238.256 40.3533 238.489 40.4322C238.713 40.4829 238.923 40.5858 239.101 40.7326C239.278 40.8794 239.419 41.0661 239.511 41.2774C239.589 41.4962 239.597 41.7339 239.533 41.9573C239.469 42.1807 239.337 42.3785 239.155 42.5229L234.044 47.7273C232.311 49.3731 230.666 51.0189 229.022 52.6648L211.643 70.1461L204.532 77.1743L197.42 84.2914C197.277 84.4619 197.085 84.5836 196.87 84.6394C196.655 84.6953 196.428 84.6825 196.22 84.6028C196.015 84.5297 195.829 84.4119 195.675 84.2581C195.522 84.1042 195.404 83.9181 195.331 83.7131C195.256 83.494 195.241 83.2585 195.287 83.0315C195.334 82.8045 195.442 82.5943 195.598 82.4231L200.665 77.3077ZM205.776 82.9124L217.91 72.7706L229.999 62.5842L242 52.5758L245.378 49.6845C245.543 49.5191 245.754 49.4058 245.983 49.3584C246.212 49.311 246.449 49.3316 246.667 49.4176C246.867 49.4981 247.049 49.6185 247.202 49.7714C247.355 49.9243 247.475 50.1066 247.556 50.3072C247.624 50.52 247.626 50.7484 247.563 50.9626C247.5 51.1768 247.373 51.367 247.2 51.5082L241.6 56.2678L217.288 76.596L215.421 78.1529L202.087 89.4958C201.912 89.6602 201.694 89.7723 201.458 89.8195C201.223 89.8667 200.979 89.847 200.754 89.7627C200.545 89.6956 200.356 89.5799 200.202 89.4252C200.047 89.2705 199.932 89.0812 199.865 88.873C199.783 88.6617 199.773 88.4291 199.837 88.2117C199.902 87.9943 200.036 87.8045 200.22 87.672L205.776 82.9124ZM247.2 228.101C247.377 228.25 247.505 228.448 247.569 228.67C247.632 228.892 247.627 229.127 247.556 229.347C247.475 229.542 247.354 229.718 247.201 229.864C247.048 230.009 246.866 230.121 246.667 230.192C246.472 230.31 246.25 230.372 246.022 230.372C245.795 230.372 245.572 230.31 245.378 230.192L243.956 228.946C242.489 227.745 241.067 226.5 239.511 225.299L226.177 213.912L215.465 205.015L207.821 198.565L200.131 192.071C199.947 191.939 199.813 191.749 199.748 191.531C199.684 191.314 199.694 191.081 199.776 190.87C199.849 190.665 199.966 190.479 200.12 190.325C200.274 190.171 200.46 190.053 200.665 189.98C200.89 189.896 201.134 189.876 201.369 189.924C201.605 189.971 201.823 190.083 201.998 190.247L207.598 194.695L208.309 195.363C216.191 201.887 224.029 208.47 231.822 215.113L247.2 228.101ZM254.312 218.36C254.502 218.495 254.654 218.676 254.755 218.886C254.856 219.096 254.902 219.328 254.889 219.561C254.87 219.773 254.804 219.979 254.696 220.163C254.589 220.348 254.442 220.506 254.267 220.628C254.082 220.769 253.855 220.845 253.623 220.845C253.39 220.845 253.164 220.769 252.978 220.628L246.934 216.18L234 207.284C229.555 204.215 225.377 201.19 221.021 198.387L211.465 191.626L204.62 186.733C204.427 186.601 204.272 186.421 204.171 186.21C204.07 185.999 204.025 185.765 204.043 185.532C204.071 185.317 204.145 185.11 204.26 184.926C204.375 184.741 204.528 184.584 204.709 184.465C204.895 184.324 205.121 184.248 205.354 184.248C205.586 184.248 205.813 184.324 205.998 184.465L211.954 188.646L231.422 202.302L237.866 206.75L254.312 218.36ZM210.665 88.7841L223.644 79.6653L236.578 70.7689L244.8 65.0752L252.845 59.0702C253.039 58.9524 253.262 58.8901 253.489 58.8901C253.717 58.8901 253.94 58.9524 254.134 59.0702C254.312 59.199 254.46 59.3653 254.568 59.5574C254.675 59.7494 254.74 59.9627 254.756 60.1822C254.769 60.4149 254.723 60.6472 254.622 60.8572C254.521 61.0673 254.368 61.2482 254.178 61.3832L251.734 63.118C250.534 63.9187 249.334 64.7638 248.178 65.6535L222.266 83.7576L205.865 95.2784C205.674 95.4065 205.45 95.475 205.22 95.475C204.991 95.475 204.766 95.4065 204.576 95.2784C204.251 95.0059 204.031 94.6283 203.954 94.2109C203.928 93.9703 203.968 93.7274 204.07 93.508C204.172 93.2886 204.331 93.1011 204.532 92.9654L210.665 88.7841ZM214.754 95.1895L239.511 80.8218L242.089 79.3539L249.734 74.9057L259.512 69.301C259.702 69.1729 259.927 69.1044 260.156 69.1044C260.386 69.1044 260.61 69.1729 260.801 69.301C260.99 69.4229 261.148 69.5865 261.264 69.7793C261.379 69.9721 261.449 70.189 261.468 70.413C261.487 70.6449 261.433 70.8769 261.313 71.0764C261.193 71.2759 261.014 71.4328 260.801 71.5251C259.779 72.1478 258.712 72.7706 257.601 73.3488C256.49 73.9271 255.512 74.5943 254.401 75.1726C245.511 80.5104 236.177 85.7593 227.021 91.0081L218.354 96.0346L209.465 101.061C209.28 101.202 209.053 101.278 208.821 101.278C208.588 101.278 208.362 101.202 208.176 101.061C207.985 100.942 207.825 100.779 207.709 100.585C207.593 100.392 207.525 100.174 207.509 99.949C207.497 99.7182 207.554 99.4889 207.672 99.2907C207.791 99.0925 207.967 98.9344 208.176 98.837L210.843 97.3246C212.265 96.5684 213.51 95.8567 214.754 95.1895ZM260.801 208.173C261.01 208.271 261.186 208.429 261.305 208.627C261.423 208.825 261.48 209.055 261.468 209.286C261.452 209.51 261.384 209.729 261.268 209.922C261.152 210.115 260.992 210.278 260.801 210.398C260.604 210.507 260.382 210.564 260.156 210.564C259.931 210.564 259.709 210.507 259.512 210.398L253.112 206.706L244.978 202.257C238.578 198.521 232.148 194.814 225.688 191.137L210.354 182.241C209.687 181.885 209.021 181.529 208.398 181.128C208.181 181.028 208.001 180.863 207.881 180.656C207.762 180.449 207.71 180.21 207.732 179.972C207.754 179.755 207.825 179.545 207.941 179.36C208.056 179.175 208.213 179.019 208.398 178.904C208.589 178.776 208.813 178.708 209.043 178.708C209.272 178.708 209.497 178.776 209.687 178.904L212.887 180.728L216.088 182.552L238.666 195.674L243.467 198.387L260.801 208.173ZM218.265 101.906L246.934 88.5616L265.112 80.1101C265.313 79.9884 265.544 79.9241 265.779 79.9241C266.014 79.9241 266.244 79.9884 266.446 80.1101C266.621 80.232 266.767 80.3908 266.874 80.5751C266.982 80.7595 267.048 80.9651 267.068 81.1777C267.08 81.4085 267.024 81.6378 266.905 81.836C266.786 82.0342 266.611 82.1923 266.401 82.2897L259.779 85.3589L245.378 92.0757L231.066 98.837C229.955 99.2818 228.888 99.8156 227.777 100.305L212.843 107.289C212.647 107.402 212.425 107.461 212.199 107.461C211.972 107.461 211.75 107.402 211.554 107.289C211.37 107.162 211.215 106.997 211.1 106.805C210.984 106.613 210.912 106.399 210.887 106.176C210.874 105.957 210.931 105.739 211.051 105.554C211.172 105.37 211.348 105.23 211.554 105.153L214.843 103.597L218.265 101.906ZM266.401 197.409C266.607 197.485 266.784 197.626 266.904 197.81C267.024 197.994 267.081 198.212 267.068 198.432C267.013 198.87 266.79 199.269 266.446 199.544C266.24 199.653 266.011 199.71 265.779 199.71C265.546 199.71 265.318 199.653 265.112 199.544L263.157 198.654L258.401 196.43L242.978 189.18L229.644 183.086L218.532 177.837L211.599 174.723C211.389 174.626 211.214 174.468 211.095 174.269C210.976 174.071 210.919 173.842 210.932 173.611C210.963 173.396 211.038 173.191 211.153 173.007C211.267 172.823 211.419 172.665 211.599 172.543C211.791 172.421 212.015 172.356 212.243 172.356C212.471 172.356 212.695 172.421 212.887 172.543L219.599 175.657L233.911 182.329L248.4 188.957L266.401 197.409ZM221.466 108.801L251.245 97.9918L269.646 91.275H270.046C270.246 91.1754 270.475 91.1476 270.693 91.1961C270.911 91.2447 271.106 91.3668 271.246 91.5419C271.382 91.7072 271.481 91.9004 271.534 92.1079C271.588 92.3154 271.596 92.5322 271.557 92.7429C271.522 92.974 271.425 93.1913 271.276 93.3715C271.127 93.5517 270.933 93.6881 270.712 93.766L267.246 95.056L263.779 96.3015L250.445 101.106L234.088 107.111L223.999 110.758L215.11 113.961C214.895 114.06 214.653 114.087 214.422 114.039C214.19 113.991 213.979 113.87 213.821 113.694C213.565 113.35 213.453 112.919 213.51 112.493C213.548 112.257 213.652 112.036 213.809 111.855C213.966 111.674 214.17 111.541 214.399 111.47L218.177 110.046L221.466 108.801ZM270.624 186.066C270.85 186.147 271.049 186.29 271.198 186.479C271.347 186.668 271.441 186.894 271.468 187.134C271.507 187.344 271.499 187.561 271.446 187.769C271.392 187.976 271.293 188.169 271.157 188.335C271.005 188.492 270.811 188.602 270.597 188.649C270.384 188.697 270.161 188.68 269.957 188.601L266.179 187.222L263.068 186.066L235.6 176.102L233.288 175.257C228.844 173.7 224.71 172.143 220.488 170.542L214.488 168.407C214.264 168.327 214.065 168.191 213.909 168.012C213.753 167.833 213.646 167.616 213.599 167.384C213.565 167.173 213.576 166.957 213.629 166.751C213.683 166.544 213.778 166.351 213.91 166.183C214.07 166.01 214.278 165.888 214.507 165.833C214.737 165.777 214.977 165.791 215.199 165.871L218.932 167.25L222.088 168.407L235.422 173.255L251.867 179.171L260.223 182.196L270.624 186.066ZM274.357 174.723C274.576 174.783 274.775 174.901 274.932 175.066C275.089 175.231 275.197 175.435 275.246 175.657C275.297 175.878 275.291 176.108 275.229 176.326C275.167 176.544 275.05 176.742 274.89 176.902C274.73 177.062 274.532 177.179 274.314 177.241C274.096 177.304 273.866 177.31 273.646 177.259L270.135 176.28L266.534 175.301L237.511 167.561L236 167.161L226.177 164.359L216.488 161.779C216.266 161.724 216.065 161.607 215.907 161.441C215.75 161.276 215.643 161.069 215.599 160.845C215.535 160.405 215.646 159.957 215.91 159.599C216.077 159.435 216.283 159.317 216.508 159.254C216.734 159.192 216.971 159.188 217.199 159.243L224.31 161.201L232.444 163.336L254.667 169.341L263.557 171.654L274.357 174.723ZM223.777 116.007L239.066 111.915L254.312 108L273.646 102.796C273.872 102.721 274.115 102.714 274.345 102.777C274.574 102.841 274.78 102.971 274.935 103.152C275.078 103.322 275.18 103.523 275.234 103.739C275.288 103.954 275.292 104.18 275.246 104.397C275.197 104.619 275.089 104.824 274.932 104.988C274.775 105.153 274.576 105.272 274.357 105.331L270.846 106.265L267.246 107.244L236.711 115.429L217.288 120.455C217.062 120.531 216.819 120.537 216.589 120.474C216.36 120.41 216.154 120.28 215.999 120.099C215.742 119.755 215.631 119.324 215.688 118.898C215.732 118.674 215.839 118.467 215.996 118.302C216.154 118.136 216.355 118.019 216.577 117.964L223.777 116.007ZM277.113 162.668C277.341 162.696 277.557 162.791 277.731 162.942C277.905 163.092 278.03 163.291 278.091 163.514C278.11 163.737 278.085 163.963 278.016 164.177C277.947 164.391 277.837 164.589 277.691 164.759C277.561 164.948 277.376 165.092 277.161 165.172C276.946 165.251 276.712 165.263 276.491 165.204H275.957L269.246 163.958L254.934 161.379L237.866 158.398L229.822 156.93L218.177 154.884C217.954 154.854 217.745 154.757 217.579 154.607C217.412 154.456 217.295 154.258 217.243 154.039C217.21 153.828 217.221 153.613 217.274 153.406C217.328 153.2 217.423 153.006 217.554 152.838C217.72 152.653 217.928 152.512 218.16 152.427C218.393 152.341 218.642 152.315 218.888 152.349L226.088 153.683L241.644 156.397L257.201 159.154L277.113 162.668ZM225.555 123.435L256.667 117.964L276.402 114.45C276.627 114.423 276.855 114.453 277.065 114.539C277.275 114.625 277.46 114.762 277.602 114.939C277.744 115.103 277.853 115.294 277.922 115.5C277.99 115.706 278.018 115.924 278.002 116.14C278.002 116.585 277.602 116.852 277.024 116.986L270.312 118.187H269.824L256.49 120.5L238.711 123.658L229.377 125.259L218.977 127.083C218.739 127.141 218.49 127.134 218.256 127.064C218.021 126.993 217.81 126.862 217.643 126.683C217.429 126.434 217.303 126.121 217.288 125.793C217.34 125.574 217.457 125.376 217.623 125.225C217.79 125.075 217.998 124.978 218.221 124.948L225.555 123.435ZM278.179 150.614C278.425 150.636 278.66 150.721 278.863 150.861C279.066 151.002 279.228 151.192 279.335 151.415C279.524 151.736 279.587 152.117 279.513 152.482C279.416 152.697 279.248 152.872 279.038 152.977C278.827 153.082 278.587 153.112 278.357 153.06L270.89 152.482L253.378 150.925L239.511 149.858L219.51 148.078C219.276 148.081 219.045 148.016 218.848 147.889C218.65 147.763 218.494 147.581 218.399 147.367C218.266 146.947 218.266 146.496 218.399 146.077C218.504 145.88 218.667 145.719 218.865 145.616C219.063 145.513 219.288 145.472 219.51 145.498H220.577L226.888 146.032H227.421L258.534 148.746L278.179 150.614ZM226.755 130.953H227.288L258.401 128.284L278.313 126.549C278.541 126.519 278.773 126.559 278.979 126.662C279.185 126.765 279.355 126.927 279.468 127.127C279.557 127.323 279.603 127.535 279.603 127.75C279.603 127.965 279.557 128.177 279.468 128.373C279.359 128.59 279.195 128.774 278.992 128.906C278.789 129.039 278.555 129.116 278.313 129.129L274.357 129.485L271.024 129.796L255.29 131.175L239.511 132.465L230.622 133.221L219.732 134.2C219.51 134.227 219.286 134.186 219.088 134.083C218.889 133.979 218.727 133.819 218.621 133.622C218.467 133.221 218.467 132.777 218.621 132.376C218.715 132.167 218.864 131.986 219.052 131.853C219.239 131.72 219.459 131.64 219.688 131.62L223.332 131.264L226.755 130.953ZM278.713 138.559C278.951 138.537 279.19 138.59 279.397 138.709C279.604 138.829 279.768 139.009 279.868 139.227C279.955 139.43 280 139.65 280 139.872C280 140.093 279.955 140.313 279.868 140.517C279.768 140.734 279.604 140.914 279.397 141.034C279.19 141.153 278.951 141.206 278.713 141.184H219.732C219.494 141.206 219.255 141.153 219.049 141.034C218.842 140.914 218.677 140.734 218.577 140.517C218.49 140.313 218.445 140.093 218.445 139.872C218.445 139.65 218.49 139.43 218.577 139.227C218.677 139.009 218.842 138.829 219.049 138.709C219.255 138.59 219.494 138.537 219.732 138.559H278.713V138.559Z" fill="#BEC2A1" fill-opacity="0.8"/>
</svg>
